<svg xmlns="http://www.w3.org/2000/svg" width="418.548" height="421.871" viewBox="0 0 418.548 421.871">
  <path id="Path_133" data-name="Path 133" d="M67.7,89.123q-12.3,18.836-24.58,37.685a20.439,20.439,0,0,1-2.2,3.094A73.249,73.249,0,0,0,23.7,159.7c-1.757,5.694-4.2,11.178-6.357,16.746-1.977,5.1-.239,7.361,5.1,6.579.359-.053.714-.12,1.073-.168,18-2.4,35.889-1.575,53.786,1.346a146.352,146.352,0,0,0,21.29,1.681c10.127.153,20.266-.454,30.4-.387a51.519,51.519,0,0,1,10.678,1.719c6.453,1.436,4.18,7.986-.583,9.66-4.5,1.584-9.863,1.227-14.55,1.187a133.7,133.7,0,0,1-32.365-4.575c-21.866-5.574-46.651-2.042-68.464,2.326-3.551.711-7.625,2.394-9.921,4.989A53.954,53.954,0,0,0,.382,234.7c-.242,5.236-2.467,22.366,7.406,18.759,4.158-1.52,8.194-3.629,12.481-4.48,9.306-1.847,18.742-3.037,28.117-4.533,6.4-1.022,12.985-1.474,19.157-3.3,13.613-4.018,27.266-5.461,41.279-3.012.127,0,.254,0,.381,0,3.209,4.218,2.945,6.266-1.311,9.028-9.116,5.918-19.095,9.121-29.929,7.416-19.5-3.07-38.842.823-58.264.809-15.466-.012-16.588,18.632-17.955,30.3-.744,6.35,2.715,8.059,8.24,5.815,5.975-2.427,11.17-4.1,17.8-3.839,7.824.3,15.738.818,23.567.665,4.644-.091,10.336-1.465,14.675.758,10.59,5.426-7.588,11.555-11.273,13.425-10.8,5.48-21.819,10.591-32.276,16.665-7.952,4.619-9.577,9.681-6.365,18.217,3.721,9.889,8.238,19.485,12.574,29.135,2.631,5.854,9.882,5.589,15.31,6.452a124.775,124.775,0,0,0,15.368,1.8c10.649.355,20.482-2.891,26.322-12.312,6.19-9.985,11.673-20.415,17.294-30.742,4.136-7.6,6.877-16.048,14.467-22.371l6.543,3.695v.01c-.343,4.726-.354,9.5-1.094,14.168-2.527,15.92-6.593,31.881-7.151,48.014a33.863,33.863,0,0,1-3.979,15.468c-2.13,4.152-2.492,8.29,3,9.6,4.772,1.142,10.012-1.172,14.478-2.569,7.391-2.312,14.911-4.19,22.172-6.914,14.261-5.351,19.489-19.48,20.365-33.717.878-14.288.45-28.678,0-42.974-.447-14.314.693-28.473,1.766-42.732a79.517,79.517,0,0,1,1.53-11.809c.729-3.174,2.262-6.179,6.158-6.722.007-.112.014-.223.022-.335l.072-.129.557-.018.234.006c.169-.021.338-.043.505-.067q2.231,2.121,4.46,4.244l.635.028-.024.753-.6-.021a23.979,23.979,0,0,1,.453,3.687c-.384,13.917-.9,27.831-1.229,41.748a227.275,227.275,0,0,0,5.039,54.746,52.149,52.149,0,0,1,.729,13.069c-.067,2.166-.257,4.458,1.242,6.241,2.867,3.414,8.684,2.217,12.4,1.323,13.469-3.244,24.033-11.947,35.307-19.489,21.139-14.14,59.339-22.981,60.477-54.305a113.949,113.949,0,0,0-.73-19.2c-2.9-21.64-12.866-40.53-23.7-59.044-4.842-8.275-9.568-16.62-14.27-24.975a32.833,32.833,0,0,1-1.74-4.549l2.371-1.5-.109-.217.127.214c1.913,2.738,3.979,5.384,5.712,8.233q9.38,15.417,18.567,30.95c10.183,17.2,20.21,34.457,20.123,55.426a5.5,5.5,0,0,0,2.218,4.189c5.424,2.967,17.664-14.711,20-17.71a104.667,104.667,0,0,0,18.585-36.432c1.647-6.019,2.173-12.492-.3-18.364-1.888-4.491-8.334-8.416-6.985-13.614,1.171-4.511,6.325-7.928,8.847-11.715a70.692,70.692,0,0,0,9.25-21.47c2.661-10.257,5.47-20.347,3.835-31.029A54.357,54.357,0,0,0,351.5,117.034c-9.7-11.655-28.346-24.3-44.007-17.375l-1.153-1.447c.968-1.389,1.672-3.056,2.874-4.2,9.112-8.666,18.576-16.979,27.427-25.9,16-16.124,31.661-32.581,47.419-48.942,1.876-1.948,5.679-5.76,5.679-5.76h0c-.012-.017,7.182-3.741,7.371-7.5.119-2.367-2.712-6.892-4.667-5.724-12.879,7.7-37.8,36.436-60.868,60.553,0,0-6.216,5.557-11.615,11.518-2.622,2.894-9.235,7.946-9.222,7.951l-.012,0a54.831,54.831,0,0,1-1.309-7.171c-.843-16.24-8.146-29.585-19.179-40.839-9.178-9.361-21.362-17.6-33.12-23.358a60.09,60.09,0,0,0-31.9-6.011A70.947,70.947,0,0,0,207.125,6.87c-3.165,1.181-8.846,2.884-9.065,7.049-.306,5.809,8.042,10.069,10.882,14.37,9.52,14.416,15.453,30.4,19.587,47.1-.032.161-.06.322-.083.485l-.106.077c-.134.014-.269.031-.4.048-2.858,1.917-4.64,1.3-7.6-2.857q-4.719-6.629-9.27-13.378c-7-10.36-14.371-20.4-23.432-29.1-6.709-6.441-14.092-8.841-22.957-4.442-12.742,6.323-25.752,11.613-38.012,18.955a170.387,170.387,0,0,0-17.08,11.586c-5.337,4.149-9.869,9.437-15.542,13.127-6.06,3.941-12.511,7.283-18.808,10.858l-4.662,4.325C69.629,86.426,68.607,87.737,67.7,89.123Zm229.57,74.465h.013c7.9.5,13.48,5.328,18.593,10.56a47.728,47.728,0,0,1,11.734,20.8c.913,3.258.724,10.633-4.825,8.145-4.393-1.97-8.889-4.212-12.492-7.322a90.857,90.857,0,0,1-12.791-13.87c-2.038-2.684-3.006-6.346-3.868-9.717-1.131-4.428-.154-6.172,3.648-8.593Zm-69.428,57.494c2.382-.254,4.014,2.454,4.319,4.371,3.516,22.052,7.027,44.1,10.406,66.177.216,1.411-.641,2.986-1.009,4.487l.014.026q.38.38.759.762v.02l-.781-.78.008-.028a13.466,13.466,0,0,1-1.747-3.257q-4.544-20.432-9.016-40.879C230.045,248.549,221.562,221.754,227.844,221.083Zm-54.075-38.452c3.34,1.318,3.944,3.41,2.477,6.7l-.007.009c-4.1.882-8.227,1.066-11.654-1.707a5.851,5.851,0,0,1-1.885-4.463C163.123,179.142,171.948,181.913,173.769,182.631Zm2.86-35.748c4.5,9.806-13.137,8.432-18.115,8.162-8.83-.481-17.563-3.03-24.461-8.746-8.082-6.7-18.374-8.719-28.1-11.817-2.878-.916-5.773-1.779-8.661-2.666l.08-1.388a12.113,12.113,0,0,1,3.448-.45c5.531.9,11.084,1.75,16.534,3.025a34.115,34.115,0,0,0,16.35,0,41.623,41.623,0,0,1,23.924,1.07C163.568,136.178,173.843,140.819,176.629,146.883ZM133.97,74.771c16.305,2.552,32,6.843,45.314,17.244,6.039,4.719,11.947,9.607,17.854,14.492a33.33,33.33,0,0,1,3.236,3.527c-.266,1.1-.477,1.966-.686,2.834v.006c-2.315-.625-4.849-.842-6.907-1.945-8.45-4.528-16.689-9.448-25.129-13.994-10.749-5.79-21.641-11.315-32.415-17.059a49.748,49.748,0,0,1-5.457-3.888l-.019.007v-.02l.019.013C131.18,75.55,132.668,74.568,133.97,74.771Z" transform="translate(397.094 421.311) rotate(-177)" fill="none" stroke="#ac8053" stroke-miterlimit="10" stroke-width="1" opacity="0.7"/>
</svg>
