<?xml version="1.0" standalone="no"?>
<!DOCTYPE svg PUBLIC "-//W3C//DTD SVG 20010904//EN"
 "http://www.w3.org/TR/2001/REC-SVG-20010904/DTD/svg10.dtd">
<svg version="1.0" xmlns="http://www.w3.org/2000/svg"
  width="418.548" height="421.871" viewBox="0 0 1080.000000 1080.000000"
 preserveAspectRatio="xMidYMid meet">

<g transform="translate(0.000000,1080.000000) scale(0.100000,-0.100000)"
fill="#000000" stroke="none">
<path d="M7188 10123 c-30 -32 -202 -295 -301 -459 -146 -243 -253 -504 -297
-721 -11 -54 -29 -203 -40 -330 -11 -128 -29 -338 -40 -465 -16 -181 -20 -298
-18 -523 3 -341 -8 -448 -53 -543 -26 -53 -70 -102 -275 -310 -173 -175 -244
-240 -244 -226 0 12 41 161 90 332 178 616 213 799 370 1927 106 757 135 886
275 1203 35 80 36 84 19 103 -23 25 -28 24 -40 -8 -6 -16 -93 -147 -193 -292
-254 -369 -306 -458 -374 -642 -56 -149 -73 -221 -126 -539 -147 -868 -203
-1457 -179 -1868 21 -336 12 -358 -249 -625 -377 -386 -717 -721 -720 -711 -4
11 26 108 151 498 125 389 164 562 470 2106 236 1186 275 1347 401 1655 29 72
56 145 60 164 l7 34 -26 -19 c-43 -32 -217 -277 -341 -484 -210 -348 -410
-703 -458 -812 -128 -292 -180 -510 -232 -963 -43 -386 -63 -718 -75 -1300 -9
-450 -26 -709 -56 -853 -24 -116 -70 -200 -200 -362 -116 -144 -452 -540 -459
-540 -4 0 4 33 69 300 43 175 127 632 250 1360 114 671 212 1328 296 1980 54
425 54 424 160 815 66 244 66 245 42 245 -25 0 -56 -46 -278 -405 -265 -429
-365 -639 -429 -901 -127 -521 -201 -1010 -224 -1494 -26 -537 -22 -1142 10
-1602 15 -213 5 -334 -40 -456 -34 -95 -69 -150 -190 -302 -51 -63 -162 -216
-249 -339 -226 -321 -425 -588 -429 -575 -2 6 30 124 71 261 125 417 192 810
356 2088 120 931 199 1444 300 1958 62 309 88 400 204 707 126 329 141 373
133 393 -13 34 -47 -6 -232 -263 -401 -560 -418 -592 -514 -964 -111 -428
-154 -758 -191 -1491 -34 -672 -58 -998 -100 -1355 -11 -91 -33 -307 -50 -480
-63 -651 -119 -979 -195 -1130 -34 -68 -247 -372 -349 -497 -63 -79 -196 -212
-196 -197 0 5 18 64 40 129 47 137 101 336 129 476 31 150 48 296 81 689 30
350 58 620 135 1295 20 171 40 407 45 525 5 118 12 240 15 270 18 165 125 745
200 1081 57 257 84 360 195 739 110 375 123 432 107 442 -6 4 -18 2 -25 -5
-28 -23 -675 -1346 -835 -1707 -166 -375 -195 -481 -227 -835 -60 -668 -53
-989 36 -1795 31 -279 42 -701 25 -960 -15 -224 -39 -446 -52 -488 -22 -68
-259 -367 -608 -766 l-260 -298 -32 -97 c-17 -53 -47 -133 -67 -179 -26 -61
-32 -86 -24 -94 9 -9 17 -6 33 8 22 19 495 607 824 1024 197 249 260 318 364
402 258 209 450 294 1227 547 414 134 467 147 724 176 316 36 962 176 1185
257 311 114 888 428 1052 572 65 56 32 68 -71 27 -80 -32 -378 -82 -686 -116
-730 -79 -837 -100 -1320 -259 -157 -52 -384 -126 -505 -165 -263 -85 -386
-133 -605 -236 -279 -130 -337 -171 -714 -500 -184 -161 -266 -226 -266 -212
0 3 145 192 322 419 177 227 394 510 483 628 180 239 227 288 319 331 57 27
84 31 277 49 118 11 255 24 304 30 225 25 336 31 560 29 518 -4 688 13 1145
117 85 19 283 64 440 99 334 75 447 107 602 173 199 84 284 140 697 459 241
186 297 236 285 254 -11 18 -41 7 -184 -71 -341 -185 -651 -304 -935 -356 -78
-14 -186 -17 -810 -19 -767 -1 -825 -4 -1085 -56 -150 -29 -367 -104 -495
-169 -60 -31 -255 -138 -433 -239 -178 -101 -325 -181 -328 -178 -12 12 36 82
333 482 359 484 354 480 500 514 117 27 406 76 573 96 188 24 629 31 845 15
351 -27 750 -11 1023 41 235 44 607 148 1054 294 338 110 455 175 640 353 105
102 172 185 165 206 -8 23 -36 15 -117 -35 -264 -160 -481 -234 -790 -270
-163 -19 -593 -14 -910 10 -483 37 -562 32 -1069 -69 -487 -97 -695 -170
-1176 -414 -132 -66 -243 -122 -247 -124 -27 -12 13 37 179 218 102 113 255
282 339 376 84 95 170 186 191 203 63 52 132 72 283 82 74 4 187 16 250 25 63
10 183 19 265 21 198 6 811 -14 1000 -32 261 -25 412 -20 655 21 241 40 399
78 515 123 108 41 603 320 712 401 149 109 381 345 360 366 -7 7 -74 -20 -247
-98 -200 -91 -248 -109 -393 -148 -253 -67 -596 -110 -1307 -165 -387 -30
-963 -81 -1075 -96 -197 -26 -402 -94 -635 -210 -96 -48 -177 -85 -179 -83 -3
3 152 163 344 355 237 237 363 357 390 369 29 14 86 21 215 30 194 12 283 22
445 50 224 39 504 60 1020 75 389 12 740 40 895 71 96 20 339 95 455 141 190
75 339 187 281 209 -8 3 -57 -1 -108 -10 -210 -34 -345 -30 -537 18 -129 33
-241 45 -461 53 -226 7 -425 -6 -790 -53 -504 -63 -530 -71 -978 -300 -178
-91 -327 -162 -330 -159 -16 15 452 452 517 483 59 27 386 94 606 124 213 30
626 32 810 4 160 -23 423 -32 555 -17 202 22 515 108 659 181 126 63 217 137
196 158 -4 4 -88 6 -188 4 -100 -2 -339 4 -531 13 -365 17 -420 15 -771 -21
-430 -44 -705 -101 -930 -194 -55 -22 -121 -50 -147 -60 -27 -11 -48 -16 -48
-11 0 12 626 442 690 473 115 57 168 62 540 52 184 -5 432 -9 550 -8 201 1
225 3 365 32 216 45 565 141 592 162 l23 18 -32 12 c-58 21 -408 60 -593 67
-257 8 -382 -11 -963 -151 -406 -98 -380 -93 -362 -71 8 10 179 135 380 278
201 143 408 294 460 336 229 184 424 383 571 583 58 79 129 194 129 211 0 28
-318 -130 -472 -235 -200 -135 -440 -372 -759 -748 -194 -229 -246 -286 -253
-279 -4 3 151 410 344 905 193 494 354 918 357 941 11 81 -28 56 -177 -109
-114 -127 -188 -234 -258 -374 -123 -246 -185 -444 -272 -879 -86 -435 -135
-573 -234 -661 -57 -51 -156 -111 -156 -94 0 5 9 33 20 62 56 146 590 2171
590 2238 0 13 -8 28 -17 35 -16 12 -21 7 -44 -33 -15 -26 -63 -108 -108 -182
-189 -310 -326 -651 -396 -981 -14 -67 -43 -264 -65 -438 -22 -174 -53 -407
-69 -518 -40 -274 -35 -267 -258 -439 -274 -213 -355 -274 -362 -274 -4 0 21
107 56 238 118 439 143 561 234 1147 100 653 124 766 255 1219 93 319 100 391
32 319z m32 -49 c-6 -27 -45 -164 -85 -305 -123 -422 -145 -530 -255 -1239
-34 -217 -77 -471 -96 -565 -35 -173 -81 -361 -83 -336 -1 7 6 39 14 70 26
100 62 317 130 766 70 466 115 723 165 951 34 156 99 399 130 488 11 33 18 61
16 63 -20 20 -166 -206 -359 -552 -90 -162 -150 -330 -182 -505 -49 -275 -123
-1726 -88 -1737 5 -2 17 27 26 64 10 38 23 86 29 108 l10 39 14 -24 c7 -14 13
-19 13 -10 0 8 -6 26 -14 40 -16 29 -15 32 -49 -95 l-25 -90 0 110 c-1 255 20
726 49 1095 54 698 64 731 412 1318 145 245 166 268 122 132 -40 -125 -131
-504 -168 -700 -19 -102 -55 -320 -80 -485 -122 -803 -149 -951 -216 -1189
-17 -60 -29 -111 -26 -113 2 -2 7 10 11 27 4 17 9 29 11 27 3 -3 -9 -57 -26
-122 -18 -64 -29 -119 -26 -123 8 -8 61 30 316 228 233 181 271 218 295 288
15 45 62 375 110 767 43 349 70 480 147 715 80 242 194 481 346 727 45 72 82
136 82 143 0 17 24 6 28 -13 3 -16 -111 -472 -279 -1122 -128 -492 -260 -968
-300 -1088 -23 -65 -39 -121 -36 -123 7 -7 127 63 173 102 23 18 55 54 72 79
49 74 107 272 171 586 33 162 76 351 95 420 99 362 242 633 452 859 137 148
156 159 135 77 -6 -25 -164 -438 -352 -918 -187 -481 -341 -885 -342 -898 -1
-13 3 -25 8 -27 12 -3 125 123 321 356 255 303 519 557 709 684 96 65 395 226
418 226 10 0 17 -4 17 -10 0 -17 -133 -206 -217 -307 -104 -125 -296 -313
-442 -432 -63 -51 -284 -213 -490 -360 -207 -147 -382 -275 -390 -284 -26 -32
16 -30 170 7 83 20 155 33 160 31 5 -3 50 5 101 19 112 30 264 58 453 82 180
24 711 27 818 5 37 -7 67 -17 67 -22 0 -10 -132 -50 -271 -83 -247 -58 -519
-80 -809 -65 -102 6 -189 14 -195 20 -5 6 -2 9 10 10 19 0 19 1 0 9 -31 14
-108 11 -135 -5 -14 -8 -45 -14 -70 -14 l-45 0 40 19 c22 10 33 19 25 19 -8 0
-37 -10 -65 -23 l-50 -24 45 -3 c67 -3 102 1 132 17 15 8 42 14 60 14 l33 -1
-30 -13 c-28 -12 -24 -13 75 -24 422 -47 826 -8 1208 115 45 15 82 30 82 34 0
14 -147 40 -288 51 -195 15 -488 -2 -809 -46 -68 -9 65 22 217 51 202 38 458
38 768 0 222 -28 253 -35 230 -54 -26 -22 -483 -139 -648 -167 -162 -26 -251
-28 -685 -12 -507 18 -571 13 -717 -60 -37 -19 -652 -437 -680 -463 -4 -3 -3
-12 1 -20 7 -10 26 -6 97 24 302 126 518 179 921 225 410 46 519 50 846 34
166 -8 400 -14 519 -12 119 1 221 -1 225 -6 28 -29 -237 -173 -413 -225 -350
-102 -620 -123 -959 -74 -174 25 -629 25 -815 0 -174 -24 -522 -92 -595 -117
-68 -23 -67 -22 -334 -274 -189 -178 -243 -238 -227 -253 5 -5 96 39 461 224
346 175 365 181 847 242 614 78 964 78 1293 -2 116 -27 146 -31 280 -31 104 0
179 6 243 18 51 10 96 15 100 11 15 -15 -92 -95 -191 -144 -107 -53 -313 -125
-476 -166 -189 -48 -421 -68 -1050 -90 -545 -20 -694 -32 -981 -80 -80 -14
-244 -32 -364 -40 -130 -10 -231 -21 -250 -30 -42 -18 -753 -724 -759 -753 -5
-20 8 -16 126 47 236 124 415 192 604 230 97 20 877 96 911 89 15 -3 -251 -32
-628 -69 -265 -26 -566 -114 -808 -235 -158 -79 -197 -106 -189 -128 4 -11 23
-6 84 25 43 21 98 41 123 44 25 3 38 2 30 -1 -95 -40 -105 -46 -85 -54 33 -14
128 -11 210 6 68 14 144 15 574 11 367 -4 535 -9 646 -22 83 -9 220 -17 305
-17 140 -1 178 3 390 41 493 87 616 139 1100 456 126 83 234 170 345 277 6 5
-27 -5 -72 -21 -46 -17 -120 -45 -164 -61 -108 -40 -266 -82 -474 -124 -347
-70 -653 -105 -990 -111 l-230 -4 220 19 c978 85 1202 129 1617 319 180 82
198 89 198 71 0 -31 -261 -271 -389 -358 -87 -59 -435 -259 -568 -326 -154
-77 -286 -114 -593 -167 -236 -40 -403 -47 -640 -25 -410 39 -1101 45 -1310
13 -58 -9 -159 -20 -225 -23 -218 -12 -279 -43 -436 -222 -62 -70 -216 -241
-343 -380 -218 -239 -262 -293 -254 -311 2 -4 82 35 178 86 339 180 680 322
930 387 165 43 669 141 802 155 143 16 277 14 581 -11 324 -25 794 -30 952
-10 292 38 547 124 742 248 68 43 134 77 140 71 11 -11 -56 -97 -146 -187
-105 -104 -251 -208 -372 -264 -41 -19 -193 -73 -339 -120 -541 -175 -879
-262 -1165 -301 -176 -24 -567 -31 -815 -14 -244 17 -567 17 -740 0 -302 -29
-736 -105 -815 -142 -22 -11 -62 -41 -87 -67 -68 -71 -639 -848 -654 -890 -7
-21 -11 -39 -9 -40 6 -6 86 37 410 220 448 253 542 297 760 351 284 71 412 80
1230 82 516 1 716 5 760 14 314 65 600 172 918 343 103 55 190 98 193 95 11
-11 -24 -48 -117 -121 -68 -54 -97 -71 -106 -64 -18 14 -38 8 -213 -65 -267
-111 -462 -171 -690 -214 -85 -16 -150 -18 -640 -15 -1045 7 -1325 -29 -1695
-218 -163 -83 -617 -341 -611 -347 3 -3 101 50 218 118 292 168 534 289 653
327 286 92 645 118 1435 107 405 -6 481 -5 585 10 221 30 456 101 774 231 85
35 156 62 159 60 4 -5 -252 -183 -383 -266 -55 -35 -147 -96 -205 -135 -71
-48 -135 -82 -195 -104 -128 -46 -887 -220 -1245 -285 -226 -41 -291 -47 -685
-56 -233 -6 -500 -19 -690 -34 -323 -27 -394 -30 -310 -15 86 16 95 19 95 35
0 12 -7 14 -33 9 -19 -4 -71 -7 -115 -8 -49 -1 -82 -6 -82 -12 0 -7 24 -8 73
-4 112 12 140 8 53 -7 -87 -14 -88 -15 -78 -31 6 -9 33 -9 107 -3 335 31 697
52 1020 60 409 10 442 13 825 90 293 58 964 212 1041 239 82 28 132 55 269
146 69 45 177 116 240 158 63 41 161 107 218 146 56 39 102 70 102 67 0 -13
-307 -243 -472 -352 -183 -122 -435 -223 -698 -280 -69 -14 -270 -60 -447
-100 -596 -136 -743 -154 -1233 -152 -333 1 -374 -1 -650 -30 -162 -17 -331
-33 -375 -37 -138 -11 -229 -45 -311 -117 -20 -17 -108 -128 -197 -247 -89
-118 -309 -404 -489 -636 -181 -231 -328 -428 -328 -438 0 -17 1 -17 31 0 17
10 126 101 243 202 388 337 425 364 684 488 232 111 395 175 717 278 149 47
369 120 490 160 359 122 555 161 1085 220 487 53 758 96 853 134 91 37 101 38
85 11 -24 -39 -304 -216 -523 -333 -395 -209 -550 -270 -879 -348 -412 -97
-667 -144 -938 -174 -81 -9 -174 -23 -205 -31 -86 -22 -867 -278 -1023 -336
-431 -159 -673 -331 -938 -668 -321 -408 -853 -1069 -882 -1095 -32 -30 -32
-30 -25 -5 4 14 15 41 25 60 9 19 34 85 54 145 20 61 42 120 49 132 7 12 114
138 238 280 356 408 593 703 624 776 21 51 55 396 63 653 10 284 0 538 -37
879 -82 769 -87 1154 -20 1814 30 297 64 410 249 821 120 265 776 1600 797
1620 14 14 15 11 9 -30 -4 -25 -47 -183 -96 -351 -174 -594 -260 -970 -369
-1619 -34 -196 -42 -275 -51 -470 -6 -141 -26 -379 -50 -590 -85 -747 -100
-897 -135 -1300 -47 -560 -82 -755 -200 -1118 -26 -79 -44 -151 -40 -160 22
-57 522 587 584 753 64 171 117 499 171 1065 16 173 39 392 50 485 43 363 67
684 100 1325 24 463 35 629 56 800 50 420 163 905 257 1104 48 100 112 197
382 576 273 382 275 381 110 -50 -144 -377 -169 -462 -239 -830 -101 -528
-170 -984 -291 -1920 -166 -1288 -229 -1653 -360 -2087 -40 -136 -71 -251 -69
-255 3 -4 9 -8 14 -8 11 0 236 301 410 550 144 206 240 335 344 465 71 89 119
179 147 280 28 98 31 287 10 615 -18 285 -10 1340 13 1596 36 404 83 710 172
1114 72 321 132 490 258 718 62 112 405 670 443 720 54 71 50 38 -31 -251 -79
-281 -99 -387 -151 -787 -96 -747 -191 -1376 -326 -2155 -131 -760 -178 -1010
-234 -1240 -30 -125 -53 -231 -50 -234 11 -10 34 14 217 229 208 245 336 402
384 475 99 149 121 349 144 1285 13 536 32 795 85 1220 62 488 140 715 403
1170 212 369 380 642 474 772 146 201 161 205 82 20 -62 -143 -123 -332 -174
-532 -22 -91 -142 -669 -265 -1285 -318 -1594 -310 -1559 -490 -2120 -110
-346 -121 -385 -108 -385 19 0 883 870 931 937 13 18 32 58 44 90 21 56 22 75
23 458 1 399 5 481 46 855 38 344 155 1089 200 1263 41 160 126 350 231 517
30 47 124 187 210 311 86 125 163 241 173 258 9 18 22 30 28 28 17 -6 9 -43
-23 -107 -37 -74 -93 -224 -124 -335 -45 -160 -74 -331 -146 -850 -81 -579
-97 -686 -146 -980 -63 -378 -79 -447 -219 -936 -52 -182 -95 -345 -95 -364 0
-32 10 -23 247 216 136 137 259 268 274 290 61 92 84 277 73 594 -7 219 -3
293 41 785 38 432 45 488 75 605 65 258 181 493 445 900 101 157 147 217 157
207 5 -5 4 -31 -2 -58z m-543 -2556 c-3 -8 -6 -5 -6 6 -1 11 2 17 5 13 3 -3 4
-12 1 -19z m-10 -40 c-3 -8 -6 -5 -6 6 -1 11 2 17 5 13 3 -3 4 -12 1 -19z
m2263 -1082 c-152 -143 -481 -363 -730 -487 -202 -100 -284 -124 -655 -189
-266 -46 -411 -51 -665 -24 -106 12 -285 18 -665 21 -451 4 -529 3 -588 -11
-73 -17 -177 -21 -177 -8 0 10 44 32 64 32 6 0 21 7 32 16 18 14 15 15 -42 12
-44 -3 -82 -14 -139 -41 -43 -21 -80 -35 -83 -33 -15 16 246 149 412 211 211
78 392 115 710 145 116 11 292 29 391 40 105 13 298 25 465 30 391 12 640 39
980 106 234 46 410 92 555 147 131 49 159 56 135 33z m-1932 -283 c-10 -2 -28
-2 -40 0 -13 2 -5 4 17 4 22 1 32 -1 23 -4z"/>
<path d="M7730 9725 c-179 -324 -272 -563 -334 -867 -25 -119 -32 -176 -76
-548 -11 -96 -23 -185 -26 -198 -3 -17 0 -25 14 -29 18 -4 18 -7 -5 -63 -22
-56 -42 -168 -42 -235 l0 -30 18 22 c23 27 139 364 186 538 31 114 367 1499
377 1549 1 10 -2 21 -8 23 -7 2 -53 -71 -104 -162z m66 -7 c-19 -79 -78 -323
-131 -543 -172 -718 -225 -917 -301 -1147 -42 -125 -79 -230 -84 -233 -8 -5
-4 59 11 144 5 30 22 82 39 115 30 63 86 254 76 263 -17 17 -34 -17 -60 -118
-17 -62 -32 -107 -34 -101 -4 12 37 380 64 577 27 194 76 391 149 595 36 99
176 391 185 385 5 -3 11 6 14 20 8 31 98 196 104 191 2 -3 -12 -69 -32 -148z
m-423 -1505 c-13 -54 -29 -104 -35 -113 -8 -13 -9 -13 -5 0 2 8 15 59 28 113
12 53 26 97 30 97 4 0 -4 -44 -18 -97z"/>
<path d="M7771 9734 c0 -11 3 -14 6 -6 3 7 2 16 -1 19 -3 4 -6 -2 -5 -13z"/>
<path d="M7611 9340 c0 -8 4 -22 9 -30 12 -18 12 -2 0 25 -6 13 -9 15 -9 5z"/>
<path d="M7600 9268 c0 -19 2 -20 10 -8 13 19 13 30 0 30 -5 0 -10 -10 -10
-22z"/>
<path d="M7451 8704 c0 -11 3 -14 6 -6 3 7 2 16 -1 19 -3 4 -6 -2 -5 -13z"/>
<path d="M7471 8704 c0 -11 3 -14 6 -6 3 7 2 16 -1 19 -3 4 -6 -2 -5 -13z"/>
<path d="M7462 8660 c0 -14 2 -19 5 -12 2 6 2 18 0 25 -3 6 -5 1 -5 -13z"/>
<path d="M7441 8654 c0 -11 3 -14 6 -6 3 7 2 16 -1 19 -3 4 -6 -2 -5 -13z"/>
<path d="M7431 8614 c0 -11 3 -14 6 -6 3 7 2 16 -1 19 -3 4 -6 -2 -5 -13z"/>
<path d="M7452 8610 c0 -14 2 -19 5 -12 2 6 2 18 0 25 -3 6 -5 1 -5 -13z"/>
<path d="M7421 8564 c0 -11 3 -14 6 -6 3 7 2 16 -1 19 -3 4 -6 -2 -5 -13z"/>
<path d="M7442 8560 c0 -14 2 -19 5 -12 2 6 2 18 0 25 -3 6 -5 1 -5 -13z"/>
<path d="M6409 9705 c-63 -91 -131 -195 -153 -233 -61 -106 -151 -308 -190
-429 -53 -165 -121 -592 -216 -1349 -67 -534 -78 -686 -60 -851 7 -71 16 -186
19 -256 l6 -128 32 54 c55 91 167 440 252 782 80 322 126 591 215 1270 124
942 136 1014 197 1174 21 58 39 111 39 118 0 38 -38 -3 -141 -152z m96 52
c-66 -185 -79 -257 -175 -982 -107 -818 -149 -1078 -222 -1394 -71 -311 -186
-686 -246 -811 l-37 -75 -6 120 c-4 66 -12 174 -18 239 -15 158 -3 322 54 786
83 668 164 1201 205 1350 40 140 144 375 232 519 55 91 239 353 244 348 2 -2
-11 -47 -31 -100z"/>
<path d="M6276 9312 c-23 -44 -19 -54 5 -12 l20 35 -5 -30 c-5 -28 -5 -28 6
-7 8 16 8 26 1 33 -8 8 -16 3 -27 -19z"/>
<path d="M6262 9225 c-17 -37 -14 -45 4 -12 9 16 14 31 11 33 -2 2 -9 -7 -15
-21z"/>
<path d="M6217 9185 c-24 -50 -20 -58 4 -12 11 22 19 41 17 43 -3 2 -12 -12
-21 -31z"/>
<path d="M6222 9135 c-17 -37 -14 -45 4 -12 9 16 14 31 11 33 -2 2 -9 -7 -15
-21z"/>
<path d="M6176 9058 c3 -5 10 -6 15 -3 13 9 11 12 -6 12 -8 0 -12 -4 -9 -9z"/>
<path d="M6131 8813 c0 -13 2 -14 6 -4 5 11 7 11 14 0 7 -11 9 -10 9 4 0 9 -7
17 -15 17 -8 0 -15 -8 -14 -17z"/>
<path d="M6122 8770 c0 -14 2 -19 5 -12 2 6 2 18 0 25 -3 6 -5 1 -5 -13z"/>
<path d="M6142 8760 c0 -14 2 -19 5 -12 2 6 2 18 0 25 -3 6 -5 1 -5 -13z"/>
<path d="M6111 8714 c0 -11 3 -14 6 -6 3 7 2 16 -1 19 -3 4 -6 -2 -5 -13z"/>
<path d="M6132 8700 c0 -14 2 -19 5 -12 2 6 2 18 0 25 -3 6 -5 1 -5 -13z"/>
<path d="M6102 8660 c0 -14 2 -19 5 -12 2 6 2 18 0 25 -3 6 -5 1 -5 -13z"/>
<path d="M6122 8635 c0 -16 2 -22 5 -12 2 9 2 23 0 30 -3 6 -5 -1 -5 -18z"/>
<path d="M6091 8604 c0 -11 3 -14 6 -6 3 7 2 16 -1 19 -3 4 -6 -2 -5 -13z"/>
<path d="M6102 8575 c-11 -12 -10 -15 3 -15 8 0 15 7 15 15 0 18 -2 18 -18 0z"/>
<path d="M6086 8483 c6 -4 14 -15 17 -23 5 -11 6 -9 4 4 -1 11 -9 21 -17 23
-10 3 -11 2 -4 -4z"/>
<path d="M6073 8435 c0 -22 2 -30 4 -17 2 12 2 30 0 40 -3 9 -5 -1 -4 -23z"/>
<path d="M6093 8385 c0 -22 2 -30 4 -17 2 12 2 30 0 40 -3 9 -5 -1 -4 -23z"/>
<path d="M6063 8345 c0 -22 2 -30 4 -17 2 12 2 30 0 40 -3 9 -5 -1 -4 -23z"/>
<path d="M6083 8285 c0 -22 2 -30 4 -17 2 12 2 30 0 40 -3 9 -5 -1 -4 -23z"/>
<path d="M6052 8250 c0 -19 2 -27 5 -17 2 9 2 25 0 35 -3 9 -5 1 -5 -18z"/>
<path d="M6073 8185 c0 -22 2 -30 4 -17 2 12 2 30 0 40 -3 9 -5 -1 -4 -23z"/>
<path d="M6042 8160 c0 -19 2 -27 5 -17 2 9 2 25 0 35 -3 9 -5 1 -5 -18z"/>
<path d="M6061 8098 c-1 -31 -17 -38 -24 -10 -4 15 -5 15 -6 0 0 -9 4 -20 10
-24 16 -10 31 11 26 37 -4 22 -4 22 -6 -3z"/>
<path d="M5984 7706 c-3 -8 -4 -23 -2 -33 3 -11 6 -6 9 15 6 34 2 42 -7 18z"/>
<path d="M6002 7660 c0 -19 2 -27 5 -17 2 9 2 25 0 35 -3 9 -5 1 -5 -18z"/>
<path d="M5972 7600 c0 -19 2 -27 5 -17 2 9 2 25 0 35 -3 9 -5 1 -5 -18z"/>
<path d="M5992 7570 c0 -19 2 -27 5 -17 2 9 2 25 0 35 -3 9 -5 1 -5 -18z"/>
<path d="M5962 7510 c0 -19 2 -27 5 -17 2 9 2 25 0 35 -3 9 -5 1 -5 -18z"/>
<path d="M5982 7480 c0 -19 2 -27 5 -17 2 9 2 25 0 35 -3 9 -5 1 -5 -18z"/>
<path d="M5952 7420 c0 -19 2 -27 5 -17 2 9 2 25 0 35 -3 9 -5 1 -5 -18z"/>
<path d="M5972 7400 c0 -19 2 -27 5 -17 2 9 2 25 0 35 -3 9 -5 1 -5 -18z"/>
<path d="M5942 7330 c0 -19 2 -27 5 -17 2 9 2 25 0 35 -3 9 -5 1 -5 -18z"/>
<path d="M5962 7310 c0 -19 2 -27 5 -17 2 9 2 25 0 35 -3 9 -5 1 -5 -18z"/>
<path d="M5922 7020 c0 -14 2 -19 5 -12 2 6 2 18 0 25 -3 6 -5 1 -5 -13z"/>
<path d="M5892 6995 c0 -16 2 -22 5 -12 2 9 2 23 0 30 -3 6 -5 -1 -5 -18z"/>
<path d="M5912 6950 c0 -14 2 -19 5 -12 2 6 2 18 0 25 -3 6 -5 1 -5 -13z"/>
<path d="M5882 6920 c0 -14 2 -19 5 -12 2 6 2 18 0 25 -3 6 -5 1 -5 -13z"/>
<path d="M5902 6880 c0 -14 2 -19 5 -12 2 6 2 18 0 25 -3 6 -5 1 -5 -13z"/>
<path d="M5872 6850 c0 -14 2 -19 5 -12 2 6 2 18 0 25 -3 6 -5 1 -5 -13z"/>
<path d="M5892 6810 c0 -14 2 -19 5 -12 2 6 2 18 0 25 -3 6 -5 1 -5 -13z"/>
<path d="M5862 6780 c0 -14 2 -19 5 -12 2 6 2 18 0 25 -3 6 -5 1 -5 -13z"/>
<path d="M5882 6740 c0 -14 2 -19 5 -12 2 6 2 18 0 25 -3 6 -5 1 -5 -13z"/>
<path d="M5852 6710 c0 -14 2 -19 5 -12 2 6 2 18 0 25 -3 6 -5 1 -5 -13z"/>
<path d="M8247 9692 c-43 -48 -98 -116 -123 -152 -110 -157 -304 -621 -338
-810 -8 -47 -20 -132 -26 -190 -13 -133 -36 -239 -66 -312 -33 -78 -105 -328
-98 -339 8 -13 31 -11 37 4 2 6 165 422 362 922 197 501 360 918 363 929 4 15
-13 37 -28 35 -3 0 -40 -40 -83 -87z m99 51 c-52 -140 -721 -1841 -727 -1847
-5 -5 -11 -7 -14 -5 -6 7 65 247 98 330 37 92 53 169 71 337 20 184 34 243
103 432 97 267 182 443 276 570 97 131 215 243 193 183z"/>
<path d="M5674 9558 c-248 -395 -458 -744 -505 -838 -135 -269 -214 -523 -273
-875 -66 -399 -87 -695 -111 -1585 -8 -305 -17 -593 -21 -639 -5 -65 -3 -82 7
-79 20 7 23 17 109 288 137 431 165 556 374 1645 247 1291 340 1698 470 2069
14 39 23 74 20 78 -12 18 -27 4 -70 -64z m6 -115 c-106 -326 -202 -745 -375
-1643 -173 -898 -288 -1467 -321 -1589 -41 -150 -193 -630 -206 -651 -6 -10
-7 0 -4 30 3 25 13 290 21 590 25 934 42 1206 101 1590 46 302 102 518 190
739 86 212 127 285 599 1045 20 32 39 56 41 53 3 -3 -18 -76 -46 -164z"/>
<path d="M5546 9255 c-9 -26 -7 -32 5 -12 6 10 9 21 6 23 -2 3 -7 -2 -11 -11z"/>
<path d="M5526 9205 c-9 -26 -7 -32 5 -12 6 10 9 21 6 23 -2 3 -7 -2 -11 -11z"/>
<path d="M5536 9165 c-9 -26 -7 -32 5 -12 6 10 9 21 6 23 -2 3 -7 -2 -11 -11z"/>
<path d="M5506 9155 c-9 -26 -7 -32 5 -12 6 10 9 21 6 23 -2 3 -7 -2 -11 -11z"/>
<path d="M5460 9031 c0 -10 19 -25 25 -20 1 2 -3 10 -11 17 -8 7 -14 8 -14 3z"/>
<path d="M5331 8627 c-1 -21 21 -18 27 4 3 12 2 12 -6 0 -8 -11 -10 -11 -15 0
-4 10 -6 8 -6 -4z"/>
<path d="M5250 8320 c0 -6 4 -9 9 -5 5 3 12 -2 14 -10 4 -12 5 -12 3 1 -1 19
-26 32 -26 14z"/>
<path d="M5201 8144 c0 -11 3 -14 6 -6 3 7 2 16 -1 19 -3 4 -6 -2 -5 -13z"/>
<path d="M5211 8104 c0 -11 3 -14 6 -6 3 7 2 16 -1 19 -3 4 -6 -2 -5 -13z"/>
<path d="M5201 8064 c0 -11 3 -14 6 -6 3 7 2 16 -1 19 -3 4 -6 -2 -5 -13z"/>
<path d="M5191 8024 c0 -11 3 -14 6 -6 3 7 2 16 -1 19 -3 4 -6 -2 -5 -13z"/>
<path d="M5161 7984 c0 -11 3 -14 6 -6 3 7 2 16 -1 19 -3 4 -6 -2 -5 -13z"/>
<path d="M5181 7984 c0 -11 3 -14 6 -6 3 7 2 16 -1 19 -3 4 -6 -2 -5 -13z"/>
<path d="M5151 7944 c0 -11 3 -14 6 -6 3 7 2 16 -1 19 -3 4 -6 -2 -5 -13z"/>
<path d="M5171 7934 c0 -11 3 -14 6 -6 3 7 2 16 -1 19 -3 4 -6 -2 -5 -13z"/>
<path d="M5141 7894 c0 -11 3 -14 6 -6 3 7 2 16 -1 19 -3 4 -6 -2 -5 -13z"/>
<path d="M5161 7884 c0 -11 3 -14 6 -6 3 7 2 16 -1 19 -3 4 -6 -2 -5 -13z"/>
<path d="M5131 7844 c0 -11 3 -14 6 -6 3 7 2 16 -1 19 -3 4 -6 -2 -5 -13z"/>
<path d="M5152 7830 c0 -14 2 -19 5 -12 2 6 2 18 0 25 -3 6 -5 1 -5 -13z"/>
<path d="M5122 7790 c0 -14 2 -19 5 -12 2 6 2 18 0 25 -3 6 -5 1 -5 -13z"/>
<path d="M5142 7770 c0 -14 2 -19 5 -12 2 6 2 18 0 25 -3 6 -5 1 -5 -13z"/>
<path d="M5112 7725 c0 -16 2 -22 5 -12 2 9 2 23 0 30 -3 6 -5 -1 -5 -18z"/>
<path d="M5132 7710 c0 -14 2 -19 5 -12 2 6 2 18 0 25 -3 6 -5 1 -5 -13z"/>
<path d="M5102 7655 c0 -16 2 -22 5 -12 2 9 2 23 0 30 -3 6 -5 -1 -5 -18z"/>
<path d="M5122 7645 c0 -16 2 -22 5 -12 2 9 2 23 0 30 -3 6 -5 -1 -5 -18z"/>
<path d="M5091 7569 c1 -19 5 -45 9 -59 6 -16 7 -6 3 30 -7 63 -13 80 -12 29z"/>
<path d="M5112 7575 c0 -16 2 -22 5 -12 2 9 2 23 0 30 -3 6 -5 -1 -5 -18z"/>
<path d="M5082 7430 c0 -75 0 -75 10 -26 5 30 5 58 -1 75 -7 21 -9 10 -9 -49z"/>
<path d="M5012 6906 c7 -8 15 -12 17 -11 5 6 -10 25 -20 25 -5 0 -4 -6 3 -14z"/>
<path d="M4991 6874 c0 -11 3 -14 6 -6 3 7 2 16 -1 19 -3 4 -6 -2 -5 -13z"/>
<path d="M5012 6850 c0 -14 2 -19 5 -12 2 6 2 18 0 25 -3 6 -5 1 -5 -13z"/>
<path d="M4982 6820 c0 -14 2 -19 5 -12 2 6 2 18 0 25 -3 6 -5 1 -5 -13z"/>
<path d="M5002 6790 c0 -14 2 -19 5 -12 2 6 2 18 0 25 -3 6 -5 1 -5 -13z"/>
<path d="M4972 6760 c0 -14 2 -19 5 -12 2 6 2 18 0 25 -3 6 -5 1 -5 -13z"/>
<path d="M4992 6740 c0 -14 2 -19 5 -12 2 6 2 18 0 25 -3 6 -5 1 -5 -13z"/>
<path d="M4961 6704 c0 -11 3 -14 6 -6 3 7 2 16 -1 19 -3 4 -6 -2 -5 -13z"/>
<path d="M4982 6680 c0 -14 2 -19 5 -12 2 6 2 18 0 25 -3 6 -5 1 -5 -13z"/>
<path d="M4952 6650 c0 -14 2 -19 5 -12 2 6 2 18 0 25 -3 6 -5 1 -5 -13z"/>
<path d="M4972 6620 c0 -14 2 -19 5 -12 2 6 2 18 0 25 -3 6 -5 1 -5 -13z"/>
<path d="M4942 6590 c0 -14 2 -19 5 -12 2 6 2 18 0 25 -3 6 -5 1 -5 -13z"/>
<path d="M4962 6570 c0 -14 2 -19 5 -12 2 6 2 18 0 25 -3 6 -5 1 -5 -13z"/>
<path d="M4931 6534 c0 -11 3 -14 6 -6 3 7 2 16 -1 19 -3 4 -6 -2 -5 -13z"/>
<path d="M4952 6510 c0 -14 2 -19 5 -12 2 6 2 18 0 25 -3 6 -5 1 -5 -13z"/>
<path d="M4921 6483 c-1 -16 5 -23 17 -23 10 0 13 3 6 8 -6 4 -14 14 -17 22
-4 10 -6 8 -6 -7z"/>
<path d="M6951 9474 c0 -11 3 -14 6 -6 3 7 2 16 -1 19 -3 4 -6 -2 -5 -13z"/>
<path d="M8965 9136 c-124 -60 -260 -148 -352 -227 -71 -61 -199 -197 -517
-549 -224 -247 -273 -306 -265 -314 7 -7 366 234 501 337 174 131 318 258 468
413 119 123 320 366 320 386 0 19 -53 3 -155 -46z m135 38 c0 -13 -157 -209
-253 -314 -150 -166 -320 -316 -547 -486 -154 -116 -428 -300 -434 -293 -7 6
515 580 659 725 147 148 252 223 439 315 115 57 136 65 136 53z"/>
<path d="M8714 8858 l-29 -33 31 28 c16 15 34 27 39 27 5 0 -2 -12 -16 -27
l-24 -28 28 24 c15 14 27 28 27 33 0 18 -28 6 -56 -24z"/>
<path d="M8620 8775 c-24 -25 -42 -45 -39 -45 3 0 25 20 49 45 24 25 42 45 39
45 -3 0 -25 -20 -49 -45z"/>
<path d="M8625 8750 c-32 -32 -62 -57 -67 -54 -5 3 -5 10 -2 16 4 7 2 8 -5 4
-9 -6 -9 -11 0 -22 10 -13 22 -5 76 48 35 34 63 64 63 65 0 7 -10 -1 -65 -57z"/>
<path d="M8374 8548 c-19 -23 -19 -23 2 -5 11 9 24 17 28 17 5 0 5 -8 1 -17
-5 -14 -3 -15 6 -6 11 11 5 33 -10 33 -4 0 -16 -10 -27 -22z"/>
<path d="M8314 8498 l-29 -33 33 29 c30 28 37 36 29 36 -2 0 -16 -15 -33 -32z"/>
<path d="M8349 8493 l-34 -38 38 34 c20 19 37 36 37 38 0 8 -8 0 -41 -34z"/>
<path d="M8244 8438 l-29 -33 33 29 c30 28 37 36 29 36 -2 0 -16 -15 -33 -32z"/>
<path d="M8269 8423 l-34 -38 38 34 c34 33 42 41 34 41 -2 0 -19 -17 -38 -37z"/>
<path d="M8175 8380 c-23 -24 -26 -33 -17 -42 10 -10 18 -6 40 17 l27 29 -27
-23 c-38 -33 -48 -18 -13 19 16 17 26 30 24 30 -3 0 -18 -14 -34 -30z"/>
<path d="M6853 9117 c-7 -15 -8 -29 -2 -38 8 -12 10 -12 8 1 -1 8 1 23 6 33 4
10 5 20 3 22 -3 3 -10 -5 -15 -18z"/>
<path d="M6826 9065 c-9 -26 -7 -32 5 -12 6 10 9 21 6 23 -2 3 -7 -2 -11 -11z"/>
<path d="M4754 9042 c-16 -10 -187 -268 -267 -402 -201 -337 -344 -731 -391
-1075 -10 -66 -34 -241 -56 -390 -82 -570 -95 -761 -94 -1475 0 -402 4 -599
17 -790 9 -140 20 -266 23 -280 l6 -25 10 25 c13 34 134 521 163 655 31 143
110 614 180 1080 31 204 78 516 106 695 101 656 168 1120 189 1300 29 254 54
393 96 543 35 127 39 153 18 139z m-25 -122 c-45 -159 -65 -269 -104 -580 -19
-157 -60 -447 -90 -645 -346 -2286 -349 -2302 -466 -2765 -33 -129 -63 -244
-68 -255 -5 -13 -10 12 -14 75 -26 372 -31 530 -31 950 0 473 12 796 39 1047
30 271 136 972 164 1083 68 265 177 528 322 777 63 108 271 425 275 420 2 -2
-10 -50 -27 -107z"/>
<path d="M4511 8263 c0 -13 2 -14 6 -4 5 11 7 11 14 0 7 -11 9 -10 9 4 0 9 -7
17 -15 17 -8 0 -15 -8 -14 -17z"/>
<path d="M4501 8224 c0 -11 3 -14 6 -6 3 7 2 16 -1 19 -3 4 -6 -2 -5 -13z"/>
<path d="M4521 8214 c0 -11 3 -14 6 -6 3 7 2 16 -1 19 -3 4 -6 -2 -5 -13z"/>
<path d="M4491 8174 c0 -11 3 -14 6 -6 3 7 2 16 -1 19 -3 4 -6 -2 -5 -13z"/>
<path d="M4511 8164 c0 -11 3 -14 6 -6 3 7 2 16 -1 19 -3 4 -6 -2 -5 -13z"/>
<path d="M4481 8134 c0 -11 3 -14 6 -6 3 7 2 16 -1 19 -3 4 -6 -2 -5 -13z"/>
<path d="M4501 8124 c0 -11 3 -14 6 -6 3 7 2 16 -1 19 -3 4 -6 -2 -5 -13z"/>
<path d="M4491 8074 c0 -11 3 -14 6 -6 3 7 2 16 -1 19 -3 4 -6 -2 -5 -13z"/>
<path d="M4461 8044 c0 -11 3 -14 6 -6 3 7 2 16 -1 19 -3 4 -6 -2 -5 -13z"/>
<path d="M4481 8024 c0 -11 3 -14 6 -6 3 7 2 16 -1 19 -3 4 -6 -2 -5 -13z"/>
<path d="M4451 8004 c0 -11 3 -14 6 -6 3 7 2 16 -1 19 -3 4 -6 -2 -5 -13z"/>
<path d="M4471 7984 c0 -11 3 -14 6 -6 3 7 2 16 -1 19 -3 4 -6 -2 -5 -13z"/>
<path d="M4441 7954 c0 -11 3 -14 6 -6 3 7 2 16 -1 19 -3 4 -6 -2 -5 -13z"/>
<path d="M4461 7934 c0 -11 3 -14 6 -6 3 7 2 16 -1 19 -3 4 -6 -2 -5 -13z"/>
<path d="M4431 7914 c0 -11 3 -14 6 -6 3 7 2 16 -1 19 -3 4 -6 -2 -5 -13z"/>
<path d="M4451 7884 c0 -11 3 -14 6 -6 3 7 2 16 -1 19 -3 4 -6 -2 -5 -13z"/>
<path d="M4441 7834 c0 -11 3 -14 6 -6 3 7 2 16 -1 19 -3 4 -6 -2 -5 -13z"/>
<path d="M4411 7824 c0 -11 3 -14 6 -6 3 7 2 16 -1 19 -3 4 -6 -2 -5 -13z"/>
<path d="M4431 7794 c0 -11 3 -14 6 -6 3 7 2 16 -1 19 -3 4 -6 -2 -5 -13z"/>
<path d="M4401 7784 c0 -11 3 -14 6 -6 3 7 2 16 -1 19 -3 4 -6 -2 -5 -13z"/>
<path d="M4421 7744 c0 -11 3 -14 6 -6 3 7 2 16 -1 19 -3 4 -6 -2 -5 -13z"/>
<path d="M4391 7734 c0 -11 3 -14 6 -6 3 7 2 16 -1 19 -3 4 -6 -2 -5 -13z"/>
<path d="M4381 7694 c0 -11 3 -14 6 -6 3 7 2 16 -1 19 -3 4 -6 -2 -5 -13z"/>
<path d="M4411 7694 c0 -11 3 -14 6 -6 3 7 2 16 -1 19 -3 4 -6 -2 -5 -13z"/>
<path d="M4402 7650 c0 -14 2 -19 5 -12 2 6 2 18 0 25 -3 6 -5 1 -5 -13z"/>
<path d="M4288 7163 c7 -3 16 -2 19 1 4 3 -2 6 -13 5 -11 0 -14 -3 -6 -6z"/>
<path d="M4272 7130 c0 -14 2 -19 5 -12 2 6 2 18 0 25 -3 6 -5 1 -5 -13z"/>
<path d="M4301 7134 c0 -11 3 -14 6 -6 3 7 2 16 -1 19 -3 4 -6 -2 -5 -13z"/>
<path d="M4291 7094 c0 -11 3 -14 6 -6 3 7 2 16 -1 19 -3 4 -6 -2 -5 -13z"/>
<path d="M4262 7080 c0 -14 2 -19 5 -12 2 6 2 18 0 25 -3 6 -5 1 -5 -13z"/>
<path d="M4281 7044 c0 -11 3 -14 6 -6 3 7 2 16 -1 19 -3 4 -6 -2 -5 -13z"/>
<path d="M4251 7034 c0 -11 3 -14 6 -6 3 7 2 16 -1 19 -3 4 -6 -2 -5 -13z"/>
<path d="M4271 7004 c0 -11 3 -14 6 -6 3 7 2 16 -1 19 -3 4 -6 -2 -5 -13z"/>
<path d="M4241 6984 c0 -11 3 -14 6 -6 3 7 2 16 -1 19 -3 4 -6 -2 -5 -13z"/>
<path d="M4261 6954 c0 -11 3 -14 6 -6 3 7 2 16 -1 19 -3 4 -6 -2 -5 -13z"/>
<path d="M4231 6934 c0 -11 3 -14 6 -6 3 7 2 16 -1 19 -3 4 -6 -2 -5 -13z"/>
<path d="M4251 6904 c0 -11 3 -14 6 -6 3 7 2 16 -1 19 -3 4 -6 -2 -5 -13z"/>
<path d="M4221 6884 c0 -11 3 -14 6 -6 3 7 2 16 -1 19 -3 4 -6 -2 -5 -13z"/>
<path d="M4241 6864 c0 -11 3 -14 6 -6 3 7 2 16 -1 19 -3 4 -6 -2 -5 -13z"/>
<path d="M4211 6834 c0 -11 3 -14 6 -6 3 7 2 16 -1 19 -3 4 -6 -2 -5 -13z"/>
<path d="M4231 6814 c0 -11 3 -14 6 -6 3 7 2 16 -1 19 -3 4 -6 -2 -5 -13z"/>
<path d="M4201 6783 c-1 -14 5 -23 14 -23 8 0 15 8 15 18 0 14 -2 14 -9 3 -7
-11 -10 -10 -14 5 -4 16 -5 16 -6 -3z"/>
<path d="M4184 6616 c-3 -8 -4 -27 -2 -43 3 -23 5 -20 9 15 5 43 2 53 -7 28z"/>
<path d="M4203 6555 c0 -22 2 -30 4 -17 2 12 2 30 0 40 -3 9 -5 -1 -4 -23z"/>
<path d="M4173 6480 c0 -25 2 -35 4 -22 2 12 2 32 0 45 -2 12 -4 2 -4 -23z"/>
<path d="M4193 6440 c0 -25 2 -35 4 -22 2 12 2 32 0 45 -2 12 -4 2 -4 -23z"/>
<path d="M4163 6370 c0 -25 2 -35 4 -22 2 12 2 32 0 45 -2 12 -4 2 -4 -23z"/>
<path d="M4183 6330 c0 -25 2 -35 4 -22 2 12 2 32 0 45 -2 12 -4 2 -4 -23z"/>
<path d="M4153 6260 c0 -25 2 -35 4 -22 2 12 2 32 0 45 -2 12 -4 2 -4 -23z"/>
<path d="M4173 6220 c0 -25 2 -35 4 -22 2 12 2 32 0 45 -2 12 -4 2 -4 -23z"/>
<path d="M4143 6140 c0 -25 2 -35 4 -22 2 12 2 32 0 45 -2 12 -4 2 -4 -23z"/>
<path d="M4163 6110 c0 -25 2 -35 4 -22 2 12 2 32 0 45 -2 12 -4 2 -4 -23z"/>
<path d="M4132 6038 c-2 -28 2 -38 13 -38 9 0 15 9 14 23 0 21 -1 21 -9 2 -6
-17 -8 -14 -12 15 l-5 35 -1 -37z"/>
<path d="M4083 5265 c-3 -9 -3 -19 1 -22 3 -4 6 1 6 10 0 8 6 18 13 20 9 4 9
6 -1 6 -7 1 -15 -6 -19 -14z"/>
<path d="M4101 5234 c0 -11 3 -14 6 -6 3 7 2 16 -1 19 -3 4 -6 -2 -5 -13z"/>
<path d="M4071 5204 c0 -11 3 -14 6 -6 3 7 2 16 -1 19 -3 4 -6 -2 -5 -13z"/>
<path d="M4092 5180 c0 -14 2 -19 5 -12 2 6 2 18 0 25 -3 6 -5 1 -5 -13z"/>
<path d="M4061 5154 c0 -11 3 -14 6 -6 3 7 2 16 -1 19 -3 4 -6 -2 -5 -13z"/>
<path d="M4082 5120 c0 -14 2 -19 5 -12 2 6 2 18 0 25 -3 6 -5 1 -5 -13z"/>
<path d="M4051 5104 c0 -11 3 -14 6 -6 3 7 2 16 -1 19 -3 4 -6 -2 -5 -13z"/>
<path d="M4071 5064 c0 -11 3 -14 6 -6 3 7 2 16 -1 19 -3 4 -6 -2 -5 -13z"/>
<path d="M4041 5054 c0 -11 3 -14 6 -6 3 7 2 16 -1 19 -3 4 -6 -2 -5 -13z"/>
<path d="M4062 5010 c0 -14 2 -19 5 -12 2 6 2 18 0 25 -3 6 -5 1 -5 -13z"/>
<path d="M4031 5004 c0 -11 3 -14 6 -6 3 7 2 16 -1 19 -3 4 -6 -2 -5 -13z"/>
<path d="M4021 4954 c0 -11 3 -14 6 -6 3 7 2 16 -1 19 -3 4 -6 -2 -5 -13z"/>
<path d="M4052 4950 c0 -14 2 -19 5 -12 2 6 2 18 0 25 -3 6 -5 1 -5 -13z"/>
<path d="M4012 4900 c0 -14 2 -19 5 -12 2 6 2 18 0 25 -3 6 -5 1 -5 -13z"/>
<path d="M4037 4891 c-4 -17 -3 -21 5 -13 5 5 8 16 6 23 -3 8 -7 3 -11 -10z"/>
<path d="M6821 8964 c0 -11 3 -14 6 -6 3 7 2 16 -1 19 -3 4 -6 -2 -5 -13z"/>
<path d="M6781 8924 c0 -11 3 -14 6 -6 3 7 2 16 -1 19 -3 4 -6 -2 -5 -13z"/>
<path d="M6811 8924 c0 -11 3 -14 6 -6 3 7 2 16 -1 19 -3 4 -6 -2 -5 -13z"/>
<path d="M6771 8884 c0 -11 3 -14 6 -6 3 7 2 16 -1 19 -3 4 -6 -2 -5 -13z"/>
<path d="M6801 8884 c0 -11 3 -14 6 -6 3 7 2 16 -1 19 -3 4 -6 -2 -5 -13z"/>
<path d="M6791 8844 c0 -11 3 -14 6 -6 3 7 2 16 -1 19 -3 4 -6 -2 -5 -13z"/>
<path d="M6762 8825 c0 -16 2 -22 5 -12 2 9 2 23 0 30 -3 6 -5 -1 -5 -18z"/>
<path d="M6766 8765 c-9 -26 -7 -32 5 -12 6 10 9 21 6 23 -2 3 -7 -2 -11 -11z"/>
<path d="M3914 8337 c-35 -39 -412 -615 -443 -675 -45 -87 -146 -506 -196
-812 -38 -231 -53 -399 -70 -775 -16 -345 -33 -615 -60 -940 -19 -215 -143
-1529 -152 -1597 -4 -38 -3 -48 9 -48 9 0 24 32 43 91 44 136 41 92 -5 -77
-22 -82 -40 -152 -40 -156 0 -5 8 -8 18 -8 33 0 67 146 156 658 162 927 189
1103 286 1862 173 1352 269 1855 450 2346 28 75 50 142 50 150 0 23 -16 16
-46 -19z m7 -68 c-49 -126 -119 -350 -161 -510 -105 -405 -180 -864 -320
-1959 -85 -666 -120 -896 -251 -1650 -74 -427 -67 -398 -85 -402 -10 -2 -29
-43 -51 -113 -35 -109 -59 -158 -48 -100 7 40 129 1334 155 1640 27 327 48
660 60 965 16 371 41 596 106 925 32 163 121 517 144 570 9 22 108 180 219
350 182 278 248 371 258 362 1 -2 -10 -37 -26 -78z m-822 -4585 c1 11 3 17 6
15 16 -17 -67 -349 -88 -349 -5 0 -7 6 -4 13 24 62 76 292 72 314 -4 23 -4 24
4 8 9 -19 10 -19 10 -1z"/>
<path d="M3731 7964 c0 -11 3 -14 6 -6 3 7 2 16 -1 19 -3 4 -6 -2 -5 -13z"/>
<path d="M3691 7884 c0 -11 3 -14 6 -6 3 7 2 16 -1 19 -3 4 -6 -2 -5 -13z"/>
<path d="M3701 7844 c0 -11 3 -14 6 -6 3 7 2 16 -1 19 -3 4 -6 -2 -5 -13z"/>
<path d="M3691 7804 c0 -11 3 -14 6 -6 3 7 2 16 -1 19 -3 4 -6 -2 -5 -13z"/>
<path d="M3681 7764 c0 -11 3 -14 6 -6 3 7 2 16 -1 19 -3 4 -6 -2 -5 -13z"/>
<path d="M3611 7604 c0 -11 3 -14 6 -6 3 7 2 16 -1 19 -3 4 -6 -2 -5 -13z"/>
<path d="M3631 7574 c0 -11 3 -14 6 -6 3 7 2 16 -1 19 -3 4 -6 -2 -5 -13z"/>
<path d="M3621 7534 c0 -11 3 -14 6 -6 3 7 2 16 -1 19 -3 4 -6 -2 -5 -13z"/>
<path d="M3611 7494 c0 -11 3 -14 6 -6 3 7 2 16 -1 19 -3 4 -6 -2 -5 -13z"/>
<path d="M3581 7484 c0 -11 3 -14 6 -6 3 7 2 16 -1 19 -3 4 -6 -2 -5 -13z"/>
<path d="M3572 7440 c0 -14 2 -19 5 -12 2 6 2 18 0 25 -3 6 -5 1 -5 -13z"/>
<path d="M3562 7385 c0 -16 2 -22 5 -12 2 9 2 23 0 30 -3 6 -5 -1 -5 -18z"/>
<path d="M3551 7295 c1 -40 1 -40 11 -12 7 21 7 32 -1 40 -8 8 -11 0 -10 -28z"/>
<path d="M3455 6909 c-4 -5 -4 -13 -1 -16 3 -4 6 0 6 8 0 11 2 11 10 -1 6 -9
10 -10 10 -3 0 17 -17 25 -25 12z"/>
<path d="M3442 6850 c0 -14 2 -19 5 -12 2 6 2 18 0 25 -3 6 -5 1 -5 -13z"/>
<path d="M3461 6854 c0 -11 3 -14 6 -6 3 7 2 16 -1 19 -3 4 -6 -2 -5 -13z"/>
<path d="M3453 6785 c0 -22 2 -30 4 -17 2 12 2 30 0 40 -3 9 -5 -1 -4 -23z"/>
<path d="M3432 6790 c0 -14 2 -19 5 -12 2 6 2 18 0 25 -3 6 -5 1 -5 -13z"/>
<path d="M3422 6730 c0 -14 2 -19 5 -12 2 6 2 18 0 25 -3 6 -5 1 -5 -13z"/>
<path d="M3443 6685 c0 -22 2 -30 4 -17 2 12 2 30 0 40 -3 9 -5 -1 -4 -23z"/>
<path d="M3412 6670 c0 -14 2 -19 5 -12 2 6 2 18 0 25 -3 6 -5 1 -5 -13z"/>
<path d="M3402 6610 c0 -14 2 -19 5 -12 2 6 2 18 0 25 -3 6 -5 1 -5 -13z"/>
<path d="M3432 6610 c0 -14 2 -19 5 -12 2 6 2 18 0 25 -3 6 -5 1 -5 -13z"/>
<path d="M3421 6564 c0 -11 3 -14 6 -6 3 7 2 16 -1 19 -3 4 -6 -2 -5 -13z"/>
<path d="M3392 6550 c0 -14 2 -19 5 -12 2 6 2 18 0 25 -3 6 -5 1 -5 -13z"/>
<path d="M3406 6525 c-9 -26 -7 -32 5 -12 6 10 9 21 6 23 -2 3 -7 -2 -11 -11z"/>
<path d="M3380 6483 c0 -21 3 -24 9 -14 5 8 7 20 4 28 -8 21 -13 15 -13 -14z"/>
<path d="M3323 5970 c0 -36 2 -50 4 -32 2 17 2 47 0 65 -2 17 -4 3 -4 -33z"/>
<path d="M3343 5945 c0 -33 2 -45 4 -27 2 18 2 45 0 60 -2 15 -4 0 -4 -33z"/>
<path d="M3313 5800 c0 -36 2 -50 4 -32 2 17 2 47 0 65 -2 17 -4 3 -4 -33z"/>
<path d="M3333 5795 c0 -33 2 -45 4 -27 2 18 2 45 0 60 -2 15 -4 0 -4 -33z"/>
<path d="M3323 5650 c0 -30 2 -43 4 -27 2 15 2 39 0 55 -2 15 -4 2 -4 -28z"/>
<path d="M3303 5645 c0 -27 2 -38 4 -22 2 15 2 37 0 50 -2 12 -4 0 -4 -28z"/>
<path d="M3244 5146 c-3 -8 -4 -25 -1 -38 3 -17 5 -14 7 12 l3 35 7 -35 7 -35
2 38 c1 36 -14 51 -25 23z"/>
<path d="M3232 5030 c0 -19 2 -27 5 -17 2 9 2 25 0 35 -3 9 -5 1 -5 -18z"/>
<path d="M3253 5025 c0 -22 2 -30 4 -17 2 12 2 30 0 40 -3 9 -5 -1 -4 -23z"/>
<path d="M3221 4942 c-1 -23 3 -32 12 -30 6 3 13 17 13 31 l1 27 -5 -27 -5
-28 -7 30 -8 30 -1 -33z"/>
<path d="M6660 7956 c0 -2 7 -7 16 -10 8 -3 12 -2 9 4 -6 10 -25 14 -25 6z"/>
<path d="M6651 7914 c0 -11 3 -14 6 -6 3 7 2 16 -1 19 -3 4 -6 -2 -5 -13z"/>
<path d="M6671 7914 c0 -11 3 -14 6 -6 3 7 2 16 -1 19 -3 4 -6 -2 -5 -13z"/>
<path d="M6641 7864 c0 -11 3 -14 6 -6 3 7 2 16 -1 19 -3 4 -6 -2 -5 -13z"/>
<path d="M6661 7864 c0 -11 3 -14 6 -6 3 7 2 16 -1 19 -3 4 -6 -2 -5 -13z"/>
<path d="M6631 7814 c0 -11 3 -14 6 -6 3 7 2 16 -1 19 -3 4 -6 -2 -5 -13z"/>
<path d="M6651 7814 c0 -11 3 -14 6 -6 3 7 2 16 -1 19 -3 4 -6 -2 -5 -13z"/>
<path d="M6640 7774 c0 -16 -2 -17 -10 -4 -8 13 -10 12 -10 -2 0 -10 5 -18 10
-18 13 0 25 28 16 37 -3 4 -6 -2 -6 -13z"/>
<path d="M2912 7243 c-173 -352 -263 -547 -512 -1109 -200 -451 -232 -560
-250 -864 -44 -729 -40 -995 25 -1620 50 -478 58 -618 51 -861 -3 -118 -9
-253 -12 -302 -6 -82 -5 -87 14 -87 24 0 23 -3 54 275 12 116 24 202 26 193 2
-9 -6 -111 -17 -226 -24 -243 -25 -250 -11 -236 13 13 123 462 143 584 9 52
21 163 27 245 14 191 30 358 85 885 91 870 115 1121 130 1355 18 265 53 498
129 845 24 113 68 313 96 444 65 305 108 470 170 658 55 165 56 168 37 168 -7
0 -90 -155 -185 -347z m133 166 c-57 -167 -121 -425 -224 -909 -130 -610 -153
-749 -171 -1065 -10 -177 -33 -414 -130 -1340 -55 -533 -64 -627 -85 -883 -15
-189 -47 -370 -109 -607 -19 -71 -35 -120 -35 -109 -1 20 32 373 44 477 5 37
3 47 -9 47 -18 0 -19 -4 -51 -295 -33 -298 -35 -315 -47 -315 -11 0 -9 56 12
280 17 181 3 423 -55 980 -60 574 -64 751 -30 1455 21 427 39 509 192 860 266
612 731 1596 741 1567 1 -5 -18 -70 -43 -143z m-728 -4501 c-2 -13 -4 -3 -4
22 0 25 2 35 4 23 2 -13 2 -33 0 -45z"/>
<path d="M2750 6622 c0 -5 7 -9 15 -9 8 0 15 4 15 9 0 4 -7 8 -15 8 -8 0 -15
-4 -15 -8z"/>
<path d="M2761 6584 c0 -11 3 -14 6 -6 3 7 2 16 -1 19 -3 4 -6 -2 -5 -13z"/>
<path d="M2731 6554 c0 -11 3 -14 6 -6 3 7 2 16 -1 19 -3 4 -6 -2 -5 -13z"/>
<path d="M2711 6484 c0 -11 3 -14 6 -6 3 7 2 16 -1 19 -3 4 -6 -2 -5 -13z"/>
<path d="M2721 6434 c0 -11 3 -14 6 -6 3 7 2 16 -1 19 -3 4 -6 -2 -5 -13z"/>
<path d="M2694 6411 c1 -17 26 -28 26 -11 0 6 -4 9 -9 5 -5 -3 -11 0 -14 7 -2
9 -4 8 -3 -1z"/>
<path d="M2586 6092 c6 -4 14 -14 17 -22 4 -10 6 -8 6 8 1 15 -5 22 -16 22
-11 0 -14 -3 -7 -8z"/>
<path d="M2571 6054 c0 -11 3 -14 6 -6 3 7 2 16 -1 19 -3 4 -6 -2 -5 -13z"/>
<path d="M2591 6024 c0 -11 3 -14 6 -6 3 7 2 16 -1 19 -3 4 -6 -2 -5 -13z"/>
<path d="M2561 6004 c0 -11 3 -14 6 -6 3 7 2 16 -1 19 -3 4 -6 -2 -5 -13z"/>
<path d="M2581 5974 c0 -11 3 -14 6 -6 3 7 2 16 -1 19 -3 4 -6 -2 -5 -13z"/>
<path d="M2551 5954 c0 -11 3 -14 6 -6 3 7 2 16 -1 19 -3 4 -6 -2 -5 -13z"/>
<path d="M2571 5924 c0 -11 3 -14 6 -6 3 7 2 16 -1 19 -3 4 -6 -2 -5 -13z"/>
<path d="M2541 5904 c0 -11 3 -14 6 -6 3 7 2 16 -1 19 -3 4 -6 -2 -5 -13z"/>
<path d="M2562 5880 c0 -14 2 -19 5 -12 2 6 2 18 0 25 -3 6 -5 1 -5 -13z"/>
<path d="M2531 5854 c0 -11 3 -14 6 -6 3 7 2 16 -1 19 -3 4 -6 -2 -5 -13z"/>
<path d="M2551 5834 c0 -11 3 -14 6 -6 3 7 2 16 -1 19 -3 4 -6 -2 -5 -13z"/>
<path d="M2521 5804 c0 -11 3 -14 6 -6 3 7 2 16 -1 19 -3 4 -6 -2 -5 -13z"/>
<path d="M2541 5784 c0 -11 3 -14 6 -6 3 7 2 16 -1 19 -3 4 -6 -2 -5 -13z"/>
<path d="M2511 5754 c0 -11 3 -14 6 -6 3 7 2 16 -1 19 -3 4 -6 -2 -5 -13z"/>
<path d="M2531 5734 c0 -11 3 -14 6 -6 3 7 2 16 -1 19 -3 4 -6 -2 -5 -13z"/>
<path d="M2501 5704 c0 -11 3 -14 6 -6 3 7 2 16 -1 19 -3 4 -6 -2 -5 -13z"/>
<path d="M2521 5684 c0 -11 3 -14 6 -6 3 7 2 16 -1 19 -3 4 -6 -2 -5 -13z"/>
<path d="M2491 5654 c0 -11 3 -14 6 -6 3 7 2 16 -1 19 -3 4 -6 -2 -5 -13z"/>
<path d="M2512 5640 c0 -14 2 -19 5 -12 2 6 2 18 0 25 -3 6 -5 1 -5 -13z"/>
<path d="M2484 5595 c1 -25 20 -23 23 2 2 15 1 15 -6 -2 l-9 -20 -4 20 -5 20
1 -20z"/>
<path d="M2383 4955 c0 -22 2 -30 4 -17 2 12 2 30 0 40 -3 9 -5 -1 -4 -23z"/>
<path d="M2403 4955 c0 -22 2 -30 4 -17 2 12 2 30 0 40 -3 9 -5 -1 -4 -23z"/>
<path d="M2373 4855 c0 -22 2 -30 4 -17 2 12 2 30 0 40 -3 9 -5 -1 -4 -23z"/>
<path d="M2393 4850 c0 -25 2 -35 4 -22 2 12 2 32 0 45 -2 12 -4 2 -4 -23z"/>
<path d="M2363 4755 c0 -22 2 -30 4 -17 2 12 2 30 0 40 -3 9 -5 -1 -4 -23z"/>
<path d="M2383 4730 c0 -25 2 -35 4 -22 2 12 2 32 0 45 -2 12 -4 2 -4 -23z"/>
<path d="M2352 4665 c0 -16 2 -22 5 -12 2 9 2 23 0 30 -3 6 -5 -1 -5 -18z"/>
<path d="M2371 4644 c0 -11 3 -14 6 -6 3 7 2 16 -1 19 -3 4 -6 -2 -5 -13z"/>
<path d="M2325 4058 c-8 -34 -11 -528 -3 -520 6 6 17 542 11 542 -2 0 -5 -10
-8 -22z"/>
<path d="M2302 3940 c0 -19 2 -27 5 -17 2 9 2 25 0 35 -3 9 -5 1 -5 -18z"/>
<path d="M2292 3825 c0 -16 2 -22 5 -12 2 9 2 23 0 30 -3 6 -5 -1 -5 -18z"/>
<path d="M2303 3685 c0 -27 2 -38 4 -22 2 15 2 37 0 50 -2 12 -4 0 -4 -28z"/>
<path d="M8035 7500 c-143 -15 -309 -33 -370 -39 -184 -20 -366 -67 -575 -150
-159 -63 -300 -129 -277 -130 11 -1 125 18 255 41 l237 43 315 -1 c222 0 379
-5 530 -18 372 -32 599 -11 879 81 155 51 316 131 316 158 0 19 -9 20 -150 26
-82 4 -319 9 -525 12 -360 5 -385 4 -635 -23z m900 4 c220 -3 402 -8 404 -10
28 -27 -238 -143 -458 -199 -216 -54 -409 -66 -706 -40 -300 25 -619 36 -759
25 -71 -5 -221 -26 -334 -45 -112 -20 -206 -34 -209 -32 -6 7 221 101 349 145
183 64 315 88 653 122 171 18 339 35 375 40 36 4 115 6 175 4 61 -2 290 -6
510 -10z"/>
<path d="M8278 7383 c23 -2 61 -2 85 0 23 2 4 4 -43 4 -47 0 -66 -2 -42 -4z"/>
<path d="M8005 7069 c-267 -20 -874 -81 -949 -95 -44 -9 -114 -26 -155 -39
-85 -27 -665 -316 -696 -347 -20 -19 -20 -19 15 -14 75 11 143 16 343 26 114
6 275 19 358 30 253 33 918 70 1261 70 182 0 324 16 455 49 199 52 533 183
533 211 0 13 -46 19 -200 24 -99 3 -154 10 -205 25 -188 57 -488 81 -760 60z
m545 -25 c52 -8 147 -28 210 -44 97 -25 134 -30 240 -30 157 0 176 -10 95 -46
-367 -162 -600 -214 -950 -213 -153 1 -394 -9 -810 -32 -104 -5 -278 -21 -385
-34 -107 -13 -289 -29 -405 -35 -115 -5 -235 -12 -265 -16 l-55 -5 115 61
c223 120 515 261 580 280 114 33 225 49 617 85 624 59 796 63 1013 29z"/>
<path d="M8733 6913 c15 -2 39 -2 55 0 15 2 2 4 -28 4 -30 0 -43 -2 -27 -4z"/>
<path d="M8588 6903 c18 -2 45 -2 60 0 15 2 0 4 -33 4 -33 0 -45 -2 -27 -4z"/>
<path d="M8460 6883 c0 -12 3 -14 8 -7 4 7 18 14 32 17 21 4 20 4 -7 6 -25 1
-33 -3 -33 -16z"/>
<path d="M8763 6893 c15 -2 39 -2 55 0 15 2 2 4 -28 4 -30 0 -43 -2 -27 -4z"/>
<path d="M8633 6883 c15 -2 37 -2 50 0 12 2 0 4 -28 4 -27 0 -38 -2 -22 -4z"/>
<path d="M7708 6873 c39 -2 105 -2 145 0 39 1 7 3 -73 3 -80 0 -112 -2 -72 -3z"/>
<path d="M8503 6873 c15 -2 37 -2 50 0 12 2 0 4 -28 4 -27 0 -38 -2 -22 -4z"/>
<path d="M7578 6863 c6 -2 18 -2 25 0 6 3 1 5 -13 5 -14 0 -19 -2 -12 -5z"/>
<path d="M7963 6863 c9 -2 23 -2 30 0 6 3 -1 5 -18 5 -16 0 -22 -2 -12 -5z"/>
<path d="M7538 6853 c7 -3 16 -2 19 1 4 3 -2 6 -13 5 -11 0 -14 -3 -6 -6z"/>
<path d="M8018 6853 c6 -2 18 -2 25 0 6 3 1 5 -13 5 -14 0 -19 -2 -12 -5z"/>
<path d="M7200 6810 c-23 -4 -30 -9 -20 -13 8 -4 38 0 65 7 39 11 43 14 20 14
-16 0 -46 -4 -65 -8z"/>
<path d="M7125 6790 c11 -5 27 -9 35 -9 13 -1 13 0 0 9 -8 5 -24 9 -35 9 l-20
0 20 -9z"/>
<path d="M7068 6783 c7 -3 16 -2 19 1 4 3 -2 6 -13 5 -11 0 -14 -3 -6 -6z"/>
<path d="M7018 6773 c7 -3 16 -2 19 1 4 3 -2 6 -13 5 -11 0 -14 -3 -6 -6z"/>
<path d="M7108 6773 c7 -3 16 -2 19 1 4 3 -2 6 -13 5 -11 0 -14 -3 -6 -6z"/>
<path d="M6978 6763 c7 -3 16 -2 19 1 4 3 -2 6 -13 5 -11 0 -14 -3 -6 -6z"/>
<path d="M7068 6763 c7 -3 16 -2 19 1 4 3 -2 6 -13 5 -11 0 -14 -3 -6 -6z"/>
<path d="M7028 6753 c7 -3 16 -2 19 1 4 3 -2 6 -13 5 -11 0 -14 -3 -6 -6z"/>
<path d="M6988 6743 c7 -3 16 -2 19 1 4 3 -2 6 -13 5 -11 0 -14 -3 -6 -6z"/>
<path d="M6948 6733 c7 -3 16 -2 19 1 4 3 -2 6 -13 5 -11 0 -14 -3 -6 -6z"/>
<path d="M6730 6690 c8 -5 20 -10 25 -10 6 0 3 5 -5 10 -8 5 -19 10 -25 10 -5
0 -3 -5 5 -10z"/>
<path d="M6656 6674 c-22 -8 -42 -17 -45 -20 -9 -9 63 7 73 16 5 5 15 6 24 3
10 -4 13 -2 8 5 -9 14 -11 14 -60 -4z"/>
<path d="M8446 5508 c-159 -81 -417 -161 -631 -193 -163 -25 -385 -29 -648
-11 -131 9 -276 16 -323 16 -46 0 -150 7 -231 16 -164 18 -203 16 -543 -32
-553 -79 -829 -163 -1337 -408 -143 -69 -189 -96 -183 -106 6 -10 71 6 302 78
161 51 298 92 303 91 6 0 -126 -46 -293 -103 -167 -56 -303 -106 -302 -111 1
-14 85 -9 230 15 350 56 560 70 785 51 230 -19 612 -25 815 -12 354 23 593 64
940 162 464 132 654 196 803 270 89 45 100 65 31 54 -59 -8 -51 10 8 20 109
19 185 60 310 167 53 46 65 69 35 68 -7 -1 -39 -15 -71 -32z m73 9 c-2 -2 -34
-29 -72 -60 -94 -78 -147 -108 -245 -134 -93 -25 -97 -26 -87 -43 5 -8 21 -10
43 -6 l36 5 -32 -19 c-55 -34 -230 -105 -362 -148 -210 -68 -644 -190 -773
-217 -378 -80 -784 -108 -1222 -84 -137 8 -347 14 -465 13 -221 -1 -212 0
-659 -69 -57 -9 -106 -14 -108 -11 -3 3 138 51 313 109 285 92 367 127 305
127 -11 0 -156 -43 -322 -95 -166 -52 -304 -93 -306 -92 -7 7 441 219 572 270
264 104 515 167 885 221 360 53 407 57 600 41 246 -20 743 -46 883 -45 303 0
626 71 907 199 58 26 107 46 109 44 2 -2 2 -4 0 -6z"/>
<path d="M7922 5233 c-12 -2 -20 -9 -16 -14 3 -6 -6 -8 -23 -4 -26 5 -26 5 -5
-5 17 -7 31 -6 53 5 27 15 39 27 22 24 -5 -1 -18 -4 -31 -6z"/>
<path d="M7818 5203 c7 -3 16 -2 19 1 4 3 -2 6 -13 5 -11 0 -14 -3 -6 -6z"/>
<path d="M7753 5193 c9 -2 23 -2 30 0 6 3 -1 5 -18 5 -16 0 -22 -2 -12 -5z"/>
<path d="M7683 5183 c9 -2 23 -2 30 0 6 3 -1 5 -18 5 -16 0 -22 -2 -12 -5z"/>
<path d="M7628 5173 c6 -2 18 -2 25 0 6 3 1 5 -13 5 -14 0 -19 -2 -12 -5z"/>
<path d="M7728 5153 c7 -3 16 -2 19 1 4 3 -2 6 -13 5 -11 0 -14 -3 -6 -6z"/>
<path d="M7688 5143 c7 -3 16 -2 19 1 4 3 -2 6 -13 5 -11 0 -14 -3 -6 -6z"/>
<path d="M7638 5133 c7 -3 16 -2 19 1 4 3 -2 6 -13 5 -11 0 -14 -3 -6 -6z"/>
<path d="M7118 5123 c6 -2 18 -2 25 0 6 3 1 5 -13 5 -14 0 -19 -2 -12 -5z"/>
<path d="M7450 5120 c-8 -5 -11 -12 -8 -16 4 -3 14 1 23 10 18 17 9 21 -15 6z"/>
<path d="M7578 5123 c6 -2 18 -2 25 0 6 3 1 5 -13 5 -14 0 -19 -2 -12 -5z"/>
<path d="M6783 5113 c9 -2 25 -2 35 0 9 3 1 5 -18 5 -19 0 -27 -2 -17 -5z"/>
<path d="M6987 5113 c18 -2 50 -2 70 0 21 2 7 4 -32 4 -38 0 -55 -2 -38 -4z"/>
<path d="M7513 5113 c9 -2 23 -2 30 0 6 3 -1 5 -18 5 -16 0 -22 -2 -12 -5z"/>
<path d="M6618 5103 c12 -2 32 -2 45 0 12 2 2 4 -23 4 -25 0 -35 -2 -22 -4z"/>
<path d="M7158 5103 c7 -3 16 -2 19 1 4 3 -2 6 -13 5 -11 0 -14 -3 -6 -6z"/>
<path d="M6548 5093 c6 -2 18 -2 25 0 6 3 1 5 -13 5 -14 0 -19 -2 -12 -5z"/>
<path d="M7108 5093 c7 -3 16 -2 19 1 4 3 -2 6 -13 5 -11 0 -14 -3 -6 -6z"/>
<path d="M6168 5083 c17 -2 47 -2 65 0 17 2 3 4 -33 4 -36 0 -50 -2 -32 -4z"/>
<path d="M6508 5083 c7 -3 16 -2 19 1 4 3 -2 6 -13 5 -11 0 -14 -3 -6 -6z"/>
<path d="M6793 5083 c53 -2 141 -2 195 0 53 1 9 3 -98 3 -107 0 -151 -2 -97
-3z"/>
<path d="M6608 5073 c12 -2 30 -2 40 0 9 3 -1 5 -23 4 -22 0 -30 -2 -17 -4z"/>
<path d="M5638 5063 c12 -2 32 -2 45 0 12 2 2 4 -23 4 -25 0 -35 -2 -22 -4z"/>
<path d="M5813 5063 c9 -2 25 -2 35 0 9 3 1 5 -18 5 -19 0 -27 -2 -17 -5z"/>
<path d="M6198 5063 c12 -2 32 -2 45 0 12 2 2 4 -23 4 -25 0 -35 -2 -22 -4z"/>
<path d="M6423 5063 c-21 -8 -15 -23 10 -23 16 0 18 3 8 9 -11 7 -11 9 0 14 8
3 10 5 4 5 -5 0 -16 -2 -22 -5z"/>
<path d="M6533 5063 c9 -2 23 -2 30 0 6 3 -1 5 -18 5 -16 0 -22 -2 -12 -5z"/>
<path d="M5568 5053 c6 -2 18 -2 25 0 6 3 1 5 -13 5 -14 0 -19 -2 -12 -5z"/>
<path d="M5840 5050 l-35 -7 43 -2 c23 0 42 4 42 9 0 6 -3 9 -7 9 -5 -1 -24
-5 -43 -9z"/>
<path d="M6093 5053 c9 -2 25 -2 35 0 9 3 1 5 -18 5 -19 0 -27 -2 -17 -5z"/>
<path d="M6468 5053 c6 -2 18 -2 25 0 6 3 1 5 -13 5 -14 0 -19 -2 -12 -5z"/>
<path d="M5466 5027 c-16 -12 -11 -13 35 -14 42 0 45 1 15 4 -29 3 -36 7 -25
14 8 5 9 9 3 9 -5 0 -18 -6 -28 -13z"/>
<path d="M5718 5033 c12 -2 32 -2 45 0 12 2 2 4 -23 4 -25 0 -35 -2 -22 -4z"/>
<path d="M5598 5023 c12 -2 32 -2 45 0 12 2 2 4 -23 4 -25 0 -35 -2 -22 -4z"/>
<path d="M6828 4203 c7 -3 16 -2 19 1 4 3 -2 6 -13 5 -11 0 -14 -3 -6 -6z"/>
<path d="M6758 4183 c7 -3 16 -2 19 1 4 3 -2 6 -13 5 -11 0 -14 -3 -6 -6z"/>
<path d="M6480 4101 c0 -6 4 -13 10 -16 6 -3 7 1 4 9 -7 18 -14 21 -14 7z"/>
<path d="M5775 3971 c-6 -11 13 -26 22 -17 4 3 0 6 -8 6 -11 0 -11 2 1 10 9 6
10 10 3 10 -6 0 -14 -4 -18 -9z"/>
<path d="M5340 3956 c0 -2 16 -6 35 -8 19 -2 35 0 35 4 0 4 -16 8 -35 8 -19 0
-35 -2 -35 -4z"/>
<path d="M5258 3943 c12 -2 30 -2 40 0 9 3 -1 5 -23 4 -22 0 -30 -2 -17 -4z"/>
<path d="M5158 3933 c12 -2 30 -2 40 0 9 3 -1 5 -23 4 -22 0 -30 -2 -17 -4z"/>
<path d="M5343 3933 c9 -2 23 -2 30 0 6 3 -1 5 -18 5 -16 0 -22 -2 -12 -5z"/>
<path d="M4733 3923 c9 -2 25 -2 35 0 9 3 1 5 -18 5 -19 0 -27 -2 -17 -5z"/>
<path d="M4870 3920 c-11 -7 -7 -10 18 -10 17 0 32 5 32 10 0 13 -30 13 -50 0z"/>
<path d="M5040 3919 c-11 -7 -4 -8 25 -3 50 8 58 14 19 14 -16 0 -36 -5 -44
-11z"/>
<path d="M5288 3923 c7 -3 16 -2 19 1 4 3 -2 6 -13 5 -11 0 -14 -3 -6 -6z"/>
<path d="M4678 3913 c7 -3 16 -2 19 1 4 3 -2 6 -13 5 -11 0 -14 -3 -6 -6z"/>
<path d="M5228 3913 c6 -2 18 -2 25 0 6 3 1 5 -13 5 -14 0 -19 -2 -12 -5z"/>
<path d="M4638 3903 c7 -3 16 -2 19 1 4 3 -2 6 -13 5 -11 0 -14 -3 -6 -6z"/>
<path d="M4803 3903 c9 -2 23 -2 30 0 6 3 -1 5 -18 5 -16 0 -22 -2 -12 -5z"/>
<path d="M5098 3903 c17 -2 47 -2 65 0 17 2 3 4 -33 4 -36 0 -50 -2 -32 -4z"/>
<path d="M4723 3893 c9 -2 23 -2 30 0 6 3 -1 5 -18 5 -16 0 -22 -2 -12 -5z"/>
<path d="M4580 3880 c-12 -8 -10 -10 8 -10 13 0 20 4 17 10 -7 12 -6 12 -25 0z"/>
<path d="M4643 3883 c9 -2 23 -2 30 0 6 3 -1 5 -18 5 -16 0 -22 -2 -12 -5z"/>
<path d="M6150 3534 c-91 -13 -325 -42 -519 -64 -195 -23 -420 -52 -500 -66
-180 -30 -417 -91 -542 -139 -52 -19 -192 -65 -312 -100 -789 -237 -1166 -420
-1539 -748 -38 -32 -65 -63 -62 -68 2 -5 105 41 227 102 130 64 211 100 195
85 -26 -23 -37 -46 -22 -46 4 0 154 47 333 104 688 220 685 219 861 231 305
20 597 77 1022 200 221 64 343 108 493 180 155 73 565 301 595 331 l25 24 -45
-1 c-25 -1 -119 -12 -210 -25z m220 8 c0 -9 -413 -239 -556 -310 -133 -67
-269 -120 -423 -166 -463 -140 -764 -202 -1097 -227 -185 -13 -234 -26 -731
-185 -219 -70 -418 -133 -443 -140 l-45 -14 28 21 c23 18 37 49 22 49 -3 0
-101 -48 -218 -106 -234 -117 -240 -115 -62 29 316 255 715 443 1342 632 120
36 310 97 423 135 314 105 484 137 1080 205 173 19 389 46 480 59 193 28 200
29 200 18z"/>
<path d="M5576 3265 c-3 -8 -1 -15 4 -15 6 0 10 7 10 15 0 8 -2 15 -4 15 -2 0
-6 -7 -10 -15z"/>
<path d="M5210 3150 c8 -5 22 -9 30 -9 10 0 8 3 -5 9 -27 12 -43 12 -25 0z"/>
<path d="M5155 3140 c-17 -7 -14 -9 13 -9 20 -1 31 3 27 9 -7 12 -13 12 -40 0z"/>
<path d="M3947 2839 c8 -8 16 -8 30 0 16 9 14 10 -11 11 -22 0 -27 -3 -19 -11z"/>
<path d="M3888 2833 c6 -2 18 -2 25 0 6 3 1 5 -13 5 -14 0 -19 -2 -12 -5z"/>
<path d="M3838 2823 c7 -3 16 -2 19 1 4 3 -2 6 -13 5 -11 0 -14 -3 -6 -6z"/>
<path d="M3788 2813 c7 -3 16 -2 19 1 4 3 -2 6 -13 5 -11 0 -14 -3 -6 -6z"/>
<path d="M3898 2813 c7 -3 16 -2 19 1 4 3 -2 6 -13 5 -11 0 -14 -3 -6 -6z"/>
<path d="M3748 2803 c7 -3 16 -2 19 1 4 3 -2 6 -13 5 -11 0 -14 -3 -6 -6z"/>
<path d="M3838 2803 c6 -2 18 -2 25 0 6 3 1 5 -13 5 -14 0 -19 -2 -12 -5z"/>
<path d="M3708 2793 c7 -3 16 -2 19 1 4 3 -2 6 -13 5 -11 0 -14 -3 -6 -6z"/>
<path d="M3798 2793 c7 -3 16 -2 19 1 4 3 -2 6 -13 5 -11 0 -14 -3 -6 -6z"/>
<path d="M3748 2783 c7 -3 16 -2 19 1 4 3 -2 6 -13 5 -11 0 -14 -3 -6 -6z"/>
<path d="M3708 2773 c7 -3 16 -2 19 1 4 3 -2 6 -13 5 -11 0 -14 -3 -6 -6z"/>
<path d="M3500 2720 c12 -8 12 -10 1 -10 -8 0 -12 -2 -9 -5 3 -3 13 -2 22 1
14 5 15 9 4 15 -7 5 -17 9 -23 9 -5 0 -3 -5 5 -10z"/>
<path d="M3367 2667 c-85 -45 -89 -62 -8 -26 29 12 48 26 44 32 -4 6 0 8 11 4
11 -5 15 -3 10 5 -5 8 -2 9 9 5 10 -3 24 -4 33 0 13 5 13 7 2 14 -18 12 -14
13 -101 -34z"/>
<path d="M8552 6184 c-7 -8 -8 -14 -3 -14 10 0 25 19 20 25 -2 1 -10 -3 -17
-11z"/>
<path d="M8350 6131 c0 -10 19 -25 25 -20 1 2 -3 10 -11 17 -8 7 -14 8 -14 3z"/>
<path d="M8115 6051 c-53 -5 -56 -7 -28 -13 19 -4 49 -2 75 6 47 15 43 16 -47
7z"/>
<path d="M7993 6033 c9 -2 25 -2 35 0 9 3 1 5 -18 5 -19 0 -27 -2 -17 -5z"/>
<path d="M7923 6023 c9 -2 23 -2 30 0 6 3 -1 5 -18 5 -16 0 -22 -2 -12 -5z"/>
<path d="M8058 6023 c7 -3 16 -2 19 1 4 3 -2 6 -13 5 -11 0 -14 -3 -6 -6z"/>
<path d="M7868 6013 c7 -3 16 -2 19 1 4 3 -2 6 -13 5 -11 0 -14 -3 -6 -6z"/>
<path d="M8018 6013 c7 -3 16 -2 19 1 4 3 -2 6 -13 5 -11 0 -14 -3 -6 -6z"/>
<path d="M7928 5993 c7 -3 16 -2 19 1 4 3 -2 6 -13 5 -11 0 -14 -3 -6 -6z"/>
<path d="M7888 5983 c7 -3 16 -2 19 1 4 3 -2 6 -13 5 -11 0 -14 -3 -6 -6z"/>
<path d="M7838 5973 c7 -3 16 -2 19 1 4 3 -2 6 -13 5 -11 0 -14 -3 -6 -6z"/>
<path d="M7680 5960 c-8 -5 -10 -10 -5 -10 6 0 17 5 25 10 8 5 11 10 5 10 -5
0 -17 -5 -25 -10z"/>
<path d="M7798 5963 c7 -3 16 -2 19 1 4 3 -2 6 -13 5 -11 0 -14 -3 -6 -6z"/>
<path d="M7629 5934 c-18 -10 -20 -13 -7 -14 9 0 19 4 22 9 3 5 15 7 26 4 11
-3 20 -3 20 0 0 12 -39 13 -61 1z"/>
<path d="M7708 5943 c7 -3 16 -2 19 1 4 3 -2 6 -13 5 -11 0 -14 -3 -6 -6z"/>
<path d="M7253 5923 c9 -2 25 -2 35 0 9 3 1 5 -18 5 -19 0 -27 -2 -17 -5z"/>
<path d="M7302 5915 c-11 -12 -10 -15 3 -15 8 0 15 7 15 15 0 18 -2 18 -18 0z"/>
<path d="M7173 5913 c9 -2 25 -2 35 0 9 3 1 5 -18 5 -19 0 -27 -2 -17 -5z"/>
<path d="M6143 5895 c0 -8 4 -15 9 -15 4 0 8 7 8 15 0 8 -4 15 -8 15 -5 0 -9
-7 -9 -15z"/>
<path d="M7083 5903 c9 -2 25 -2 35 0 9 3 1 5 -18 5 -19 0 -27 -2 -17 -5z"/>
<path d="M6088 5893 c6 -2 18 -2 25 0 6 3 1 5 -13 5 -14 0 -19 -2 -12 -5z"/>
<path d="M6321 5878 c1 -18 2 -19 6 -5 4 17 24 18 319 16 174 0 318 2 321 5 4
3 -141 6 -320 6 l-327 0 1 -22z"/>
<path d="M7050 5888 c0 -13 7 -18 28 -17 21 1 22 2 7 6 -11 3 -23 10 -27 17
-5 7 -8 5 -8 -6z"/>
<path d="M7223 5893 c9 -2 25 -2 35 0 9 3 1 5 -18 5 -19 0 -27 -2 -17 -5z"/>
<path d="M6028 5883 c6 -2 18 -2 25 0 6 3 1 5 -13 5 -14 0 -19 -2 -12 -5z"/>
<path d="M7133 5883 c9 -2 25 -2 35 0 9 3 1 5 -18 5 -19 0 -27 -2 -17 -5z"/>
<path d="M5968 5873 c6 -2 18 -2 25 0 6 3 1 5 -13 5 -14 0 -19 -2 -12 -5z"/>
<path d="M6088 5873 c6 -2 18 -2 25 0 6 3 1 5 -13 5 -14 0 -19 -2 -12 -5z"/>
<path d="M6878 5873 c6 -2 18 -2 25 0 6 3 1 5 -13 5 -14 0 -19 -2 -12 -5z"/>
<path d="M5903 5863 c9 -2 23 -2 30 0 6 3 -1 5 -18 5 -16 0 -22 -2 -12 -5z"/>
<path d="M6028 5863 c6 -2 18 -2 25 0 6 3 1 5 -13 5 -14 0 -19 -2 -12 -5z"/>
<path d="M6473 5863 c71 -2 183 -2 250 0 67 1 10 3 -128 3 -137 0 -192 -2
-122 -3z"/>
<path d="M5835 5850 c-8 -13 18 -23 42 -17 11 3 7 5 -12 7 -26 1 -27 3 -10 10
16 7 17 9 3 9 -9 1 -20 -4 -23 -9z"/>
<path d="M5968 5853 c6 -2 18 -2 25 0 6 3 1 5 -13 5 -14 0 -19 -2 -12 -5z"/>
<path d="M5918 5843 c7 -3 16 -2 19 1 4 3 -2 6 -13 5 -11 0 -14 -3 -6 -6z"/>
</g>
</svg>
