<svg id="Palm_Leaf" data-name="Palm Leaf" xmlns="http://www.w3.org/2000/svg" viewBox="0 0 848.98 953.35"><defs><style>.cls-1{ stroke:#000;stroke-miterlimit:10;}</style></defs><path class="cls-1" d="M302.45,764.57c7.63-10.2,15.37-20.31,22.86-30.6,17.31-23.81,33.22-48.79,52.1-71.27,17.68-21.05,18.39-45.14,16.3-69.25-4-45.84-2.67-91.64-1.89-137.43,1-58.41,9.86-115.91,23.76-172.59,6.05-24.66,17.41-47.13,30.69-68.65q16.65-27,33.34-53.9a54.4,54.4,0,0,1,5-5.93l1.72.61c-.45,2.63-.7,5.32-1.39,7.89-6.53,24.26-14.32,48.11-17.46,73.31C461,288.71,453.92,340.6,445.8,392.31c-9.22,58.78-19.61,117.38-30.05,176-3.27,18.32-8.38,36.31-12.63,54.46-.19.83-.23,1.71-.35,2.58.65.12,1.26.38,1.38.24,19.23-22.84,39.4-45,57.11-68.94,6.63-9,9.41-22,10.68-33.5a656.51,656.51,0,0,0,3.74-68.55c.27-56.07,3.48-112,11.62-167.36,4.47-30.51,15.26-59.65,30.61-86.66q20.82-36.61,42.74-72.61c6.53-10.7,14.43-20.57,21.79-30.76.84-1.17,2.22-1.94,4.94-4.23-.8,3.72-.85,5.68-1.62,7.3-16.2,34-23.67,70.63-31.09,107.18C539.21,283.58,525,360,508.4,435.92c-7.24,33-19.28,65-29.13,97.42-.56,1.86-1,3.76-2.06,7.64,9.36-8.84,17.48-16.11,25.13-23.84,16.11-16.28,32-32.79,47.93-49.22,2.66-2.74,4.85-6.11,7.89-8.29,18.11-13,21.28-31.83,19-51.67s-.75-39.43.5-59.17c3.3-51.92,11.85-103.13,20.74-154.26,4.26-24.53,14-47.38,27.72-68.23C637.79,108.67,650,91.45,661.93,74c1.33-2,2.08-4.33,3.1-6.51l3.34,2.67a28.8,28.8,0,0,1-1.5,5.22c-12.69,25.18-19.33,52.07-23.28,79.84C635.77,210.13,629,265.27,619,319.81c-6.26,34.12-17.63,67.3-26.71,100.9a19.2,19.2,0,0,0-.93,8.42c1.87-2,3.69-4.07,5.62-6,12.17-12.27,24-24.86,36.66-36.67,7.73-7.25,13-15.28,14.4-25.84,1.9-14.26,3-28.36,1.69-42.92s.06-29.63,1.1-44.4c1.58-22.19,4.32-44.3,5.79-66.5,2.23-33.7,15.08-63.6,32-92,8.5-14.28,17.76-28.11,26.81-42.06,1.7-2.62,4-4.84,6.07-7.24l2,1a62.41,62.41,0,0,1-1.13,7.39C715,100.92,706,127.65,700.54,155.1c-8.15,41.42-12.91,83.5-20.72,125-4.89,25.95-12.73,51.35-19.25,77-.27,1-.61,2.08-1.38,4.72a66.46,66.46,0,0,0,5.73-3.41q23-17.69,45.83-35.45c6.85-5.3,10-12.75,11.13-20.91,3.73-26.92,7.49-53.85,10.54-80.86,5.88-52.11,25.4-98.88,54.26-142.16A43.71,43.71,0,0,0,789.5,73l3.12,2.35a37.71,37.71,0,0,1-.6,5.45c-10.78,42.2-21.46,84.43-32.48,126.57-7.33,28-15,55.94-22.83,83.83-1.72,6.16-4.57,12-6.36,18.41,11.26-6.31,22.1-11.06,27.71-25.5,9.25-23.82,12.43-48.62,17.75-73.13,7-32.27,17.45-63.33,36.87-90.49,6.49-9.08,14.69-17,22.22-25.26,1.4-1.54,3.36-2.56,5.07-3.82l1.91,1c-.77,3.23-1.17,6.6-2.36,9.66q-28,71.93-56.09,143.77c-4.47,11.45-8.89,22.92-13.34,34.39l1.74,1.32c6.26-6.93,12.8-13.63,18.75-20.83C814,232.36,837.84,204.43,867,182c13.94-10.69,30.4-18.09,45.79-26.85,1.33-.76,3.2-.58,6.62-1.11-2.18,4.15-3.35,6.94-5,9.41-23.43,35.44-54.5,63.08-89,87.29-18.94,13.3-37.73,26.81-56.55,40.27-1.76,1.26-3.29,2.82-4.93,4.23l.57,1.67,10.38-2.4c29.52-6.79,58.81-14.93,88.63-20,29.45-5,59.14,0,88.59,3.45,2.12.25,4.16,1.19,8,2.33-2.76,1.76-4,3-5.4,3.37-17.34,4.57-34.6,9.56-52.13,13.31-11.56,2.48-23.53,4.39-35.3,4.35-27.39-.12-54.76-1.87-82.14-2.37-14.31-.27-28.05,2.83-40.12,11.15Q716.51,329.83,688,349.58l-4.38,3,1.23,1.7a63.2,63.2,0,0,0,7.36-2.53c32.36-15.64,67.21-20.74,102.41-24.34,14.08-1.44,28.19-2.75,42.32-3.59,7.12-.42,14.31.33,21.46.61,20,.79,39.89,1.8,59.84,2.32,7.38.19,14.78-.87,22.18-1.1,1.94-.06,3.91.87,5.87,1.34-1.09,1.51-1.89,3.39-3.31,4.48-17.76,13.64-38.66,19.21-60,24.35-25.93,6.25-51.87,5.5-77.72,2-39.38-5.38-78-1.65-116.49,6.54-6.16,1.31-12.44,2.14-18.45,3.92-4.43,1.31-9.29,2.93-12.59,5.92-15,13.56-29.52,27.63-44.16,41.56a9.94,9.94,0,0,0-2.92,5.65c3.76-1.7,7.58-3.27,11.26-5.13,18.83-9.54,37.32-19.81,56.51-28.58,21.58-9.86,45.35-10.62,68.43-14,33.7-4.88,67.55-6.79,101.52-3.23a125.19,125.19,0,0,1,21.17,3.86c19.55,5.56,39,4.77,58.58.49a23,23,0,0,1,4.91-.05l1,2a89.59,89.59,0,0,1-7.6,6.62c-16.56,11.47-35.76,16.5-54.68,22.25-19.72,6-39.89,6.87-60.38,8.34-50.14,3.59-100.7,1-150.49,10.57-17.73,3.41-36.13,3.29-54.19,5.07-2.9.29-6.37,1.39-8.37,3.34-22.79,22.3-45.35,44.82-68,67.31a16.53,16.53,0,0,0-4.32,6.65c2.58-1.3,5.23-2.49,7.75-3.9,25.72-14.37,52.56-25.45,82.28-28.14,20.58-1.87,41.14-3.91,61.73-5.66,33.29-2.82,66.68-4.81,99.88-8.41,29.23-3.16,58.65-6.39,86.6-16.21,13.27-4.67,25.83-11.31,38.74-17,2.25-1,4.61-1.74,8.85-3.32-1.68,3.28-2.08,4.81-3,5.81-15.36,16.19-31.5,31.4-51.38,42.13-14.41,7.79-28.4,16.38-43,23.85-23.21,11.88-48.82,14.58-74.09,18.94-26.27,4.53-52-1-77.92-2-27.14-1-54.31-1.47-81.47-1.83-5.09-.07-10.18,1.59-15.3,2.23-8.65,1.08-17.32,2.1-26,2.93-3.56.34-7.21-.15-10.77.23-11.25,1.2-20.54,5.19-28.43,14.4-20,23.35-41.08,45.75-61.7,68.55a18.37,18.37,0,0,0-4.43,7.43c2.61-1.37,5.23-2.72,7.83-4.11,30.32-16.23,61.18-31.48,94.11-41.51,19-5.79,38.9-8.92,58.47-12.87,11-2.22,22.1-4.19,33.25-5.33a167.27,167.27,0,0,1,28.74-.68c39.19,2.8,78.34,7,117.7,3.42,28.59-2.61,55.54-10.37,79.84-26.2,3.79-2.48,7.88-4.52,11.83-6.76l1.62,1.65a53.82,53.82,0,0,1-3.75,6.27c-16.55,20.71-37.33,36.23-62.32,44.42-36,11.81-72.25,23.59-109.18,31.9-38.23,8.59-77.6,9.23-116.78,6-47.52-4-94.15,2.07-140.49,11.88a31.88,31.88,0,0,0-19.75,13c-19.42,26.45-39.05,52.75-58.54,79.14a20,20,0,0,0-4,9.41c2.08-1,4.22-2,6.24-3.09,21.73-12.23,43.4-24.59,65.18-36.73C456.22,659,491.17,652.6,526.85,651.4c37.47-1.27,75-.69,112.53.12,33.59.73,64.07-10.42,94.18-22.89,14.42-6,27.84-14.39,41.74-21.64a49.28,49.28,0,0,1,5.11-2c.34.47.68.95,1,1.42-1.61,2-2.92,4.3-4.87,5.84q-23.22,18.33-46.69,36.39c-2.12,1.64-4.72,2.68-6.8,4.36-26.57,21.51-57.64,32.23-90.68,38.87-29.26,5.87-58.1,14-87.51,18.91-22.08,3.64-44.94,6.21-67.13,4.66-37.45-2.6-73.9,4.5-110.81,6.83-15.15,1-26.3,7-35.87,20-29.87,40.49-61.27,79.85-92.08,119.66a5.61,5.61,0,0,0-1.45,4.42c3.11-2.19,6.43-4.15,9.32-6.61,18.42-15.74,36.08-32.47,55.38-47,11.46-8.67,25.24-14.43,38.33-20.75,37.39-18.05,77.9-27.38,116.72-41.35,36.49-13.14,74-17.72,112-21.39,22.79-2.2,45.44-5.86,68.1-9.26,4.55-.69,8.83-3.16,13.24-4.8,1.9-.71,3.82-1.4,5.73-2.09l1.17,1.71c-1.48,1.64-2.7,3.68-4.49,4.87-11,7.37-21.65,15.43-33.29,21.61-30.32,16.09-60.2,33.34-94.2,41.16-36.33,8.37-72.48,17.23-109.9,20.24-14.07,1.13-27.94,6.52-41.58,10.94-28.83,9.34-57.85,18.3-86.05,29.33-30.23,11.83-56.75,29.58-77.18,55.71C182.24,935.27,153,971.48,124,1007.83c-2.75,3.44-6,6.48-9,9.71l-1.95-1.13c2-4.45,4.19-8.81,5.9-13.36,2.18-5.82,3.81-11.85,6-17.69A24.59,24.59,0,0,1,129,977.8c16.31-18.87,33-37.39,49.11-56.45C189.35,908,199.94,894,210.47,880.08a22.77,22.77,0,0,0,4.08-10.55c5.22-42.93,7.44-85.87,2.82-129.11-3.83-35.95-8-72-8.61-108.12-.57-33.83,2.22-67.84,5.66-101.55,2.78-27.3,15.27-52.14,26.33-76.88,14.37-32.18,30.61-63.52,46.08-95.21q14.19-29.07,28.51-58.08a51,51,0,0,1,3.75-5.67l2,.77c-.71,3.52-1.2,7.1-2.17,10.55-8.78,31.36-18.84,62.43-26.18,94.12-8.56,37-15.58,74.34-21.67,111.8-3,18.75-1.84,38.15-3.76,57.13-3.78,37.55-8.67,75-12.57,112.51-2.9,27.93-4.85,56-7.42,83.91-2.77,30.15-10.16,59.27-20.17,87.77-.6,1.69-1.17,3.4-1.66,5.12-.11.36.17.83.59,2.63,6.55-6.64,13.26-12.25,18.49-19,11.27-14.55,22.15-29.44,32.42-44.7a66.52,66.52,0,0,0,9.13-20.59c11.86-47.78,13.23-97,19.19-145.55,7.16-58.33,9-116.93,12.33-175.49,2.55-44.91,9.68-89.39,22.95-132.55A113.26,113.26,0,0,1,354,294.09c15.68-23.54,32.44-46.37,48.87-69.4,1.14-1.6,3.18-2.56,4.8-3.81l1.38,1c-.77,2.45-1.46,4.93-2.31,7.35-9.71,27.74-22.55,54.83-28.51,83.36-11.2,53.6-19.71,107.86-27,162.17-10.13,75.48-18.22,151.25-32.87,226-3.36,17.13-9.3,33.75-14.08,50.6-1.15,4.05-2.42,8.07-3.64,12.11ZM773.28,108.42c-2.74,4.89-5.64,9.69-8.19,14.68A285.55,285.55,0,0,0,735.3,225.32c-1.52,15.28-3.58,30.51-5.4,45.76l2.3.53L738.26,248l2.24.63c-2.48,8.46-3.52,17.76-7.81,25.17-5.49,9.48-5,19.34-6.24,29.32A13.54,13.54,0,0,0,730,297.7c5.44-16.39,11.72-32.56,16-49.25,11.77-46.34,22.68-92.9,33.94-139.37,1.36-5.6,2.82-11.17,4.23-16.76l-1.67-.74q-3.82,6.89-7.64,13.76Zm-463,213.44-1.12-.47c-1,1.89-2.07,3.75-3,5.67-9.79,19.71-20,39.22-29.23,59.19q-24.54,53.19-48,106.88A159.86,159.86,0,0,0,215.64,550c-1.55,34.54-3.74,69.18-2.64,103.68,1.06,33.56,6.34,67,8.95,100.53,1.88,24.16,3.76,48.41-.17,72.63-.68,4.15-.1,8.5-.1,12.76l2.79.19Q228,809,231.42,778.29l1.86.2c-2,20.28-3.93,40.55-5.93,61.23.66-.7,1.15-1,1.23-1.34,5.3-24.54,13.57-48.9,15.19-73.69,3.1-47.34,9.25-94.3,13.76-141.45,2.12-22.1,4.75-44.15,6.75-66.27,1.61-17.87,1.6-36,4.17-53.66,3.26-22.41,7.88-44.66,12.85-66.77,8.18-36.34,14.27-73.23,27.51-108.3A45.1,45.1,0,0,0,310.27,321.86ZM757.16,625.09c-2-.65-2.46-1-2.76-.88-1.66.66-3.25,1.46-4.89,2.16-37.92,16.18-76,30.72-118.55,29.27-35.21-1.2-70.55-1.6-105.73-.1-29.14,1.25-58.61,4.71-85.25,17.77-23.75,11.65-46.39,25.55-69.5,38.48-.21.12-.16.72-.25,1.18l22.3-2.06.11,1.78-17.7,2.8.28,1.73c12.5-1,25-2.13,37.51-3.05,16.09-1.18,32.19-2.51,48.31-3.23,25.09-1.13,50.6.67,75.22-3.25,39.62-6.3,78.75-15.88,117.9-24.86,14.1-3.24,28.35-6.64,40.54-15.69,10.44-7.75,21.83-14.2,32.66-21.45C737.13,639.16,746.7,632.34,757.16,625.09ZM399.21,618a16.21,16.21,0,0,0,1.16-2.85c6.41-26.62,14.15-53,18.85-79.94,9.15-52.43,16.63-105.15,24.71-157.77,5.66-36.86,11.42-73.71,16.68-110.62,3.81-26.66,4.79-53.76,13.21-79.66,1.15-3.55,1.94-7.22,3-11.31-1.24.45-1.84.48-2,.77-3.35,5-6.56,10.19-10,15.18-28.34,41.31-49.06,85.67-55.32,136-4.13,33.2-10.57,66.26-12.49,99.58C393.37,491,393.6,554.72,399.21,618Zm56.72-12.9.36,1.6c5.21-.68,10.45-1.2,15.63-2,26.82-4.42,53.5-8.84,81-6.63,60.11,4.83,119.79,3.49,178.3-14.13,27.51-8.29,55.58-14.75,81.64-27.3,2.58-1.24,5-2.78,7.52-4.18l-.52-1-7.64,1.21-.67-2.16c7-2.07,14.61-3,20.8-6.49,7.65-4.29,14.13-10.7,21.11-16.19l-1.22-1.48c-1.8.83-3.62,1.62-5.4,2.5a221.25,221.25,0,0,1-80.6,22.09c-29.55,2.48-58.68-2.51-88-2.54-13,0-26.14-3.62-38.85-2.24-26.73,2.89-53.5,6.73-79.74,12.52-36.14,8-69.6,23.61-102.37,40.6a9.23,9.23,0,0,1-2.57.49l1.54,1.84c2.1-.61,4.22-1.16,6.31-1.82,17.34-5.47,34.66-11,52-16.36,1.93-.59,4.14-.27,6.22-.38l-.25.63ZM574.08,117.8l-1.3-.61c-1.35,2-2.81,3.86-4.06,5.89-12.88,20.81-25.58,41.75-38.62,62.46a273,273,0,0,0-36,88.92c-9.74,45.59-12.43,92.1-13.85,138.63-1,33-1.79,66-2.75,98.95-.14,4.63-.78,9.25-1.19,13.87,1.79-.61,2.36-1.32,2.6-2.13C487.09,496.7,497,470,503,442.43c12.49-57.7,22.53-115.93,34.24-173.81,10-49.7,19-99.7,36.31-147.64A17.61,17.61,0,0,0,574.08,117.8ZM898.16,436.39c-14.6,5.13-26.82,10.42-39.56,13.72A582.57,582.57,0,0,1,712,468.8a146.36,146.36,0,0,0-14.81.66c-20.54,2.09-41,4.92-61.62,6.39a236.74,236.74,0,0,0-101.14,30.29c-2.53,1.44-4.8,3.33-7.19,5,.29.65.59,1.3.88,1.94,8.66-4.29,17-10,27.11-8.32-2.16,1.25-4.56,1.66-6.81,2.47s-4.5,2.08-6.74,3.15a33.23,33.23,0,0,0,12.92,1.17c6.68-.83,13.28-3.23,19.92-3.26,28.7-.17,57.42-.42,86.08.71,27.09,1.07,54,7.12,81.25,1.82,16.5-3.2,33.33-5.17,49.47-9.66,30.53-8.48,56-27.13,82.3-43.9C882.16,451.82,889.24,444.09,898.16,436.39ZM396,244.11l-1.12-.61c-1.95,2.07-4.25,3.92-5.79,6.26-13.6,20.58-27.17,41.18-40.47,62-2.25,3.52-3.48,7.8-4.63,11.89-12.54,44.49-20.91,89.89-22.4,136C319,539.4,310.1,618.63,302.78,698c-1,10.7-2.12,21.38-3.18,32.07l1.59.3q4.14-12.58,8.29-25.18l1.48.42q-5.23,19.74-10.48,39.5l2.46.64c2.07-6.79,4.92-13.45,6.1-20.4,10.43-61.53,22.13-122.91,30.32-184.74,7.61-57.44,14.12-115,23.74-172.17,6.66-39.59,15.39-78.4,29.83-115.87C394,249.78,395,246.94,396,244.11ZM307.29,829.25c.17.41.33.82.49,1.23,1.89-.56,3.78-1.1,5.66-1.7,28.24-9,56.42-18.19,84.76-26.88,7.89-2.42,16.2-4.39,24.4-4.76,42.18-1.88,82.53-12.69,122.51-24.9,32-9.78,60.23-27.87,89.53-43.52,1.45-.77,2.58-2.16,4.7-4a54.82,54.82,0,0,0-5.58,0c-18.7,2.44-37.35,5.31-56.1,7.32-41.55,4.45-83.19,8.08-122.7,23.36-10.66,4.12-21.8,7-32.76,10.31-52.86,16.07-104.75,34.14-147,71.94l-7.31,6.53.9.83,43.36-21.6.79,1.45ZM654.47,93.75,653,93c-10.27,15.44-22.06,30.1-30.38,46.53-8.64,17.06-16.81,35.32-20.08,53.95-8.27,47.06-14.25,94.55-20,142-2.93,24.21-5.82,48.61-1.58,73.18,1.37,7.9.22,16.23.22,24.36a64.23,64.23,0,0,0,8.3-15.67,707.68,707.68,0,0,0,31.08-121.21c7.05-43,11.6-86.34,18-129.43,3.36-22.78,4.65-46.12,14.75-67.49C654,97.61,654.08,95.6,654.47,93.75ZM620,422.12c7.2-.7,14.2-1.59,21.23-2,11.59-.71,23.25-.73,34.81-1.76,14.3-1.28,28.5-3.94,42.81-4.85,27.51-1.77,55.08-2.75,82.62-4a135.5,135.5,0,0,1,14.8-.31c34.49,2.19,65.92-8.63,96.62-22.57a24.6,24.6,0,0,0,3.91-2.77c-3.72-1.34-7-1.21-10.31-1.37-8.74-.42-18,.72-26.09-1.79-20.74-6.41-41.95-8.61-63.23-7.77-26.86,1.06-53.64,4.15-80.44,6.6-19.44,1.78-39.12,3.08-57.08,11.7-18.81,9-37.3,18.73-55.9,28.19A28.29,28.29,0,0,0,620,422.12Zm41.49-77.27c1-3.15,1.62-5.24,2.26-7.35,11.3-37.37,15.88-76,21.66-114.46,6.15-40.89,12.81-81.65,24.25-121.47,1.71-6,3.7-11.83,5.55-17.75a16.62,16.62,0,0,0-6.45,6.06c-10.48,17.78-21.28,35.4-31.08,53.55-10.7,19.82-16.17,41.33-17.86,63.79-1.82,24.21-3.87,48.39-5.44,72.61-.88,13.42-1.09,26.88-1.4,40.34-.27,11.6-.21,23.22-.39,34.83,0,2.43-.45,4.85-.7,7.28l1.18.29,6-22.86C660.27,342.21,660.65,343,661.51,344.85Zm19.9,16.66,7.8-1.13c19.55-2.91,39-7.83,58.65-8.23,26.86-.56,53.84,1.65,80.66,3.86,35.51,2.92,68.69-4.41,100.4-19.89a45.11,45.11,0,0,0,5.56-3.79c-.2-.94-.41-1.88-.61-2.81l-101.51-1.8c-.22,0-.44,0-.67.07-20.34,2.09-40.66,4.49-61,6.2C739.06,336.63,710,347.66,681.41,361.51ZM835.88,104.18l-2.77-1.55c-5.79,6.48-12.17,12.54-17.28,19.52-16,21.85-24.68,47-33.58,72.36-7.39,21-3.55,43.83-12.82,64.29-3.29,7.26-5,15.22-7.41,22.88-.95,3-1.73,6.11-2.59,9.17l2.84,1Zm75.5,57.7c-1.72-.24-2.2-.46-2.56-.32-1.68.62-3.33,1.31-5,2-19,8.21-36.41,19.08-50.65,33.9-23,23.94-44.92,48.92-67.26,73.5-.72.79-1,2-1.94,3.71C833,243.85,878,210,911.38,161.88ZM807.22,295.24c46.26,6,91.67,3.29,137.3-13.25-29.62-11.18-126.94-2.8-158.07,13.45,4.9.2,10.86,1.38,14.38-1,5.09-3.46,9.28-1.95,14.07-.95Z" transform="translate(-112.37 -64.82)"/><path class="cls-1" d="M774.85,105.34c4.9-1.32,2.52,1.91,2,3.45-3.57,9.9-7.44,19.69-10.88,29.63-1.88,5.42-3.12,11.07-5.55,16.36,1.19-16.29,8.49-30.94,12.89-46.36C773.8,107.39,774.32,106.36,774.85,105.34Z" transform="translate(-112.37 -64.82)"/><path class="cls-1" d="M248.05,521.75q5.17-25.85,10.36-51.71l2.54.53q-5.38,25.92-10.79,51.86Z" transform="translate(-112.37 -64.82)"/><path class="cls-1" d="M231.92,727.8c-1.52-18.42-4.37-37,1.32-55.23-.38,6-1.07,12.08-1.09,18.12,0,9.13.51,18.25.6,27.38C232.78,721.31,232.21,724.56,231.92,727.8Z" transform="translate(-112.37 -64.82)"/><path class="cls-1" d="M240.76,580.88q-1.55,17.67-3.1,35.33l-2.3-.22q1.74-17.54,3.47-35.06Z" transform="translate(-112.37 -64.82)"/><path class="cls-1" d="M269.13,439.78l6.51-22.72,1.93.53-6.18,22.94Z" transform="translate(-112.37 -64.82)"/><path class="cls-1" d="M540.48,686c-12.62.75-24.87,6.19-37.85,2.08l37.6-3.86Z" transform="translate(-112.37 -64.82)"/><path class="cls-1" d="M685.12,661.27,649,671.58l-.57-2.09,36.09-10.28C684.69,659.9,684.9,660.58,685.12,661.27Z" transform="translate(-112.37 -64.82)"/><path class="cls-1" d="M492.52,688l-35,4.53C463.1,688.11,484,685.25,492.52,688Z" transform="translate(-112.37 -64.82)"/><path class="cls-1" d="M596.26,679.49,578,684.85c-.18-.6-.37-1.2-.56-1.8l18.24-5.71C595.84,678.06,596.05,678.78,596.26,679.49Z" transform="translate(-112.37 -64.82)"/><path class="cls-1" d="M453.75,252.48q-7,33-14,65.89l-2.91-.63q7.44-32.85,14.9-65.68Z" transform="translate(-112.37 -64.82)"/><path class="cls-1" d="M421.08,418l-5.55,61.85-2.25-.2q2.73-30.93,5.47-61.86Z" transform="translate(-112.37 -64.82)"/><path class="cls-1" d="M411.13,552.9l-7,39.51-3.21-.56,7.87-39.35Z" transform="translate(-112.37 -64.82)"/><path class="cls-1" d="M420.12,403.34q4.08-20.08,8.17-40.17l2.73.58q-4.35,20-8.71,40Z" transform="translate(-112.37 -64.82)"/><path class="cls-1" d="M640.19,575.12c26.24-11.23,53.23-2.55,78.78-8.71l.33,2.53c-6.35,1-12.77,3.23-19,2.83a219.42,219.42,0,0,0-57,3.64A15.83,15.83,0,0,1,640.19,575.12Z" transform="translate(-112.37 -64.82)"/><path class="cls-1" d="M743.79,569.26c16.88-9.42,35.18-7,51.79-13.13C792.6,560.58,759.74,568.86,743.79,569.26Z" transform="translate(-112.37 -64.82)"/><path class="cls-1" d="M589.85,575.06l-45.27,4C548.54,574.22,579,570.52,589.85,575.06Z" transform="translate(-112.37 -64.82)"/><path class="cls-1" d="M608,572.23l18-1.08c.06.71.13,1.42.19,2.13l-18.06,1.31Z" transform="translate(-112.37 -64.82)"/><path class="cls-1" d="M527.54,247.66c.07.65.37,1.38.17,1.93-11.29,30.72-14.51,63.1-19.58,95.11.79-33.49,7.83-65.76,17.64-97.49Z" transform="translate(-112.37 -64.82)"/><path class="cls-1" d="M502.61,388.77q-4,22.55-8,45.09l-2.39-.43q4-22.55,8-45.09Z" transform="translate(-112.37 -64.82)"/><path class="cls-1" d="M546.07,177.45l10.63-26.68,2,.8-10.26,27Z" transform="translate(-112.37 -64.82)"/><path class="cls-1" d="M532.93,218.36l7.72-21.67,2.07.74-7.87,21.66Z" transform="translate(-112.37 -64.82)"/><path class="cls-1" d="M696.08,490.87c-21.23,5.88-42.57.81-63.83,3.22,0-1.07,0-2.14,0-3.22Z" transform="translate(-112.37 -64.82)"/><path class="cls-1" d="M819.52,474.58,760.87,488C778.94,477.74,799.24,476.54,819.52,474.58Z" transform="translate(-112.37 -64.82)"/><path class="cls-1" d="M616,491.46,584.05,497c-.13-.74-.25-1.47-.37-2.2l32-5.17C615.76,490.21,615.86,490.83,616,491.46Z" transform="translate(-112.37 -64.82)"/><path class="cls-1" d="M705.3,490.05l25.83-3,.3,2.54-26,3.05C705.39,491.77,705.35,490.91,705.3,490.05Z" transform="translate(-112.37 -64.82)"/><path class="cls-1" d="M856.92,461.81,836,468.71l-.75-2.26,20.87-6.72Z" transform="translate(-112.37 -64.82)"/><path class="cls-1" d="M355.41,353.76c.65-25.07,11.69-47.69,16.15-71.94l2.39.6Z" transform="translate(-112.37 -64.82)"/><path class="cls-1" d="M347.86,389c-4.72,14.68-.91,31-9.85,44.86q3.78-22.56,7.57-45.1Z" transform="translate(-112.37 -64.82)"/><path class="cls-1" d="M330.34,519.78Q331.69,496.89,333,474l2.25.16q-1.56,22.89-3.1,45.77Z" transform="translate(-112.37 -64.82)"/><path class="cls-1" d="M322.22,588.15,325,564.46l1.93.2-2.55,23.49Z" transform="translate(-112.37 -64.82)"/><path class="cls-1" d="M329.32,817.87c21.53-13.48,45.75-19.18,70.71-23.08-3.67,1.4-7.23,3.49-11,4.08a192.91,192.91,0,0,0-54.82,17.42A36.3,36.3,0,0,1,329.32,817.87Z" transform="translate(-112.37 -64.82)"/><path class="cls-1" d="M514.33,766.71l43.86-15.08.85,2.73C544.12,758.43,530.25,766.05,514.33,766.71Z" transform="translate(-112.37 -64.82)"/><path class="cls-1" d="M610.43,231.76q-2.07,20.93-4.16,41.83l-2.77-.28q2.26-20.9,4.52-41.79Z" transform="translate(-112.37 -64.82)"/><path class="cls-1" d="M601.1,309q-2.52,22-5.05,44.09l-2.22-.25,4.89-44.09Z" transform="translate(-112.37 -64.82)"/><path class="cls-1" d="M585,412.79q2.64-18.54,5.26-37.07l2.53.36-5.29,37.17Z" transform="translate(-112.37 -64.82)"/><path class="cls-1" d="M616.73,173.28l12.48-26.81,2,.89-12.05,27.09Z" transform="translate(-112.37 -64.82)"/><path class="cls-1" d="M615.47,197.62q-2,13-4.07,26l-2.61-.45q2.4-12.94,4.79-25.89Z" transform="translate(-112.37 -64.82)"/><path class="cls-1" d="M752.64,395.12c5.48-3.64,42.73-3.68,53.4,0Z" transform="translate(-112.37 -64.82)"/><path class="cls-1" d="M659.58,415.26c23-9,46.94-14.4,71.4-17.54Z" transform="translate(-112.37 -64.82)"/><path class="cls-1" d="M886.14,390l-39.44,3c-.07-.79-.14-1.58-.2-2.36L886,387.76C886.07,388.49,886.11,389.22,886.14,390Z" transform="translate(-112.37 -64.82)"/><path class="cls-1" d="M687.11,165.7c-3.5,13.61-7,27.23-10.42,40.56C674.18,202.07,679.3,178.65,687.11,165.7Z" transform="translate(-112.37 -64.82)"/><path class="cls-1" d="M701.7,111.36q-4.25,14.48-8.5,29l-2.36-.71q4.3-14.46,8.63-28.91Z" transform="translate(-112.37 -64.82)"/><path class="cls-1" d="M662.25,304.45q2-10,4.06-19.91l2,.42-4.24,19.73Z" transform="translate(-112.37 -64.82)"/><path class="cls-1" d="M824,341.86l20-.91c0,.67,0,1.34.07,2H823.79C823.86,342.59,823.93,342.23,824,341.86Z" transform="translate(-112.37 -64.82)"/><path class="cls-1" d="M741.77,226.7q2.09-9.45,4.16-18.91l1.71.37q-1.89,9.54-3.77,19.09Z" transform="translate(-112.37 -64.82)"/><path class="cls-1" d="M842,224.79l-25,22-2-2.27,25.31-21.66C840.91,223.48,841.47,224.13,842,224.79Z" transform="translate(-112.37 -64.82)"/><path class="cls-1" d="M876.73,192.12l-20.46,19.27-1.62-1.76,20.77-18.92Z" transform="translate(-112.37 -64.82)"/></svg>