<svg xmlns="http://www.w3.org/2000/svg" data-name="Layer 1" viewBox="0 0 512 640" x="0px" y="0px" width="20px" height="20px"><title>Beach</title><path d="M78,474a8,8,0,0,0,16,0V419H455v55a8,8,0,0,0,16,0V410.667c0-4.419-3.8-7.667-8.214-7.667H175V220H302.6a8.16,8.16,0,0,0,8-8.185c0-74.014-56.448-135.185-128.554-142.536a126.217,126.217,0,0,0-29.264-.07c-72.106,7.352-128.554,68.6-128.554,142.618a8.149,8.149,0,0,0,8,8.173H159V403H90c-21.907-33-51.88-76.683-53.6-79.475a7.994,7.994,0,0,0-13.769,8.124c1.877,3.128,42.372,62.827,55.372,82ZM175,84.7c3,.136,4.587.328,6.755.576,22.2,3.061,36.035,14,43.767,33.968,8.428,21.759,9.189,52.753,9.24,84.753H175ZM294.354,204H250.762c-.052-33-.755-66.116-10.212-90.532a87.1,87.1,0,0,0-3.581-8.115,130.167,130.167,0,0,1,20.373,16.8A126.2,126.2,0,0,1,294.354,204ZM77.492,122.1a129.809,129.809,0,0,1,20.374-16.749,87.876,87.876,0,0,0-3.581,8.161C84.828,137.931,84.125,171,84.072,204H40.48A126.314,126.314,0,0,1,77.492,122.1Zm22.58,81.9c.051-32,.7-62.994,9.133-84.753,7.731-19.964,21.241-30.814,43.443-33.875,2.178-.249,4.352-.534,6.352-.671V204Z"/><path d="M404.542,168.483a52.36,52.36,0,1,0-52.36-52.36A52.42,52.42,0,0,0,404.542,168.483Zm0-88.72a36.36,36.36,0,1,1-36.36,36.36A36.4,36.4,0,0,1,404.542,79.763Z"/><path d="M449.76,78.905a7.978,7.978,0,0,0,5.657-2.343l9.978-9.978A8,8,0,1,0,454.08,55.271L444.1,65.249a8,8,0,0,0,5.657,13.656Z"/><path d="M353.667,155.684l-9.978,9.977A8,8,0,0,0,355,176.976L364.981,167a8,8,0,0,0-11.314-11.314Z"/><path d="M404,60.86a8,8,0,0,0,8-8V38a8,8,0,0,0-16,0V52.86A8,8,0,0,0,404,60.86Z"/><path d="M396,180.235V195.1a8,8,0,1,0,16,0v-14.86a8,8,0,0,0-16,0Z"/><path d="M353.667,76.562a8,8,0,0,0,11.314-11.313L355,55.271a8,8,0,0,0-11.314,11.313Z"/><path d="M444.1,155.684a8,8,0,0,0,0,11.314l9.978,9.977a8,8,0,0,0,11.313-11.313l-9.977-9.978A8,8,0,0,0,444.1,155.684Z"/><path d="M327.48,125h12.738a8,8,0,0,0,0-16H327.48a8,8,0,0,0,0,16Z"/><path d="M482.453,109H467.592a8,8,0,0,0,0,16h14.861a8,8,0,0,0,0-16Z"/><text x="0" y="527" fill="#000000" font-size="5px" font-weight="bold" font-family="'Helvetica Neue', Helvetica, Arial-Unicode, Arial, Sans-serif">Created by Kiran Shastry</text><text x="0" y="532" fill="#000000" font-size="5px" font-weight="bold" font-family="'Helvetica Neue', Helvetica, Arial-Unicode, Arial, Sans-serif">from the Noun Project</text></svg>