<svg xmlns="http://www.w3.org/2000/svg" width="16.181" height="16.196" viewBox="0 0 16.181 16.196">
  <path id="Icon_weather-day-sunny" data-name="Icon weather-day-sunny" d="M5.244,12.891a.644.644,0,0,1,.19-.472.658.658,0,0,1,.457-.183H7.446a.577.577,0,0,1,.442.19.716.716,0,0,1,.008.929.566.566,0,0,1-.442.19H5.9a.622.622,0,0,1-.457-.19A.634.634,0,0,1,5.244,12.891ZM7.423,18.17a.706.706,0,0,1,.175-.465l1.12-1.089a.586.586,0,0,1,.449-.175.645.645,0,0,1,.457.175.57.57,0,0,1,.183.434.719.719,0,0,1-.183.488L8.543,18.62a.692.692,0,0,1-.937,0A.615.615,0,0,1,7.423,18.17Zm0-10.544A.706.706,0,0,1,7.6,7.162a.732.732,0,0,1,.488-.19.64.64,0,0,1,.449.183l1.089,1.12a.591.591,0,0,1,.183.449.625.625,0,0,1-.64.64.591.591,0,0,1-.449-.183L7.606,8.091A.638.638,0,0,1,7.423,7.626Zm1.943,5.264A3.845,3.845,0,0,1,9.9,10.91a3.979,3.979,0,0,1,1.455-1.455,3.908,3.908,0,0,1,3.52-.213,3.98,3.98,0,0,1,1.265.853A4,4,0,0,1,17.3,12.9a3.853,3.853,0,0,1-.533,1.988,4,4,0,0,1-1.447,1.447,3.974,3.974,0,0,1-3.977,0,4,4,0,0,1-1.447-1.447A4.048,4.048,0,0,1,9.365,12.891Zm1.3,0a2.683,2.683,0,0,0,4.586,1.9,2.594,2.594,0,0,0,.792-1.9,2.568,2.568,0,0,0-.792-1.882,2.61,2.61,0,0,0-1.9-.777,2.576,2.576,0,0,0-1.889.777A2.539,2.539,0,0,0,10.661,12.891Zm2.026,5.927a.6.6,0,0,1,.19-.457.645.645,0,0,1,.457-.183.638.638,0,0,1,.465.183.62.62,0,0,1,.183.457v1.516a.644.644,0,0,1-.19.472.622.622,0,0,1-.457.19.61.61,0,0,1-.457-.19.644.644,0,0,1-.19-.472V18.818Zm0-11.808V5.455A.622.622,0,0,1,12.878,5a.634.634,0,0,1,.465-.2.61.61,0,0,1,.457.19.622.622,0,0,1,.19.457V7.009a.577.577,0,0,1-.19.442.638.638,0,0,1-.457.175.658.658,0,0,1-.457-.175A.6.6,0,0,1,12.687,7.009ZM16.892,17.05a.6.6,0,0,1,.6-.6.645.645,0,0,1,.457.175l1.112,1.089a.663.663,0,0,1,.183.465.615.615,0,0,1-.183.449.678.678,0,0,1-.914,0l-1.082-1.082A.742.742,0,0,1,16.892,17.05Zm0-8.319a.591.591,0,0,1,.175-.449l1.082-1.12a.64.64,0,0,1,.449-.183.6.6,0,0,1,.457.19.622.622,0,0,1,.19.457.643.643,0,0,1-.183.472L17.951,9.188a.672.672,0,0,1-.457.183.553.553,0,0,1-.427-.183A.645.645,0,0,1,16.892,8.731Zm1.722,4.16a.681.681,0,0,1,.183-.472.593.593,0,0,1,.434-.183H20.77a.647.647,0,0,1,.457,1.112.622.622,0,0,1-.457.19H19.231a.566.566,0,0,1-.442-.19A.659.659,0,0,1,18.614,12.891Z" transform="translate(-5.244 -4.8)" fill="#fff"/>
</svg>
