<svg xmlns="http://www.w3.org/2000/svg" width="110.807" height="15.178" viewBox="0 0 110.807 15.178">
  <g id="Group_778" data-name="Group 778" transform="translate(-140.597 -112.529)">
    <path id="Path_153" data-name="Path 153" d="M14.346,52.267H4.421l-1.8,3.364H0L8.116,40.944h2.56L18.793,55.63H16.172Zm-1.092-2.009L9.392,43.146,5.513,50.257Z" transform="translate(140.597 71.831)" fill="#fff"/>
    <path id="Path_154" data-name="Path 154" d="M20.625,53.748l.874-2.053a13.315,13.315,0,0,0,7.566,2.158c3.381,0,5.583-.874,5.583-2.534,0-1.424-1.7-1.7-5.661-2.123-5.032-.542-7.924-1.38-7.924-4.194s2.761-4.272,7.5-4.272a17.744,17.744,0,0,1,7.61,1.608l-.7,2.1a14.625,14.625,0,0,0-6.989-1.651c-3.582,0-5.006.874-5.006,2.14s1.511,1.642,5.469,2.1c4.927.524,8.09,1.11,8.09,4.15s-3.145,4.735-8.046,4.735a16.512,16.512,0,0,1-8.37-2.158Z" transform="translate(143.561 71.8)" fill="#fff"/>
    <path id="Path_155" data-name="Path 155" d="M53.581,52.267H43.656L41.839,55.63H39.218l8.134-14.686h2.56L58.028,55.63H55.407Zm-1.092-2.009-3.862-7.112-3.879,7.112Z" transform="translate(146.233 71.831)" fill="#fff"/>
    <path id="Path_156" data-name="Path 156" d="M77.225,40.944V55.63H74.238L63.352,43.4V55.63H60.958V40.944h3.1l10.8,12.126V40.944Z" transform="translate(149.357 71.831)" fill="#fff"/>
    <path id="Path_157" data-name="Path 157" d="M94.832,52.267H84.907L83.081,55.63H80.46l8.116-14.686h2.56L99.244,55.63H96.623Zm-1.092-2.009-3.862-7.112L86,50.257Z" transform="translate(152.16 71.831)" fill="#fff"/>
  </g>
</svg>
