<svg xmlns="http://www.w3.org/2000/svg" width="21.977" height="16.139" viewBox="0 0 21.977 16.139">
  <g id="Group_327" data-name="Group 327" transform="translate(0.7 0.7)" opacity="0.8">
    <circle id="Ellipse_73" data-name="Ellipse 73" cx="3.056" cy="3.056" r="3.056" transform="translate(12.424 1.438)" fill="none" stroke="#2b303a" stroke-linejoin="round" stroke-width="1.4"/>
    <path id="Path_72" data-name="Path 72" d="M38.169,25.386a5.018,5.018,0,0,1,2.013-.417,5.094,5.094,0,0,1,5.1,5.1.922.922,0,0,1-.92.92H39.668" transform="translate(-24.702 -16.248)" fill="none" stroke="#2b303a" stroke-linecap="round" stroke-linejoin="round" stroke-width="1.4"/>
    <path id="Path_73" data-name="Path 73" d="M14.01,28.5a1.043,1.043,0,0,1-1.043,1.043H1.752A1.043,1.043,0,0,1,.709,28.5a5.575,5.575,0,0,1,1.877-4.091,6.36,6.36,0,0,1,4.271-1.7H7.863a6.376,6.376,0,0,1,4.63,2.056A5.486,5.486,0,0,1,14.01,28.5Z" transform="translate(-0.709 -14.8)" fill="none" stroke="#2b303a" stroke-linejoin="round" stroke-width="1.4"/>
    <path id="Path_74" data-name="Path 74" d="M16.539,4.124A3.415,3.415,0,1,1,13.124.709,3.414,3.414,0,0,1,16.539,4.124Z" transform="translate(-6.474 -0.709)" fill="none" stroke="#2b303a" stroke-linejoin="round" stroke-width="1.4"/>
  </g>
</svg>
