<svg id="Layer_2" data-name="Layer 2" xmlns="http://www.w3.org/2000/svg" width="36.738" height="36.729" viewBox="0 0 36.738 36.729">
  <g id="Layer_1-2" data-name="Layer 1-2">
    <path id="Path_146" data-name="Path 146" d="M61.168,11.62c3.3.306,5.5,1.424,7.95,1.747-1.634,1.511-2.9,3.634-4.464,5.434a8.553,8.553,0,0,1-7.059,2.892c.874,1.031,1.747,2.149,2.717,3.215a1.747,1.747,0,0,0,.874.437,1.677,1.677,0,0,0,.716-.122c2.49-.612,2.7-1.031,1.677-3.346l.874-.655c1.223,1.171,2.071,2.682,3.058,3.669-1.931.393-3.792,1.538-5.836,2.071a7.566,7.566,0,0,1-6.116-.8v3.905c0,.218.052.533.2.612a7.662,7.662,0,0,0,4.368,1.747V29.2h1.415a32.828,32.828,0,0,0,.525,5.847s-8.9-.177-11.306-8.835c0,0-1.179,7.216-11.3,8.911A24.183,24.183,0,0,0,39.9,29.2H41.38v3.171a7.059,7.059,0,0,0,4.368-1.651c.166-.122.157-.55.175-.874V26.07l-.253.2a8.081,8.081,0,0,1-7.155.183,31.836,31.836,0,0,0-4.526-1.564l3.067-3.669.874.612c-.061.192-.1.306-.122.419-.122.673-.489,1.9-.489,1.9a18.793,18.793,0,0,0,3.46,1.179c.087,0,.28-.245.393-.411,0,0,1.642-2.621,2.822-3.1-1-.157-1.957-.271-2.9-.463a7.863,7.863,0,0,1-4.569-2.883c-1.433-1.747-2.726-3.608-4.141-5.137,2.569-.236,5.1-1.45,8.055-1.669,0-2.062.079-4.281,0-6.343,1.983.769,4.22.874,6.116,1.686C47.81,4.368,49.645,2.516,50.737,0c1.048,2.385,3.005,4.22,4.141,7.05,1.9-.8,4.115-.874,5.976-1.642C60.871,5.408,61.168,9.374,61.168,11.62ZM52.432,17.01a29.853,29.853,0,0,0,1.162-4.779l1.87-1.223a10.834,10.834,0,0,1-.542,2.411,16.005,16.005,0,0,1,4.8-1.8,11.183,11.183,0,0,0-.594-3.757c-4.045.384-6.937,2.1-8.361,5.95-2.385-4.237-5.242-6.186-8.509-5.74a15.193,15.193,0,0,0-.463,3.547c1.887.524,3.119,1.424,4.613,1.835a13.166,13.166,0,0,1-.28-2.411l1.581,1.188a24.585,24.585,0,0,0,1.363,4.98c-4-3.765-8.387-4.84-13.8-2.621,1.188,1.293,2.184,2.394,3.206,3.495a.874.874,0,0,0,.76.157,15.818,15.818,0,0,1,3.905-1.223,7.539,7.539,0,0,1-1.372-1.468,3.818,3.818,0,0,1,3.495,2.2c-1.608.349-3,.262-4.534,1.747,2.56,1.328,5.12.716,7.985.769,0,0-4.805,1.835-6,5.425a12.572,12.572,0,0,0,4.534-1.144,10.335,10.335,0,0,0,0,4.849c2.219-1.835,2.621-4.176,3.407-6.474.874,2.036,1.31,4.63,3.608,6.465a24.978,24.978,0,0,0,0-4.849A14.975,14.975,0,0,0,58.7,25.721a10.108,10.108,0,0,0-5.906-5.469c2.8.07,5.356.612,7.915-.769-1.188-1.354-2.962-1.363-4.517-1.791a4.158,4.158,0,0,1,3.626-2.263,4.071,4.071,0,0,1-1.345,1.459,11.227,11.227,0,0,1,3.669,1.258.769.769,0,0,0,.664,0,9.75,9.75,0,0,0,3.119-3.722s-5.53-3.215-13.516,2.586Zm-1.642-5.958c.507-.7,1.223-1.677,1.922-2.665.218-.3.568-.69.507-.961A6.718,6.718,0,0,0,50.789,3.4a6.858,6.858,0,0,0-2.446,4.01.7.7,0,0,0,.07.559c.813,1.127,1.677,2.245,2.35,3.084Z" transform="translate(-32.381)" fill="#fff"/>
    <path id="Path_147" data-name="Path 147" d="M47.282,28.1l1.564,1.5,1.337-1.5.874.874c-1.127.874-2.2,3.713-2.2,3.713a8.965,8.965,0,0,0-2.4-3.827Z" transform="translate(-30.359 4.039)" fill="#fff"/>
  </g>
</svg>
