<svg xmlns="http://www.w3.org/2000/svg" width="295.992" height="620.531" viewBox="0 0 295.992 620.531">
  <g id="vn-01" transform="translate(-270.943 -29.5)">
    <g id="Vietnam" transform="translate(271.443 30)">
      <path id="Path_30" data-name="Path 30" d="M488.123,397.979l.075-.585-.305-.4-.411-.334-.255-.4.45-.527-.2-.6-.4-.646-.136-.642.319-.556,1.675-1.627.591-.8.114-.436-.342-.355-2.413-1.87-.63-.329-.475-.357-.321-.459-.162-.549.06-.616-.27-.66.036-.563.382-.362.75-.068,1.147-.344.667-.2.651-.064,1.1.192.618-.06.444-.454.038-.445-.369-.749-.013-.408.18-.313.57-.436.249-.242.416-.62.221-.79.091-1.36.147-.386.38-.356.236.108.2.2.262-.079.114-.255.3-1.973-.01-.64-.262-.577-.583-.641-1.789-1.363-.477-.53-.27-.743-.087-1.6-.054-.142-.128-.341-.7-.188-1.722.264-.75-.442-.172-.743.021-.982-.108-.828-.549-.285-.29.163h-.231l-.174-.164-.124-.315-.22-.508-.2-.045-.2.15-.234.071-.8-.2-.288.008-.4.3-.252.373-.282.165-.493-.313-2.122-3.858-.516-.459-1.529-.788-.669-.517-.385-.584-.182-.659-.182-1.728-.174-.6-.416-.446-2.207-1.3-.46-.614.056-.868,1.005-2.262.442-.452.5-.112.411.123.37.181.367.062.339-.093,2.784-1.818.717-.28,1.529-.27.581-.282.606-.7,1.1-1.992.589-.515.483-.586-.047-.373-.274-.333-.185-.476.047-.716,0-.079.089-.478-.185-.2-.784.025-2.23.576-1.165.134-1.12-.338-.925-.828-1.488-1.911-1.043-.7-.628-.181-.56-.093-.543-.154-.614-.382-.5-.458-.242-.326-.107-.143-.234-.533-.427-2.241-.344-.538-.769-.568-.742-.374-.106-.033-.585-.185-1.567-.174-1.369.046-.519-.064-.431-.3-.1-.283-.137-.94-.187-.411-.262-.233-.982-.544-.692-.577-.373-.516-.488-1.135-.139.028-.252.139-.267.093-.159-.119v-.237l.093-.179.126-.136.049-.112.17-1.392-.112-1.682-.7-1.088-.956-.039-.86,1.459-.164.7-.45.433-1.082.7-.182.343-.008.322-.075.316-.041.032-.365.282-.4.166-.272.017-.126-.188,0-.454-1.194.193-.891-.692-.622-1.1-.562-1.653-.06-.478.187-2.241-.166-.474-.611-.288-.537-.046-.809-.329-.761-.465-.91-1.014-.365-.894-.224-1.021-.061-11.193,0-.923-.357-.7-1.11,1.062-.927-.283-.691-.122-.775-.288-.68-.344-.357-.295v0l-.1-.4-.193-.389-.678-1.365.031-.188.259-.443.023-.243-.413-.729-1.93-1.813-1.21-2.013-.221-.631.033-.438.326-.669.031-.387-.143-.245-.555-.586-.208-.289-.091-.513.039-.445-.085-.345-.478-.212-.508.026-.208.254-.1.363-.178.35-.583.6-.465.3-.583-.058-.877-.467-6.665-5.76-3.489-4.256h-.006l-.843-.887-2.611-3.415-1.049-.991-1.3-.864-2.091-.925-.489-.4-.37-.672-.506-1.606-.369-.694-.891-1.221-1.036-1.981-1.556-1.441-.444-1.426.477-3.2-.1-.213-.546-1.114v-.007l-.949-.528-.274-.3-.151-.414-.147-.961-.216-.465-.336-.328-.7-.387-.327-.293-.66-1.49-.164-.123-.457-.109-.185-.155.033-.1.091-.163.083-.22-.013-.257-.324-1.147-.244-.379-.614-.5-.8-.33-.856-.056-.724.324-.236.391-.182.936-.164.3-.367.242-.112-.046-.09-.177-.3-.148-.634-.165-.732-.314-.653-.464-.423-.614-.026-.478.259-1.013-.062-.469-.272-.452-.18-.029-.2.137-1.051.115-.419.046-.423-.13-.267-.248-.352-.654-.231-.3-1.948-1.223-.381-.552-.026-.879.251-.56.025-.512-.7-.725-1.262-.928-.93-.9-.434-1.177.211-1.752.611-2.344.527-1.255.583-.765.489-.065.47.155.4-.06.3-.706v-.665l-.265-.357-.873-.6-1.14-1.917-.5-.157-.467.063-.468.13-.5.037-.972-.354-2.012-1.186-.655-.13-.68.186-.788.022-.7-.187-.421-.428-.4-1.057-1.061-.312-2.307.182-.552-.062-1.555-.48-1.642-.235-.468-.173-.311-.271-.468-.714-.211-.231-.4-.146-.776-.063-.406-.12-.6-.416-1.092-1.116-.575-.442-1.347-.737-.473-.438-1.38-2.1-.489-.493-.671-.412-.755-.2-1.246.131-.715-.16-.5-.389-1.153-1.752-.676-.607-.642-.31-.688-.224-.766-.348-.626-.5-.518-.551-.578-.45-.013,0-.8-.2-1.161.345-.352-.358,0-.759-.145-.844-.412-.41-1.608-1.117-4.453-2.012-.825-.2-.842.044-.85.364h-.049l-1.187-.863-1.01-.533-.282-.207-.2-.3-.531-1.013-.638-.081-.73.02-.406-.194.334-.734.532-.412,1.439-.633.617-.467.792-1.215.473-.408.85-.2.91-.48.951-.343.591-.071.126.159.021-.02.311-.6.134-.424.166-.983.259-.457.4-.244.431-.1.348-.186.168-.5-.006-.007-.46-.582-.131-.7-.052-.731-.257-.692-.455-.384-1.254-.761-.465-.611-.789-2.22-.1-.528.232-.675.373-.163.46.133,1.924,1,.763.26.823-.126.319-.26.293-.636.272-.279.2-.213.877-.011,1.687-.462,1.154-.317.529.461,1.4.481.732,1.236,1.87-1.2.727-.189.8.093.468.36.381.528.568.581.336.215,1.015.452,2.276,1.378.68.147.937-.109.349-.149.617-.419.36-.117.344.088.688.4.373-.04.352-.453,1.272-3.4.332-.564.519-.574.63-.459.5-.138.545-.064.761-.234.961-.889.982-.444.794-.594.4-1.343.072-.708-.01-.388-.3-.239-.761-.256-1.186-.076-.208-.236.251-.789.756-.964,2.194-1.314.906-.7.371-.594.075-.367.193-.21.765-.122,1.185.139.531-.081.4-.351.153-.133.149-.587-.07-.523-.126-.519-.075-.79-.113-.374.013-.263.141-.1.549-.11.131-.17-.3-.671-1.544-1.022-.541-.808-.059-.959.221-.458-.039-.321L379.76,165.9l-1.619.084-1.814.609-1.714.351-1.356-.691-.162-.56-.041-.869.062-.871.154-.562.34-.26.332.017.311-.093.272-.581.026-.383-.064-.5-.123-.485-.149-.34-.583-.462-1.524-.6-.647-.468-.92-1.287-.555-.31-5.742.129-1.637-.412-1.272-.816.265-.8,2.3-1.582h0l.85-1.677.991.79,1.049.181,1-.314.879-.7,2.592-3.571.274-1.01.045-.166-.581-.6-2.281-.78-2.069-1-.668-.692-.381-1.348-.543-.6-.82-.093-.917.024-.812-.249-.3-.317-.327-.74-.216-.317-.306-.213-.628-.24-.334-.231-.527-.637-.642-1.319-.478-.653-.3-.255-.358-.249-.4-.2-.362-.118-.38.029-.9.256-.28.014-.141-.216-.419-.886-.234-.335-.3-.189-1.143-.423-.427-.064-.91-.018-.38-.064-.336-.166-.606-.458-.275-.151-1.428.1-1.849,2.18-1.467.247-.468-.016-.406.1-.8.364-2.95.955-.326.207-.591.537-.359.2-.406.033-.812-.114-.445.153-.392.475-.416.8-.337.87-.149.692.087.878.136.414-.162.293-.811.514-.5.176-.344.046-.249.169-.2.563.049.406.406.833.021.348-.232.212-.435.224-.489.166-.365.048-.439-.076-.17-.107-.128-.171-.879-.776-1.551-1.7-.779-.452-2.479-.535,0-.009-.406-.018-.346-.1-.319-.178-.311-.233-.431-.556-.734-1.434-.488-.49-.555-.213-.211.111-.123.271-.282.266-.817.466-.071.02-1.015.286-.219,0-.427-.057-1.118-.377-2.263-1.224-.653-.186-.36.036-.493.149-.29.088-.468-.009-.393-.14-.539-.4-.337-.178-.408-.107-.725-.1-.424-.19-.255-.19-.591-.579-1.146-1.442-.742-1.259-1.248-2.757-.905-1.937-.616-.724-1-.442-.586.08-.317-.138-.19-.295-.187-.387-.275-.754-.377-1.645-.01-.044-.45-.72-.411-.249-.332-.016-.273-.08-.244-.431v-.415l.352-.856.048-.391-.205-.509-.39-.46-.522-.369-.6-.235-.883-.033-.763.08-.316-.182.46-.82.657-.516,1.357-.341.489-.5.145-.725.033-1.97.167-.881,1.323-2.166.049-.494-.555-.111-.779.372-.8.513-.606.291,1.818-3.012.866-.789,1.505-1.885.8-.778.033-.123.015-.123-.015-.125-.033-.12-.4-.945-.133-1.046.038-2.965-.074-.5-.155-.47-.329-.569-.208-.08-.226.17-2.908,1.27-.694.052-.483-.517-.131-.834.123-1.721-.34-1.973-.792-.639-.7.681-.1,3.474-.481,1.384-.9,1.164-1.244.829-.436.1-2.12.038-.159.092-.112-.064-.295-.442-.262-.673-.2-.977-.085-.987.193-2.533-.38-1.766-1.368-3.142-1.236-1.042-1.778-.594-1.518-.8-.468-1.634.038-.168.07-.156.087-.137.114-.125.352-.542-.611-.546-1-.582-.821-.64-.278-.488-.394-1.074-.265-.459-.375-.356-1.258-.763-2.873-2.829-2.415-1.23-.773-.737-.257-.868-.576-.56-.694-.489-.583-.652-.062-.266.133-.513v-.233l-.131-.19-.348-.264-.112-.155-.4-1.37-.239-.43-.272-.6.408-.578.73-.442.7-.193.883.193.681.373.581.078.532-.679.213-.742.236-1.465.4-.794,4.987-5.217.3-.577-.075-.085-.155-.359-.236-.29-.375-.247-.283-.317-.016-.488.275-.326.419-.04.46.026.414-.122.493-.562.319-.712.416-1.537v-.006l.686-.864,1.005-.148,1.066.357.86.662.422.836.1.789.275.521.906.038.3-.2.185-.328.234-.293.421-.1.18.153.6.69.255.223.794.288,1.6.288.825.342,2.374,1.965.776.326,1.691.395.74.391.535.629.319.73.247.779,1.38,2.742.357.439.681.348,1.482.413,1.306.96.8.317.807.007.642-.451.162-.707-.17-.7-.026-.59.566-.39.647-.117.676-.3,2.035-1.42.149-.336-.041-.444-.485-.608-.1-.355.47-1.264,1.071-.844,2.4-1.276.661-.56.305-.429.7-1.943,1.592-2.813.478-.107.906.322.519.3.468.387.408.451.344.5.57.319.091.607-.067.755.079.771.265.611,1.467,2.455,1.028,1.156.493.328.73.117.427-.258,1.282-1.916.188-.406-.04-.342-.215-1.841.1-.42.85-1.057.34-.69.231-.651.3-.531.553-.349,1.729-1,.465.254,2.724,3.345,2.72,2.471.445.523.174.377.8,1.285.267.279.315.15.908,1.037.234.079.643.08.239.11.327.462.572,1.1.336.218.614.155.411.357.344.406.581-.355.456-.516.08-.566-.072-.624v-.683l.18-.655.535-1.286.164-.664.259-2.642.4-1.224.84-1.13.373-.373.478-.881.295-.376.543-.387.489-.133,1.169-.1,3.412-1.226,1.12.028-.324.852-.174.929.038.935.286.864.508.6,2.2,1.029.835.528.6.267.614-.1.258-.17,3.493-2.289.788-.857,2.6-2.155.717-.8.093-.14.355.072.013.2-.059.237.137.194.234.161.16.173.19.148.369.087.234-.094.408-.486.216-.122.771.1,1.352.428.821-.054.7-.264.585-.384.516-.523,1.391-1.986.454-.5,1.981-1.215.174-.437-.038-.877-1.167-5.721.543-.463.981-.156,1.018-.865.17-.606.049-.7.133-.614.434-.357.558.06,1.053.636.564.065.406-.242,1.454-1.332,1.374-.718,1.241-.873.578-.246,3.263-.929.141-.129.075-.182.1-.169.211-.092.112.047.3.227.126.049.306.073.234.146.286.1.454-.079.668-.5L396,33.7l.152-.827.332-.836.385-.454,1.385-1.249L398.8,30l.742.021.318.5.172.769.317.82.473.6.626.552.645.439.553.265.386.024.3-.112.313-.044.458.231.2.236.527.986L405.648,37l.381.5,1.737,1.168.168.2.279.333.263.84.016,1.625,0,.215.177.812.476.688.578.243,2.842.12,1.128.346,1.018-.026.416.268.761.794.478.234.466.15.46.223.445.445v.007l.008.007h0l.53.829,2.259,2.565.73.548.336-.135.174-.318.141-.35.236-.225.427-.065.684.186.382.048,1.269-.145.657-.205.512-.327.642-1.339.371-.208,3.142-.247,2.187.263,1.521.391,1.3.828.827,1.508.164,1.6.278.509.858.4.85.157.794,0,.773-.117,5.709-1.53.632-.355.17-.98.393-.254.537.162.632.273,2.007.507.591.371.4.626.3.692.45.528.9.142.286-.164.323-.592.357-.131.427.107.278.263.431.577,1.194.963.647,1.131-.026.108.591.02.937-.088.858.088.357.558-.29.532-1.325.779-.475.429-.283.764-.162,1.364-.359.788-.863,1.355-.3.662-.7,2.234-.493.449-.864.014-.653-.492-.423-.748-.477-.55-.788.1-.435.542-.336.9-.918,4.432-.18.359-.444.651-.136.477v.455l.245,1.056.06.256.08,1.605.211.67.543.569.887.32,1.6.078.661.578.236.553.933,3.18-.1.428-.35.338-.488.638.108.64.252.48.3.429.209.5.006.313-.124.7.013.353.106.233.35.429.085.179.033,1.143-.205,1.013-.789,2.041,0,.366.059.41.141.375.234.264.628.026.607-.462,1.308-1.475.257-.059.553.193.232.17.313.452.2.193.823.434.7.1,1.662-.042.972.24.485.465.342.606.539.672.864.467.7-.132.643-.389.7-.295.83.021.7.342.435.628.038.894-.373.722-.574.637-.417.693.079.889.553.592.835.279,1.69.357,1.163.727,3.109,2.76,1.6.423,1.272-.428,1.154-.137,1.225,1.278,1.061,3.135.157.153.585.568,1.393-.843,1.086-1.144.645-.288.8.22.445.667.159,1.517.512.25.7.279.406.111.342-.011.337-.241.332-.687.262-.232.719-.094,1.68.225h.817l2.353-.52.738-.305,1.572-1.175.617-.241.614-.029.712.1,1.354.352.832.366.3.408.185.535.442.74.491.48,1.14.854,1.4,1.518.53.149L507,111.6l-.852.426-.858.9-.757.533-.548-.68.009-.424.2-.282.232-.2.108-.153-.046-.332-.1-.232-.1-.173-.049-.135-.14-.623-.363-.388-.519-.218-.594-.109.075.315-.046.182-.3.384h-.267l-.225-.716-.274.4-.324,1.2-.48.205-.283-.285-.117-.606.03-.763h-.244l-.3.268v.295l.177.185.062.133.065.567h-.3l-.244-.59-.274.321-.154-.868-.513-.209-.666.178-.587.285v.295l.646-.006.483.165.329.372.16.617-.548-.239.088.281.115.614.1.28-.431-.007-.324.123-.232.215-.131.259.267.266-.669,1.178-.731-.026-.356.04-.163.147-.235.368-.538.023-.559-.21-.306-.342h-.3l-.12.189-.127.132v.268l.264.521-.242.318-.529.053-.61-.275.092.236,0,.1.023.073.182.149v.322l-.329.18-.117.177.108.22.34.305-.264.039-.578.252.16.077.055-.007.02.032.062.193-.186-.087-.64-.207-.186,1.077-.173.5-.346.21-.676-.037-.46-.142-.329-.279-.287-.452-.173-.5-.088-.465-.209-.345-.515-.137-.013.182.159.426.115.482-.147.355v.32l.493.242-.434.137-.888.016-.816-.126h-.094l-.386-.1-.421-.24-.2-.39-.235-.093-1.43-.352-.251.589.281.279,1.086.631v.268l-.784.346-1.283-.036-.969.3v.293l.235.328-.1.242-.242.247-.17.36-.069,1.557-.182.5.31.252.346.172.359.028.352-.157-.244,1.929-.274,1.017-.6.6.228.371.046.241-.157.149-.369.094.157.64.085.64.16.52.4.28v.27l-.665.531-.4.226-.559.177-.914.024-.75.028-.513.211-.525-.2-.849.053-.849.208-.519.257.205.087.131.086.17.068.294.026v.294l-.653.17-.862.968.147.647-.607.039-.44.137-.4.049-.471-.224v.294l-.617-.6-1.959-.283-.757-.314v-.266l1.169-1.528,2.164-1.434v-.29l-.529.037-.519.107-.469.188-.395.237-.18.28-.059.3-.118.25-.349.1-.159-.14.052-.31.147-.317.1-.168-.177-.112-.016-.034-.081-.123-.324.72-.363.333-.225-.194.088-.858h-.274l.02.465-.039.4-.094.332-.16.267.03-.614-.092-.477-.267-.3-.493-.071v.27l.14.13.221.29.186.19-.127.016-.421-.016.548.587-.568-.006-.382-.194-.715-.68-.094.591,1.019.86.193.6-.356.631-.633.283-.757.049-.741-.056-.669-.131-.6-.22-.51-.273-.411-.283-.976-.9-.451-.168-.239.477-.157-.24-.134-.064-.258.036,1.166,1.363.5.4.846.435.228.149.163.287.085.353.166.325.431.21v.291l-1.038-.023-.623-.164-.412-.437-.395-.842h-.294l.049.384.117.321.157.262.225.207-.8,1.185-.324-.287-.306-.885-.761-.6.138-.221-.049-.063-.088-.3h-.274l-.819.24-.914-.451-.431-.638.656-.321.725-.047.4-.148.15-.281-.042-.43-.271-.2-.418-.2-.15-.29.542-.491-.262-.278-.3-.213-.352-.117h-.431l.088.149.1.32.088.141-.924-.084-.653-.4-.614-.227-.823.416v.293h.3v.324l-1.5-.628-.869-.189-.665.2.346.093.078.021,1.214.5v.264l-.267-.094-.823-.17v.264l.391.394.143.454.078.468.209.444.418.259,1.012.049.875.4.5-.006.363.163.147.761-.085.555-.379.566-.111.5h-.248l-.823-.88-.715.891.3.515.777.4.706.538.34.992-.15.919-.506.4-.754-.552.274.765.555.871.688.794.676.525.244-.319.411.68.686,2.272-.833-.631-.363-.379-.147-.294-.216-.235-.46.178-.431.314-.138.171-.352.06-.284.122-.346.1-.516.007-1.146-.321-.519.028v.293l1,.421.617.419.01.511-.81.7-.532.3-.626.242-.663.117-.665-.073-.346-.244-.568-.841-.457-.351.235.65.039.06.232.356.6.691.205.158.186-.009.127.094.049.46-.039.248-.108.234-.138.181-.666.256-.891.825-2.566,1.037.705.4.582-.033,1.175-.632v.266l-.49.688.287.607.386.629-.182.762-.248.048-1.136.407-.117.1-.223.138-.287.327-.264.394-.186.338h.248l.536-.382.947-.377.9-.118.4.413-.147,1.86-.258.981-.444.571-.2-.411-.065-.2.013.164-.042.1-.094.041-.15-.02.725.726.085.374.16.523.069.671.119.813.165,1.192-.438.481-.886-.956-.386-.532-.522-.435-.614-.185-.692.223h-.255l.2.33.078.132.324.128.3-.171.17-.421.953.718.17.211.131.376.413.712.241.616-.109.628-.616.313-.531-.061-.47.157-.977.229-1.275.08-.519.135-2.615.317v-.317h.274v-.266l-.287.03-.182.053-.379.185v.317l.29.3-.274.232-.839.343-.278.31-.519,1.147-1.4,1.768-.875.6-.98,1.425-.927.567-.973,1.145-.6.359.375-.949.173-.219-.3-.317-.294.6-.476,1.273-.324.481-.607.352-1.479.387-.679.427-.228-.639.124-.68.255-.747.147-.848h-.3l-.124.685-.607,1.852-.216.379-.587-.149-.646-.375-.548-.476-.287-.459h-.271l-.216.561-.46.537-1.762,1.629-.352.419-.244.646v.406l.284.667.01.407-.842,1.166-.147.633.007,1.2-.138.5-.124-.162-.421-.422-.255.446-.571.407-1.093.6.251.319.532-.254,1.146-.122.536-.236-.221.563-.718.98-.154.664-.255.293-.568-.034-.568.045-.255.559-.186.7-.9,1.426-.3.678-.075.665-.007,1.178-.2.483-.059-.955-.548-.128-.522.407.036.676.16-.3.29-.357.1-.246.205.388.1.419.023.455.039.2.173.021.013,1.586-.451,3.231.186,1.6-.568-.315-.548,1.161-.548-.265v.265l.454.379.173.481.2,1.2.734,1.42.108.614-.842-.582.1.415.177.481.294-.108.2.108-.081.827-.1.249-.033.086-.317.211-.359.021-.3.083L418,207.872l-.513.028-.552-.081-.094.226-.49,2.62-.055,1.544.29,1.077-1.015.5-.391.26-.258.4-1.093-.358-.982,1.026-.761,1.566-.425,1.268-.039.554.216.391.1.359.046.564.3,1.366.205.53.541.725.868.754.986.6.888.264v.264l-.552.6-.166-.376-.235-.278-.32-.165-.395-.047.431.987.117.2.264.083.7-.069.3.117.839.932.441.647.225.6-.6,1.747.177.275.362.351.062.8-.117.877-.159.57.773-.372-.007-.995-.124-2.564-.094-.143.764.5.251,1.208.046,1.23.173.56.274.467.96,3.028L422.3,238.6l1.446,1.6,1.371.087.108.788.267.838.359.754.382.535.93.706.3.293,1.511,1.954,2.1,1.784.48.612.081.535-.751.176.395.3.676-.139.868-.294.963-.159.617.248,2.105,1.641.278.158.869.324.347.227,1.123,1.467,1.341,1.019.552.528.32.761h-.294l-.391-.252-.515.11-.464.333-.248.408.522.264.177-.132.147-.06.519-.072-.235.5.078.4.412.824.01-.522.117-.5.186-.422.228-.289.424-.217.262.091.274.153.437-.028.34-.24.757-.936.5.2-.059.432-.44.8.216.9.451.882L447.94,262l.248.312v.26l-.829.538-.79.64-.4.53-.329.536-.441.353-.764-.007v.315l.441.1.159.271-.062.382-.264.423.359.774.356,1.214.375,2.156.2.472.812.8.108.309-.343.34-.441-.039-1.194-.525-.529-.987-.392-.225-.607-.094-1.449-.77-2.723-.279-.587-.267-.274.259.575.414.934.371.969.264,1.351.161,1.949.516v.313h-.274l-.793-.329-.784.52-.138.858,1.166.675-.228-.507-.111-.184-.209-.17.9-.411,1.3.181,1.3.514.888.576.421.542.969,1.785,1.077,1.24,1.958,3.339.451,1.349.347.683.154.063.793.637.039.161.177.112.509.746,3.515,3.951,7.329,5.467,2.441,1.813,4.185,3.1.617,1.2-.239,1.729.454.365L474.735,305l.568.341.127.294-.127.208-.285.134-.283.189-.127.353-.239.176-1.43.812v.287l1.022,0,.47-.08.451-.211.049-.194-.059-.291-.019-.258.725-.53.359-.124.278.277.239.382.209.193.591.319,5.19,4.47,1.322.979,3.457,2.555,4.286,3.908,1.228.354v.312l-1.573-.45-4.909-2.622L485.04,317l3.066,1.74.969.245.441.165.362.583.425.112.467-.07.324-.232.294.446.382.305.969.419v.312l-.431-.221-.117-.091h-.281l-.085.141-.065.137-.1.32.587.024.548-.061,1.058-.249-.244.266-.177.282-.115.327-.032.4.147-.042.29.39.219.472-.088.194h.391l.205-.172.147-.266.2-.288.418-.229.242.239.163.412.17.306,1.528,1.045.372.383.92,1.486.731.5.868,1.179.784.324-.092.123-.216.11-.264.022-.258-.119-.251-.194-.294-.179-.414-.08-.085.34.51,2.361.205.4.474.349.966.55h.274l.363-.255.343.08.255.306.131.438.369-.255.205.255,1.468-1.143.177-.279-.264-1.31-.039-.41.61-.151,1.815,1.34.865.24.343-.257.186-.384.235-.349.479-.153.033.271.389,1.442.333.717,1.313,2.161-1.146-.865-.559-.2-.239.615.317.476.722.294.75.087.428-.143h.274l.728.327,1,.229,1.1.094,1.028-.081-.17.215-.437.547-1.394,1.154-.49.938.023,1.212.686.653.885.516.623.809.624-.618.317-.2.294.078.336,1.446.076.123-.212.63-.414.593-.513.484-.506.316.754-.24.734-.413.61-.163.366.53-.392-2.143-.29-.577-.042-.616.274-.759-.016-.607-.9-.169v-.311l.317-.234.235-.267.163-.3.108-.336.294.13.058.1.03-.014.163-.211h.274l.352.357.47.374.571.293.676.117.033-.2.251-.389.278-.271.134.159.075.156.474.545-.451.389-.441.265-.343.3-.138.494-.372-.3-1.019.215-.552-.224-.29,1.52.271,1.646.555,1.5.127.234.457.852.49.6,2.115,1.66.627.3.559.412.32.731-.437.082-.327.2-.078.2.294.1.235-.141.281-.28.294-.213.29.064.2.56.372,2.572,1.254,2.447,6.552,9.072,1.107.64,1.491-.163-.359,1.181-.271.281-.46-.583-.47.148-.607.274-.339.49.32.793.947.7.64-.376.9-1.774h.248l.223.854.053,1.031.223.31.96.823.216.274.189.168.725.447.177.111.281.295.065.488-.052.494.013.5.248.485-.147.213-.055.129-.072.25h.274l.058-.235.235-.617.281.049.326.015.764-.064v-.285l-1.005-.154-.307-.74.281-.87.757-.534v-.285l-.242-.121-.111-.121-.223-.352.313.157.271.07.244-.049.267-.178.209.63.255,1.645.258.335.313.153.97.776.216.325-.072,1.54.223.538,1.025.944.49.295.313.1.536.044.248.111-.324.555-.428.4-.529.211-.66-.032v.307l.4-.038.251.047.131.186.058.372-.575-.311-.182.472-.124,1.217-.186.609-.646-.275-.538.04-.228.3.294.5h.248l.326-.149.327.108.209.338.01.554h.225l.02-.345.058-.257.189-.511.37,3.691.94,3.25,2.526,5.844-.807.089.189.248.891.359.173.369.81,1.221.262.264,1.5,1.984.212.587.359,1.986-.336-.162-.244-.255-.166-.337.036.545.179,2.74.212.427.046.283-.085.165-.379-.017-.225.438-.264.2-.138.276.242.538.262-.819.036-.335,1.351,3.725.705.966.179.571-.042,2.245.081.578.212.687.529,1.176,1.273,1.4.368.559.161.569.264,1.716-.412.641.575,1.424,1.355,2.2-.754-.093-.3-.39-.2-.508-.412-.447-.924-.177-.075.641.46.839,1.244.692.414.645,1.093,2.951.549,4.626.352.578,1.061.864.232.39-.278,3.246.14,1.591-.329.151h-1.042l-.1-.442.232-2.4-.548-2.044-.323-.7-.5.461-.115.42-.159,1.555-.414.775-.046.293.46-.2.294.958.265.333.515.094-.447.491-.5.387-.366.516-.059.887.483.929.009.042.078.3v1.14l.1.815.248.88.385.706.506.29.03.181.48.373.532.307.189-.017.138.384-.016.272-.216.153-.454.037v.282l.177.173.062.126.059.544-.343-.358-.891-1.569-.421-1.014-1.077-1.249-.3-.622h-.294l-.042.667.219.294.343.171.323.3.2.449.163.819.163.424.522.474.366.21-.042.246-.157.2-.14-.029.278.443.839,1.018h.3l.154-.226.15-.116.5-.221-.138.4-.343.478-.071.363.131.53.34.341.444.076.457-.245.2.423-.336.552.134.461-.389.766-.258.352-.447.287-.329-.439-.869-.171-.173-.389.2-.283.421-.177.385-.257.092-.533-.242-.28-1.279-.873-.385.026-.313.145-.265.348-.255.634.216.337-.1.322-.02.342.428.406-.31.295-.138.413-.078.7.688.348.683.944.548.373.441-.426.333-.065.324.491.058.466-.127.312-.306.149-.451-.032v.253l.2.186.1.236.033.3-.036.4-.2-.149-.451-.235-.2-.155-.186.363-.088.025-.3.151.548,1.413.356.589.509.555-.059-1.29.14-.5.448-.206v-.257l-.177-.317.03-.221.17-.025.251.257.157.357.078.385.039.846-.088.313-.46.937.009.412.264.854-.1.669-.193.633-.111.647.128.724.329.56.391.517.242.548-.12.367.513.332.333.343.829,1.5,1.065,1.2.789,1.277,1.681,1.963.271.442.092.644-.039.77-.136.693-.189.422-.182.08-.711.208-.2-.01-.1-.288.209-.194.287-.157.15-.176.092-.169.131-.172-.042-.142-.432-.079-.842.562-.127.212-.248.642-.177.244-.329.135-.35.021-.078.018-.277.063-.356.321.267.34.039.493-.032.576.023.583,1.785,3.49.621.7.607.018.727.552.118.162-.1.32-.235.112-.274.073-.239.211-.1.613.138,1.68-.042.514-.444.252-.414-.464-.509-1.216-.157-.2-.189-.1-.15-.2-.065-.445.124-.077.7-.647V482.7l-.826-1.431-.075.39-.225.2-.346.05-.448-.079.157.366.055.348-.055.35-.157.366-.235-.416-.274-.293-.372-.157h-.49l.725-1.036.1-.215.173-.12.375-.143.375-.227.173-.376-.14-.654-.7-.934-.255-.506v-1.25l-.147-.181-.444.1-.138.255-.052.325-.189.314-1.381.914-.391.365-.989,1.222-.568.543-.529.227-.346.267-1.15,1.672-.013.391.138,1.6-.3.279.036.63.143.665v.39l.115.041h.1l.055.05-.016.19h.294l.138-.42.069-.478.17-.381.448-.125v-.252h-.274v-.31l.676.235-.078.556-.372.68-.225.618.2.742.49.525,1.965,1.3.209.343-.405.846.032.411.17.337.219.14.591.213.722.495.372.568-.454.435.3.281-.3.278-.487-.571-.274.376-.264.692-.47.371-.6-.2-.408-.484-.532-1.019-1.743-1.955-1.221-.771-1.146.176.2.241.219.445.134.182-.414-.18-.134-.1h-.274l.2.553.633.678.262.451.777-.139.411.641.157.984.03.9.117.348.285.428.324.36.513.341.007.363-.235.226-.463-.217h-.251l-.154.271-.391,1.1-.9-.4-.219-.161.221.358.366.3.787.484-.255.624.167.481.346.418.287.437-1.054-.293-.412.091-.157.483.265-.254-.013-.026.552.289.212.319.062.542.075.281-.016.137.062.168.3.369.206.481-.167.362-.46.444L555.9,505l.157,1.706.267.718,1.15,2.183.366.436,1.143.793v.257l-.134.724v.139l-.685.56-.02.679.2.61.4.453.538.217v.3l-.656.264-.66-.037-.555-.3-.343-.512-.138.085-.294.106-.14.088-.329-1.238.244-2.985-.46-1.4h.294l-.911-2.423-.385-1.758-.379-.481-.538.716.509.961.186.158.059.15-.209,1.148.219.418.94.871.216.657-.12,1.187-.379,1.168-.679,1.084-1.016.926-.773.125-.457,1.331.232,1.376,1.274.246.2-.375.588-.812.6-.674.281.055-.159.585-.274.52-.049.558.483.7-.042.889-.009.169,1.576,2-.431.88-.3-.305-.281.309-.352.836-.711.89-.1.357-.02.406-.161.607-.232.28-.729.623-.157.332-.1.465-.232.446-.493.649h-.274l-.479-.412-.588-.032-.676.052-.748-.165-.457-.524-.3-1.422-.186-.294-.93.233.059.512.46.519.287.251-.082.564-.147.556-.026.6.255.683-.846.023-.274-.023.617,1.039.02,1.769-.363,2.781.127,1.583-.177.479-.5.5-1,.816-.587.366-.578.189-.734-.044-1.753-.795-.633-.133-.711,0-.725.132-.672.288-1.341.942-.509.5-.363.513-.333.742-.49,2.073-.3.712-.349.333-.476.1h-.679l-.4-.1-.852-.4-.519-.065-.4.1-.812.356-.431.108h-1.518l-.232.128-.49.555-1.13.374-.692.594-.548.732-.346.661-.391,1.661-.385.444-1.015.151-.317.114-1.426.725-.421.077-.672.033-.3.143-.242.533L521.4,551.9l-.2.411-.793.092-.392.3-.617,1.286h-.255l-.336-1.247-1.07-.345-4.958.985-1.146.389-.479.66-.216.407-.94.982-.216.563-.127.493-.568,1.152-.3,1.68-1.488,3h-.274l-.434-.263-1.779-.527-.676-.1-.852.046-.637.122L500.3,562.99l-1.672,1.411-.558.309-1.486.5-2.608,1.394-.872.126-.93.328-1.4.779-.239.133-.405.327-1.054,1.062-.205.434-.343.516-.768.46-2.563,1.155-.722.2-1.8.229-1.59.506-.435-.127-.326.453-1.178,1.09-.989,1.518-.706-.016-1.528-.925-1.047-.148.193-.362.326-.13.343-.088.235-.254-.023-.362-.2-.37-.262-.29-.2-.118-.193-.141-.79-.833-.189.04H473.7l-.46-.058-.306-.119v.581h-.251l-.513-.554-.8-.4-.842-.068-.63.438h-.251l.114-.356.023-.224-.138-.536-.375.805-.29.353-.454.234-.228-.777-.023-.337-.587.3-.3.226-.232.315H466.9l.117-.644.391-.328.4-.163.072-.03.389-.229.284-.445.058-.4-.092-2.922-.117-.259-.529-.568-.177-.414.131.1.441.181-.013-.172-.065-.858-.421-.668-1.166-1.09-.177.6.414.457.568.381.287.367-.352,1.013-.007.545.5.239.411.3-.1.665-.453,1.011.12.3.278.219.223.242-.049.356-.264.064-.372-.208-.48-.415.294-.279-.548-.583v-.254l.2-.356.075-.491-.016-1.129H466.9l-.264,1.146-.03,1.222.313,1.092.78.743-.313.167-.369.2-.891,1.575-.343.312-.258-.205.058-.358.16-.431.039-.421-.173-.428-.189-.189L465.2,570l-.235-.356-.216-.794.02-.731.2-1.388-2.109-1.8-.359-.307-.555.285-.767.393-.8.216-.362-.45-.216-.444-.519-.6-.31-.268-.31-.268-.536-.254-.173.068-.036.015-.79.435-.244.179-.186.453.274.271.4.193.205.224.088.4.46,1.135-.138.468-.205.229-.244.161-.235.254-.235.657-.081.332-.124.5-.3.716-.5.3-1.286.465-.66-.023-.391-.721h-.274l.138.6.131.242.251.268-.441.1-.451.224-.34.312-.307.828-.411.248-.536.2-.5.342.026-.681-.111-.517-.2-.413-.29-.364.078,1.426.2.574.428.231.722-.144.587-.375.454-.536.3-.617h.274l.2.569.092.661.29.464.787-.02.329-.324.626-1.106.421-.244.679.248.428.591.324.7.372.564.519.6.244.6.294,3.519-.186.9-.61.387-.784-.073-2.082-.484-4.244.022-2.931-.572-1.511-.007-.784-.187-.63-.36-.587-.233-.614.2,2.324,1.473,9.65,3.308.216.131.646.576.239.13.212.086.189.193.274.191.418.088.4.023.3.1.179.216.059.369-.078.927-.235.621-2.174,2.283-.649.376-.672-.163.205-.314.042-.376-.078-.383-.17-.342h-.3l-.18.694-.094.164-.522.544-.225.335-.1.35.154.119.281.346.182.365-.182.165-.614.076-.138.189.007.269-.281.4-.1.305-.1.13-.163.04-1.5-.06-.656-.242-.568-.418-.559-.547-.607-.444-2-.834-1.169-.943-1.025-1.245-3.349-5.344-1.15-1.175-1.573-.5.216.235.216.106.205.078,1.2.95.46.54.352,1.559.414.842,3.738,4.9.911.831,3.094,1.473,2.116,1.634,2.259,1.207.633.161.4.362-.124.82-.431.866-.552.5v-.3l.255-.3.055-.373-.094-.381-.216-.31h-.244l-.189,1.429-.8.921-1.065.365-.986-.24-.94-.766-2.363-2.593-.989-.754-3.4-2.051-10.035-10.359-.336-.243-.368-.2-.239-.049-.127.1-.2.156.182.205.385.181.3.189.918,1.01.327.582.274,1.368.372.591.451.521.872.814,1.256.93,1.475,1.091.352.351.248.358.34.676.235.354,2.05,1.949.228.13.787.983,3.483,2.891,1.012,1.13.706,1.311.359,1.613.414.449,1.009.161.48.331.2.762.03.841-.2,2.078-.5,1.395-.78,1.192-1.009.9-.855.524-.5.117-.457-.2-.366-.112-.418.172-.581.381-1.656-.037-.529-.253-1.919-1.481-3.483-1.891-7.446-7.044-3.78-4.746-1.509-1.407-1.155-.858-1.387-.362-1.26-.8-.764-.119.777,1.162,2.556,2.555,6.875,6.87.251.7.15.72.379.819,4.175,6.175.264.583.166.625.117,1.684-.2.516-1.469,1.591.389.4.359.161.271.224.1.581-.147.625-.379.289-1.143.218-5.5,1.691-6.016,2.461-4.345,1.78-8.873,3.314-.986.843-1.762,1.894-1.067.832-.428.536-.177.714-.1.11-.513.134-.2.169-.033.188.062.453-.03.192-2.978,5.7-.756,1.115-.88.99-1.378,1.112-1.688.242-1.312.553-1.189,1.422-1.125,1.855-1,1.05-2.678.733-7.163,2.054-.941-.146-.235-.142-.2-.181-.29-.162-2.51-.391-.95-.354-.225-.128-.108-.449.313-.105.483.174.771-.144,1.971-1.3.428-.259.362-.1.281-.158.157-.426-.2-.406-.418-.213-.17-.188.532-.326.513.03,2.65.525.568-.128.665-.327.561-.446.271-.485-.957.459-1.277.343-1.256.016-.917-.541-.2-.447.177-.228.46-.1.656-.076h.969l.294-.07.676-.485V641.9l-.395-.688-.114-.812.212-.765-2.553,1.131-1.655.411-1-.517-.685-1.372.434-1.552.435-1.426.621-1.861-.125-1.552-.062-2.854.159-3.537.324-2.451.258-5.978.022-2.477.268-4.616.115-1.7.84-7.4.632-2.238.821-2.365,1.871.062,1.225-.167.278-.716.66-.687,2.468-1.844.874-.407.4.305.108.654.96,2.556-.007-.568-.242-1.529v-1.8l-.267-.872-.513-.921-1.806-2.377-1.58-1.509-.787-.462-.793-.1-1.587.391-.934-.044-1.289-.766-.943-1.267-.8-1.371-.826-1.069-1.319-.8-1.341-.194-1.251.37-1.044.922-.138.391.007.357-.1.264-.444.1-.248.176-.17.782-.131.178-1.4-.079-.117.079-.216-.368.081-.264.154-.3-.019-.481-.173-.267-.532-.617-.117-.383v-1.112l-.147-.952-.382-.569-1.116-.857-.166.261-.049.112-.03.182h-.324l-.058-1.115-.4-.786-.888-1.163-.189-.539.117-.1.287.01.333-.235.306-.463.2-.4.019-.387-.225-.421h-.3l-.32.629-.418.5-.529.349-.653.2-.64-.055-.019-.443.108-.672-.179-.509.731.158.568-.093.423-.395,1.673-2.458.334-.644.39-.593.514-.4.63-.141,1.724-.075,3.013.373.954.118,1.982.246,1.8-.076,1.428-.577.968-1.006,1.652-2.532.467-.517.52-.446,3.936-2.008.974-.944-.021-1.326-1.434-2.663-.629-1.534-.137-1.415.259-.644.45-.592.38-.346.169-.155.522-.372.887-.468.234.175.093.535.46.619.57.2,3.906.732,1.771.332.617.4,1.377,1.21.6.211.385-.385,1.194-2.438,1.629-1.9.506-.344.182.093,1.136.317.9.455.324.038,2-.424,3.756-.8.6-.127.912-.422.757-.489.01-.006.933-.564,1.156-.333,1.074.114.673.783.711,1.246,1.364,1.892.286.62.46,1.421.3.584.54.657.709.459.829-.013.373-.408.475-.808.375-.895.06-.666,1.337,1.093.373.441.746.858,1.015.735,1.115.57,1.064.367,2.272.225,1.051.266.894.734-1.033-3.925-.989-1.879-.205-.663.064-.091.049-1.052-.087-.1.228-.417.131-.146.709-.083.854.029.419.014.282-.247-.45-.813-.655-2.342-.465-.7-.717-.553-.7-.11-.617.368-.46.882-.406-.846-.539-.667-1.4-1.2-.6-.679-.979-1.541-.593-.548-2.148-.529-.825-.624-.419-1.131v-.006l-.108-.881-.53-.326-.655-.166-.512-.406-.039-.582.663-3.077.444-1.391.112-.613-.067-.623-.622-2.161.087-1.066-.041-.545-.185-.46-.444-.332-1.068-.2-.489-.265-.407-.683-.11-.185.12-.815.46-.722.527-.576.119-.1.8-.683.684-.14,1.909.707,1.146.06.485-.582.365-.857,1.115-1.175.228-.5.1-.553.033-.568.935-.991,1.837.311,2.086.648,1.663.032,2.767.874.786.426.3.349.576.9.36.295.53.091,2.259-.593.427-.045.4.065.558.193.883.626.509.278.522-.013.369-.622-.018-.047-.341-.9-1.092-1.878-.044-.648.216-.563.329-.544.278-.584.054-.353.025-.776.046-.271.593-.968.1-.1-.226-1.011-1.188-2.235-.325-.94-.056-.164.941-.248.468-.04.519.08.36.263.164.358.216.28.531.033,1.236-.873,1.922.023,3.456.478-.319-.616,2,.455.846-.235.784-1.049.468-1.333.66-.963.912-.553.746-.064.5-.044,3.062.235,1.485-.172,1.488-.581.974-.663,2.741-2.755,1.267-1.575,1.069-.757.481-.447.27-.579,1.186-1.264,2.382-1.177.639-.2,1.939-.608,1.766-.157.948.579,1.2,1.876.771.68.917-.05,1.356-1.846.968-.67,1.035-.429.591-.74.319-.934.2-1.008,1.179-3.35,0-.961,0,0-.282-.535.085-.446.249-.444.219-.524.141-1.245-.075-1.335-1-4.534-.093-1.229.035-1.1-.108-1.077L488.2,475.5l-1.126-1.286-.278-.485-.162-.617-.149-1.247-.452-1.038-.091-.457.07-.446.239-.4.208-.164.1-.223-.013-.268-.1-.3-.626-.462-.1-.589,4.059-9.9.533-1.3,1.285-3.138.143-1.262-.249-4.049-.3-1.507-3.315-6.5-.7-1.012-.92-1.015-.08-.184-.381-.624-.763-.92-.2-.621.015-.433.259-.888.049-.369-.435-1.252.178-.693.219-.469.11-.475-.083-.509-.033-.207-.566-1.214-.038-.379.049-.395-.025-.4-.251-.4-.619-.242-1.5.15-.681-.254-.458-.753.015-.84.134-.858-.085-.812-.445-.712-.38-.395-.17-.486.193-.994,1.357-3.92.2-1.457.006-.389-.114-.416-.352-.8-.089-.371.075-.846.29-.758.819-1.456.114-.378.062-.375.124-.343.319-.3.519-.164.234.179.149.277.259.129.776-.2.506-.422.36-.629.481-1.085.149-.564.038-.295.174-.562.576-.839.207-.467.048-.656-.155-1.232.059-.642.933-2.1.208-1.042ZM435.587,606.658l.509.507,2.243.52.509.377-.052,1.016-.251.722-.578.374-1.038-.02V609.9l.2-.771-.6-.864-.872-.748-.617-.419-.3.254.6.755.676.52.205.3-.784.093-.418-.358-1.374-2.142-1-1.222-.457-.735-.186-.68-.147-.886-.359-.639-.865-1.139.251-.255.092.209.131.126.327.221,1.939,2.779,1.923,1.9Zm20.595-26.377.911.223.35.228.131.537-.255.338-.568.282-.568.108-.255-.184-.34-.513-.777-.334L449.583,580l-1.919-.836.617-.049,1.355.581,1.084.242,4.61.055Zm17.968-7.992,1.228,1.082.343.508-.225-.1-.111-.03-.085-.04-.147-.13h-.274l-.1.506-.29.212-.3.176-.29.817-.366.229-.852.286-.558.513-.842,1.254-.539.487-.538-2.016.225-.75,1.626-.42,1.194-.623.255-.242.03-.421.108-.521.193-.478Zm-9.457,1.032.862.558.447.375.336.458-1.959.476-.8.358-.532.559h-.294v-.744l-.193-.562-.228-.464-.127-.458.108-.743.617-.874.118-.636h-.294v.581l-.343-.956.359-.6.738-.386.833-.281.826.578-.189,1.24-.855,2.081h.3Zm-1.1-3.8-.235.428-.529-.146-.568-.394-.333-.32-.059-.123-.4-.642-.088-.046.088-.365.372-.327.088-.294.154-.843-.134-.387-.568-.318V565.5l.44-.119.519-.064.411.045.069.294.931.621.2.338.177.1.193.078.1.073.03.305-.111.161-.143.1-.072.136.1.449.173.445.032.379-.306.249-.212-.136-.231-.395-.356-.836h-.274l.1.508.369.747Zm97.051-69.108.317.135.235.2.163.237.108.271-.179.158-.437.3-.205.1-.216-.271-.258-.154-.3-.01-.347.154.117.087.052-.007.039.026.069.173-.793-.073-.734-.4-.591-.511-.372-.415v-.281l.267.085.578.1.274.094-.016-.146.016-.441.734.3ZM453.715,642.461l-.94.1.013.446.408.593.244.527-.509-.2-.421.022-.4.112-.46.067-.352.169-.075.4.026.459-.026.361.036.187.069.18-.15.133-.64.055-.2-.178-.626-.823-.127-.248.457-.979,1.084-1.07,1.309-.9,1.113-.491.17.064.138.078.088.14.02.252-.115.025-.4-.025.2.248.039.119Zm-6.6-46.8,1.322,1.351.525.812-.34.361-.587-.348-.969-1.527-1.136-.613-1.851-1.731v-.254l.182.119.64.134,1.73,1.228ZM350.2,576.106l.138.7v4.315l-1.557,3.956-.529,2.243.715,1.088-.294.862.01.492.154.439.131.706-.66-.358-.157-.2-.816-.363-.536-1.8-.545-3.431-1.068-3.059-.8-1.315-1.152-.937-1.532-.777-.516-.521-.32-1.618-.137-.438.212-.119,2.524.367.784-.046.336-.342.088-.193.43-.632.166-.138.356-.163.134-.391.062-.465.131-.4.287-.374.391-.322.464-.037.5.478-.294-.279Zm112.005-3.646-.649-.159-.545-.229-.49-.1-.509.235.225.112h.059l.059-.058.205-.056.617.575.44.847-.03.763-.754.322-.95-.388-.992-.916-.842-1.107-.476-.956-.147-.647-.016-.488.163-1.117-.053-.023-.1-.286-.127-.654.138-.126.672-.107.258-.173.294-1.016-.283-.942-1.077-1.689.914-.01.379.13.359.345.366.6.235.249,1.09.309.5.5.239.631v.59l-.283.261-.186.278-.078.464.094.176.444.656.157.145.412.266.166.561-.3.5-.976.067v.279l.637.03.32.279.414.829v.255Zm8.265-431.376.2.14.117.119.235.3-.474-.084-.287-.287-.359-.776-.143.365.013.314.154.264.274.2v.294l-.529.2h-.395l-.349-.171-.395-.321.2.907,1.224.709.244.754h-.3v-.291h-.251l-.193.741-.356.747v-.932l-.294.108-.118.077-.159.137v-.321l-.251.321-.177-.22-.12-.1v-.265h.846v-.291l-.159-.1-.036-.041-.01-.05-.092-.131h-.251v.319h-.3l-.137-.2-.248-.228-.14-.185h-.294l.18.461.115.151v.291l-.8-.562-.911-1.275-.5-.535-1.159-.737-.447-.6.118-.788.94-.334.274-.18.147-.287-.01-.314.062-.318.372-.28-.3.32.548.568,1.237.187.428.418h.251l.042-.719.411-.148.532.21.408.365v.294l-.127.458.48.32.644.155.375-.053h.274l.154.29.179.247.216.2.274.164-.839-.2-.258-.117v.316Zm-9.636-3.409.219.594,1.446,1.91.2,1.09-.519.283-.7-.143-.35-.19-.2-.7-.8-1.712-.117-1-.216.372-.062.377.078.377.2.365h-.3l-.516-.328-.621-.116-.529-.267-.2-.781.32-1.21.474-1.109,1.571.671.457.548Zm27.489-1.307.969-1.968.147-.7.127.137.062.134.059.314-.239.979-.333.722-1.9,2.831-.244.478-.283.872-.3.309-.536.017.656-1.519.069-.681-.451-.489v-.267l.833-.033.568-.155.421-.354Zm8.815-4.72.519.154,1.394,1.045v.267l-.418-.168-.131-.1h-.248l.2.844-.29.661-.587.494-.715.346.757-1.433.065-.5-.216-.26-.4-.233-.232-.394Zm-8.521,0,.548-.633.235-.143.244.15-.154.567-.621,1.526-.411,1.509-.264.622-.421.535-.568.328-.646.163-.98.1-1.8.465-.686.094v-.267l1.175-.508,1.077-.629.927-.718.7-.781-.108-.478.138-.661.493-1.234.173.119.431.173.115-.383.405-.787v.878Zm3.552-4.121.281-.179.154.057-.01.3-1.44,3.131-.255,1.332-.4,1.074-.81-.124.428-.168.055-.267-.1-.377-.078-.507.127-.427.564-.56.131-.483.065-.963.081-.364.127-.313.147-.211Zm-1.633-4.127.907-.316.121.08-.186.529-.451.52-1.322.916-.411.648h-.323l-.6-.14-.8.872L486.13,128.4l-.444.243-.976.377-.5.287-1.371,1.171-.633-.517.271-.963.587-1.07.329-.85.078-.5.359-1.213.2-1.306.271,0,.294.353.117-.031.042-.364.193-.239.363-.08-.177-.3-.039-.663.069-1.1.1-.524.1-.264.147-.182.154-.067.157-.007.163.039.17.087.412.332.927,1.185.267.19.267.053.205.117.088.375.01.35.039.259.1.2.15.189h.255l.274-.163Zm9.344-6.394.085.1.1.173.046.165-.092.073-.31.06-3.927,1.7.117-.11.46-.575,2.331-1.416.656-.263Zm2.213-1.275,5.2-.589v.268l-1.557,1.02-.614.247-.32-.358h-.251l-.3.163-2.733.957-.525.08.1-.444.182-.492.216.431.058.186.177-.351.235-.259.3-.177-.826-.047-1.015.217v-.265l1.332-.422ZM545.17,568.725l.66.587.287.812-.216.6-.826-.055-.4-.421-.17-.639.14-.6Zm18.085-83.942.31.786.157.492-.193.529-.653-.211-1.466-1.034-.235-.335-.244-.285-.49-.128-.451-.326.333-.562,1.038-.125.911.135.571.165.29.42ZM482.075,139.991l.463.3.131.262-.036.579-.134.075-.2-.274-.255-.14-.324.056-.424-.217-.327-.75-.042-.608.157,0,.486.566Zm.5-2.659.408.138.114.262-.1.171-.115.12v.1l0,.091-.085.1-.536.243-.274.04-.264-.056-.278-.217-.428-.542-.117.084-.205-.067-.118-.273.053-.213.216-.091.274.094.212.1.166-.05.421-.056Zm17.792-5.889.66-.457.568.1-.14.574-.336.346-.683.979-.389.036-.046-.755Z" transform="translate(-271.443 -30)" fill="none" stroke="#ac8053" stroke-linecap="round" stroke-linejoin="round" stroke-width="1"/>
    </g>
  </g>
</svg>
