<?xml version="1.0" standalone="no"?>
<!DOCTYPE svg PUBLIC "-//W3C//DTD SVG 20010904//EN"
 "http://www.w3.org/TR/2001/REC-SVG-20010904/DTD/svg10.dtd">
<svg version="1.0" xmlns="http://www.w3.org/2000/svg"
 width="495.992" height="620.531" viewBox="0 0 1080.000000 1080.000000"
 preserveAspectRatio="xMidYMid meet">

<g transform="translate(0.000000,1080.000000) scale(0.100000,-0.100000)"
fill="#106c8e" stroke="none">
<path d="M4078 10320 c-15 -11 -30 -38 -37 -63 -6 -24 -17 -50 -26 -57 -19
-16 -19 -34 0 -50 19 -16 12 -26 -23 -33 -29 -6 -81 -59 -136 -141 -21 -32
-26 -50 -26 -103 0 -53 -6 -75 -35 -133 -38 -76 -51 -83 -106 -55 -32 17 -33
17 -97 -32 -24 -18 -54 -33 -67 -33 -63 0 -88 -12 -103 -51 -8 -21 -22 -41
-31 -44 -18 -5 -114 25 -216 68 -125 52 -202 45 -283 -28 -69 -62 -82 -66
-180 -63 -81 2 -90 0 -126 -25 -34 -23 -48 -27 -113 -27 -56 0 -74 -3 -71 -12
3 -7 26 -80 53 -163 26 -82 57 -161 69 -175 18 -22 123 -340 180 -550 15 -54
178 -320 196 -320 5 0 16 22 25 50 10 31 28 59 48 75 l32 25 3 -23 c2 -12 17
-36 34 -54 l31 -32 -44 -50 c-47 -54 -60 -59 -79 -36 -8 9 -30 15 -58 15 l-45
0 6 -72 c6 -72 -1 -102 -30 -123 -12 -9 -6 -17 26 -43 42 -34 45 -40 76 -187
15 -71 22 -84 58 -117 39 -37 40 -40 123 -339 46 -166 84 -310 84 -320 0 -10
-5 -30 -12 -45 -11 -24 -9 -29 25 -60 43 -39 77 -43 164 -18 54 16 55 17 51
49 -4 33 -3 33 27 28 16 -3 52 -14 78 -24 50 -20 94 -24 114 -11 16 10 33 57
33 90 1 27 20 62 35 62 5 0 28 -10 53 -21 33 -16 64 -22 127 -23 77 -1 85 1
107 25 20 21 36 27 94 32 38 4 93 14 121 22 73 22 162 91 208 161 47 74 94
124 114 124 9 0 -5 -18 -33 -42 -50 -43 -76 -88 -76 -133 0 -19 -15 -40 -52
-74 -28 -26 -49 -52 -45 -58 4 -7 58 -2 164 13 208 31 200 28 213 68 8 25 24
42 56 60 24 13 44 22 44 20 0 -3 -9 -23 -20 -45 -67 -131 -278 -227 -438 -199
-36 6 -78 18 -93 26 -38 19 -89 18 -205 -7 -67 -14 -134 -20 -206 -20 l-107 0
-57 -77 c-69 -94 -71 -100 -91 -230 -10 -65 -23 -112 -34 -125 l-18 -22 -46
24 c-48 25 -80 21 -80 -9 0 -19 155 -136 163 -124 15 24 54 35 95 28 23 -3 72
-7 108 -8 56 -1 74 -6 118 -34 62 -38 63 -38 86 -12 28 31 45 25 102 -36 37
-39 54 -67 58 -92 17 -104 19 -105 143 -85 105 18 108 17 149 -56 40 -70 73
-100 127 -116 78 -23 127 -20 173 14 l40 29 0 -30 c0 -16 6 -36 14 -44 8 -8
61 -25 118 -39 129 -31 138 -37 161 -90 10 -24 30 -51 44 -61 30 -19 33 -40 9
-73 l-16 -24 -14 28 c-13 24 -19 26 -48 21 -29 -6 -38 -2 -70 29 -41 42 -90
65 -137 65 -51 1 -114 34 -164 89 -26 28 -51 51 -55 51 -5 0 -9 -25 -9 -56 l0
-56 -40 41 c-53 54 -93 56 -147 7 -41 -36 -93 -66 -117 -66 -8 0 -39 28 -70
61 -47 52 -58 60 -71 49 -9 -7 -15 -29 -15 -50 l0 -38 -40 15 c-31 12 -46 14
-64 5 -22 -10 -25 -8 -31 16 -10 40 -44 72 -77 72 -16 0 -50 -11 -77 -25 l-48
-24 -34 24 c-46 35 -65 32 -73 -9 -4 -19 -13 -40 -22 -47 -13 -10 -20 -6 -45
25 -33 40 -139 116 -162 116 -7 0 -34 -7 -60 -16 -55 -19 -60 -40 -23 -94 13
-20 30 -58 38 -85 l14 -50 62 -6 c35 -3 68 -11 73 -16 14 -14 28 -78 29 -125
0 -35 3 -38 77 -78 42 -22 99 -46 126 -52 39 -8 60 -20 97 -59 42 -43 53 -49
88 -49 32 0 49 7 76 31 31 27 143 79 171 79 20 0 61 -53 119 -152 116 -198
145 -280 261 -733 42 -165 110 -424 151 -575 87 -324 117 -455 139 -605 17
-121 30 -177 74 -336 l29 -107 -30 -45 c-16 -26 -38 -49 -48 -52 -27 -9 -33
-39 -16 -74 9 -17 16 -48 16 -70 0 -49 -27 -74 -123 -115 -37 -15 -67 -32 -67
-37 0 -5 9 -26 20 -46 11 -21 20 -52 20 -70 0 -32 -8 -41 -100 -121 -19 -17
-32 -34 -27 -38 4 -4 36 -2 71 4 76 14 90 10 107 -29 14 -35 72 -67 169 -94
36 -9 77 -23 91 -30 50 -26 127 -105 144 -147 23 -60 43 -78 81 -78 30 0 35
-5 57 -52 49 -106 53 -125 33 -159 -21 -36 -16 -69 20 -116 20 -26 32 -33 59
-33 18 0 45 -4 58 -9 39 -15 99 -73 115 -111 14 -33 15 -34 28 -15 42 63 42
63 69 32 14 -15 25 -39 25 -53 0 -15 6 -24 15 -24 8 0 15 -8 15 -18 0 -10 14
-26 30 -35 36 -22 60 -64 60 -107 0 -17 12 -54 26 -83 37 -72 84 -214 84 -253
0 -17 -9 -43 -20 -57 -23 -29 -24 -58 -6 -144 13 -59 12 -63 -10 -95 -12 -18
-26 -49 -29 -69 -6 -32 -3 -38 39 -77 25 -23 54 -42 63 -42 10 0 53 -14 97
-31 52 -20 94 -30 125 -29 68 3 68 3 81 -32 16 -41 39 -68 57 -68 7 0 23 12
36 27 12 15 39 45 59 66 33 34 41 37 71 32 28 -6 49 1 113 34 44 22 87 48 96
57 14 14 29 16 85 10 73 -7 145 -36 219 -86 40 -28 49 -31 71 -21 25 12 26 13
21 106 -4 75 -11 105 -32 148 -14 30 -26 60 -26 68 1 8 20 50 43 94 31 59 48
81 64 83 29 4 113 -51 188 -123 l56 -55 -6 -53 c-8 -65 7 -101 59 -141 l35
-26 58 101 c96 167 92 163 148 171 62 9 95 42 95 96 1 44 15 73 52 102 l27 21
26 -41 c31 -49 91 -83 106 -60 5 8 12 26 15 40 14 62 38 112 75 153 21 25 39
53 39 62 0 9 -25 44 -55 78 -42 46 -55 68 -53 87 2 20 9 26 33 28 17 2 47 8
68 13 30 8 37 14 37 35 0 43 29 96 85 155 60 63 75 92 75 145 0 36 36 84 63
84 24 0 59 47 64 88 5 35 1 46 -26 79 -25 30 -31 47 -31 86 0 38 -5 53 -25 72
-13 14 -31 25 -39 25 -28 0 -36 38 -36 172 0 146 -5 163 -53 176 l-29 8 53 54
c83 88 114 184 89 275 -7 26 -13 85 -14 133 l-1 86 50 19 c28 10 61 28 74 40
21 20 208 284 231 326 10 20 -19 107 -76 230 -20 42 -39 101 -43 131 -5 50 -9
56 -39 70 -22 9 -35 23 -39 41 -10 50 -44 76 -173 127 -69 27 -143 53 -166 56
-58 10 -99 38 -129 90 -37 63 -31 86 26 102 56 17 113 75 128 131 5 21 14 54
18 73 l9 35 70 0 c67 0 71 1 122 44 l52 44 50 -27 c53 -29 89 -33 213 -25 58
4 72 9 89 30 36 45 58 84 58 104 0 11 -32 59 -70 105 -39 47 -80 105 -92 130
-32 64 -30 140 5 207 35 68 34 90 -8 149 -48 67 -48 115 -1 177 l34 45 -107
71 c-125 83 -166 101 -221 101 -57 0 -106 23 -124 58 -13 25 -14 51 -9 140 l6
109 -42 45 c-22 25 -41 53 -41 63 0 9 17 44 38 78 35 58 37 65 37 146 l0 86
-111 220 c-61 121 -121 236 -133 255 -11 19 -21 43 -21 53 0 29 81 100 136
119 67 23 119 77 160 165 19 39 34 77 34 84 0 6 -10 52 -21 102 -20 86 -24 93
-78 146 -40 39 -60 69 -70 101 -7 25 -19 55 -27 68 l-15 22 -32 -24 -32 -24
-43 25 c-31 19 -41 30 -37 42 4 9 13 43 22 76 11 44 24 69 49 92 44 42 64 89
64 153 0 28 7 79 16 114 l16 64 -35 53 c-52 82 -67 93 -113 80 -20 -6 -40 -8
-44 -6 -11 7 6 85 40 197 17 53 30 104 30 113 0 10 -38 55 -85 101 l-84 83
-29 -24 c-26 -22 -31 -23 -48 -10 -29 22 -53 18 -85 -14 -33 -34 -35 -49 -13
-97 9 -19 15 -36 13 -38 -2 -3 -32 -10 -66 -17 -57 -12 -64 -11 -83 6 -17 15
-19 26 -14 65 7 56 1 63 -80 84 -87 22 -95 34 -62 90 32 54 33 70 4 90 -93 66
-247 -72 -248 -221 0 -57 -17 -83 -54 -83 -13 0 -29 -6 -35 -14 -8 -10 -40
-16 -94 -19 -45 -3 -97 -8 -116 -12 -19 -5 -56 -2 -87 5 l-53 13 -53 -36 c-29
-20 -96 -50 -148 -67 -106 -36 -150 -56 -228 -108 -45 -30 -65 -37 -130 -42
-118 -10 -323 -59 -351 -84 -12 -11 -36 -47 -52 -78 -28 -55 -31 -58 -67 -58
-20 0 -70 9 -111 20 -41 11 -88 20 -103 20 -43 0 -78 22 -131 84 -27 31 -72
72 -102 90 -112 72 -150 176 -101 279 30 64 32 94 11 173 -8 31 -19 104 -25
162 -6 58 -18 118 -26 133 -19 38 -66 61 -115 58 -21 -2 -39 0 -39 4 0 4 11
25 26 46 14 22 28 58 31 80 5 35 1 48 -32 95 -23 34 -46 86 -62 142 -30 108
-43 129 -85 142 -69 21 -246 31 -318 17 -26 -5 -63 3 -145 30 -60 20 -115 41
-122 47 -21 17 -15 67 17 148 l30 75 -25 37 c-13 20 -42 51 -65 69 -40 32 -40
33 -40 99 l0 67 -39 11 c-52 16 -64 15 -93 -8z m79 -16 c29 -6 29 -7 25 -60
-4 -46 -1 -60 21 -93 14 -21 46 -56 72 -76 l46 -38 -25 -26 c-23 -25 -35 -73
-38 -159 -2 -49 24 -67 154 -107 131 -39 158 -42 192 -20 20 14 27 14 59 0 23
-9 68 -15 122 -15 110 0 123 -11 156 -135 14 -55 36 -107 56 -137 45 -64 43
-98 -7 -176 -22 -33 -40 -64 -40 -67 0 -3 30 -5 66 -5 36 0 74 -5 85 -10 31
-17 46 -60 52 -151 3 -48 16 -125 28 -171 l22 -85 -27 -57 c-15 -32 -30 -73
-33 -91 -12 -75 54 -183 145 -239 32 -19 74 -57 96 -86 46 -60 75 -77 153 -89
32 -5 95 -17 140 -27 82 -18 83 -18 110 2 15 12 38 41 50 66 28 60 61 84 124
92 28 4 91 18 139 30 48 13 99 22 113 19 34 -7 91 13 152 52 28 17 117 60 197
94 81 35 159 72 173 83 20 16 34 19 63 13 113 -21 399 22 422 64 4 9 13 49 18
89 13 92 48 153 106 187 32 19 51 24 75 19 42 -9 44 -15 16 -54 -29 -40 -32
-90 -7 -113 9 -8 43 -22 75 -30 33 -9 62 -18 65 -22 3 -3 5 -26 3 -50 -2 -36
2 -49 23 -70 29 -29 53 -31 123 -10 69 21 81 36 60 81 -23 47 -21 61 8 80 24
15 27 15 44 0 23 -21 44 -20 65 3 17 19 18 19 52 -1 19 -11 34 -26 34 -34 0
-7 18 -28 40 -45 22 -18 40 -40 40 -48 0 -9 -16 -70 -35 -135 -39 -132 -44
-181 -19 -190 9 -3 35 -6 59 -6 36 0 47 -5 70 -32 43 -51 46 -69 29 -186 -9
-59 -18 -117 -20 -130 -3 -13 -21 -39 -40 -59 -37 -37 -64 -88 -64 -120 0 -10
-9 -35 -20 -56 -11 -20 -20 -41 -20 -45 0 -11 106 -62 129 -62 11 0 28 12 38
26 l19 26 17 -60 c12 -45 30 -75 68 -119 70 -80 81 -104 87 -199 4 -72 2 -88
-20 -136 -29 -62 -67 -95 -154 -134 -88 -39 -134 -89 -134 -148 0 -15 56 -134
125 -267 68 -132 129 -257 135 -277 20 -72 6 -139 -44 -210 -14 -21 -28 -52
-32 -69 -5 -27 0 -37 37 -78 l44 -48 -3 -113 c-3 -93 0 -119 14 -143 22 -38
64 -61 111 -61 58 -1 129 -30 230 -97 l92 -60 -24 -33 c-47 -63 -45 -132 5
-195 36 -46 37 -75 5 -139 -53 -105 -24 -215 94 -353 34 -40 61 -82 61 -93 0
-12 -13 -39 -30 -60 l-29 -37 -86 -2 c-95 -1 -168 13 -204 41 -34 26 -49 23
-73 -17 -30 -51 -68 -68 -137 -61 -31 4 -61 3 -67 -1 -17 -12 -31 -44 -39 -88
-15 -88 -53 -132 -133 -156 -23 -7 -47 -18 -53 -26 -28 -33 34 -158 92 -189
18 -9 60 -22 94 -29 34 -7 90 -27 125 -43 36 -17 78 -34 93 -38 37 -9 81 -54
93 -95 7 -23 17 -35 34 -39 21 -5 26 -13 31 -56 4 -28 32 -110 63 -184 31 -73
56 -140 56 -149 0 -23 -178 -287 -217 -321 -18 -16 -51 -35 -74 -41 -63 -19
-69 -36 -59 -159 5 -58 9 -139 10 -181 0 -66 -3 -80 -29 -120 -15 -24 -45 -60
-65 -78 -20 -19 -36 -40 -36 -45 0 -6 17 -25 37 -42 l38 -32 2 -137 c2 -127 4
-140 24 -161 13 -13 28 -24 35 -24 18 0 34 -33 34 -70 0 -40 25 -99 45 -106 9
-4 15 -19 15 -40 0 -37 -18 -59 -80 -98 -30 -19 -36 -29 -42 -74 -10 -68 -25
-94 -93 -166 -41 -44 -57 -70 -62 -98 -7 -45 -34 -68 -79 -68 -45 0 -77 -29
-77 -71 0 -28 9 -42 63 -91 l64 -58 -26 -27 c-48 -53 -78 -108 -89 -165 -6
-32 -15 -58 -18 -58 -10 0 -54 49 -74 82 -25 40 -57 36 -100 -11 -25 -28 -38
-53 -43 -87 -9 -60 -31 -82 -94 -90 -58 -8 -54 -2 -133 -152 l-54 -103 -32 30
c-28 27 -31 34 -31 93 -1 34 -6 73 -13 85 -25 45 -182 166 -230 178 -35 9 -75
-32 -133 -139 l-44 -79 29 -33 c16 -18 34 -47 39 -66 10 -30 23 -198 16 -198
-2 0 -41 22 -87 50 -108 63 -226 97 -265 76 -15 -7 -52 -27 -83 -43 -30 -16
-66 -37 -79 -46 -15 -11 -44 -17 -76 -17 -47 0 -55 -3 -87 -39 -20 -22 -43
-51 -53 -66 -19 -30 -27 -25 -44 28 -17 54 -44 69 -100 56 -53 -12 -82 -6
-132 27 -21 13 -43 24 -50 24 -38 0 -89 24 -107 49 l-21 29 26 57 c21 44 25
65 20 98 -19 121 -19 136 3 163 32 40 26 81 -29 220 -28 69 -57 152 -64 184
-16 68 -13 62 -99 178 -72 96 -93 110 -127 92 -19 -10 -26 -7 -57 29 -45 53
-66 64 -132 71 -49 4 -57 9 -73 37 -17 29 -18 34 -4 67 13 32 13 43 0 92 -27
105 -70 164 -119 164 -32 0 -35 3 -55 58 -24 65 -42 87 -85 110 -16 8 -46 27
-65 42 -36 29 -75 43 -145 55 -60 10 -93 31 -115 75 -23 44 -51 57 -94 41 -39
-15 -44 -13 -19 8 64 53 88 129 58 181 -8 14 -14 28 -15 31 0 4 30 24 66 45
110 64 133 109 99 190 l-15 36 55 63 55 63 -54 213 c-31 118 -67 284 -81 369
-31 187 -50 271 -115 500 -27 96 -88 326 -135 510 -126 489 -170 612 -305 835
-60 99 -91 128 -129 118 -61 -15 -147 -55 -173 -80 -44 -42 -81 -36 -136 24
-40 42 -54 51 -94 56 -35 5 -155 58 -187 84 -3 2 -8 33 -13 70 -11 95 -26 113
-91 113 -64 0 -72 6 -80 52 -3 21 -20 58 -36 82 l-31 45 39 12 c54 16 87 1
166 -73 35 -32 67 -58 72 -58 20 0 63 42 63 61 0 21 1 22 24 13 9 -3 16 -12
16 -19 0 -7 6 -18 14 -24 16 -13 57 3 105 40 13 11 31 19 41 19 20 0 55 -36
64 -67 10 -33 31 -46 55 -34 14 8 32 8 65 -1 40 -11 47 -10 65 6 26 23 63 15
85 -19 11 -17 26 -25 44 -25 31 0 119 52 128 75 19 49 71 36 139 -34 22 -23
43 -41 48 -41 4 0 7 26 7 57 l0 57 43 -42 c44 -43 126 -82 173 -82 32 0 57
-13 112 -57 34 -28 50 -34 76 -31 l33 4 18 -76 c16 -68 23 -81 79 -140 34 -36
88 -95 119 -132 65 -75 95 -88 166 -68 40 10 46 9 82 -14 53 -36 53 -71 1
-118 -56 -50 -72 -78 -72 -120 0 -35 11 -49 127 -173 118 -126 129 -135 163
-135 41 0 103 36 108 63 3 13 -3 17 -23 17 -66 0 -113 48 -165 166 l-38 89 29
23 c38 31 41 77 4 86 -22 6 -23 9 -14 32 11 31 -5 63 -46 90 -27 18 -65 89
-65 123 0 23 -1 23 -26 7 -14 -10 -30 -16 -35 -14 -6 2 -34 35 -62 73 -29 38
-60 71 -70 73 -10 2 -33 -3 -52 -12 -52 -25 -92 -21 -126 13 -34 34 -39 85
-14 145 17 41 12 58 -30 100 -52 52 -41 106 22 106 l35 0 -7 46 c-14 94 -32
98 -74 16 -12 -24 -29 -46 -37 -49 -13 -5 -68 7 -226 48 -42 11 -48 28 -23 75
16 31 19 64 9 102 -9 33 -18 27 -45 -30 -13 -28 -36 -64 -50 -80 -24 -24 -34
-28 -83 -28 -96 0 -129 22 -197 133 -36 59 -64 71 -137 57 -31 -5 -72 -10 -93
-10 l-37 0 -11 61 c-9 54 -16 66 -69 120 -63 63 -86 71 -123 40 -23 -19 -25
-19 -54 -1 -73 44 -220 63 -331 41 -34 -6 -45 -4 -69 15 l-28 22 31 6 c55 13
81 59 93 166 14 120 64 217 139 266 36 24 43 25 127 19 75 -6 105 -3 196 18
l108 25 72 -24 c127 -44 259 -31 388 38 78 41 127 91 188 193 50 82 52 89 40
117 -17 41 -186 188 -217 188 -41 0 -122 -32 -137 -53 -8 -12 -15 -31 -15 -43
0 -12 -7 -28 -16 -35 -9 -8 -43 -48 -74 -90 -107 -139 -195 -199 -294 -199
-73 0 -138 -13 -144 -29 -9 -26 -23 -31 -94 -31 -54 0 -79 6 -124 28 l-56 27
-29 -35 c-19 -22 -29 -46 -29 -66 0 -71 -20 -78 -130 -43 -42 13 -77 18 -99
14 -30 -6 -33 -9 -28 -34 6 -27 3 -29 -50 -44 -54 -16 -58 -16 -94 4 -35 20
-36 23 -27 55 9 34 -26 188 -112 489 -15 55 -35 126 -44 158 -14 49 -22 60
-51 74 -33 16 -35 21 -55 112 -27 125 -47 179 -71 192 -16 8 -17 13 -8 31 7
14 10 48 6 95 -6 81 -2 85 51 53 18 -11 38 -20 46 -20 15 0 126 113 126 129 0
6 -14 26 -31 46 l-32 36 30 37 c27 33 37 38 89 43 53 6 62 11 97 49 22 26 44
64 53 97 20 68 41 80 110 63 27 -7 75 -14 106 -17 51 -4 64 -1 111 26 30 17
57 31 59 31 3 0 22 -13 43 -30 40 -32 64 -35 149 -24 l47 7 -28 29 c-38 39
-108 58 -222 58 -86 0 -98 -2 -133 -26 -42 -29 -55 -29 -133 6 -67 29 -95 18
-130 -50 -19 -38 -40 -60 -81 -86 -30 -19 -57 -41 -60 -49 -3 -7 -17 -16 -31
-20 -14 -3 -51 -30 -82 -59 -31 -29 -70 -62 -87 -74 -18 -12 -35 -33 -38 -47
-4 -14 -10 -25 -14 -25 -10 1 -105 145 -140 216 -17 34 -43 108 -57 165 -36
142 -134 440 -151 460 -12 13 -76 179 -101 260 -4 13 5 18 44 23 26 4 73 19
103 33 46 21 68 25 138 24 94 -1 108 4 173 64 53 49 105 69 163 63 23 -3 104
-28 180 -57 77 -29 148 -51 160 -49 13 2 25 14 31 34 15 47 31 61 79 66 27 3
62 18 91 38 46 32 49 33 95 21 25 -6 54 -9 63 -5 9 3 35 43 57 87 37 73 41 88
38 143 -2 61 -2 61 56 133 58 72 85 91 132 91 24 0 24 0 9 38 -14 34 -14 42 0
82 30 86 42 96 102 84z m-507 -1611 c0 -11 -109 -57 -116 -50 -7 6 84 56 104
57 6 0 12 -3 12 -7z m169 -15 c65 -15 65 -28 1 -28 -39 0 -52 4 -60 20 -13 24
-9 24 59 8z m-549 -120 c0 -33 -40 -77 -80 -88 -73 -20 -74 -7 -3 47 72 55 83
60 83 41z m1360 -1086 c-13 -9 -37 -26 -53 -36 l-29 -19 4 23 c2 16 15 27 48
40 52 19 64 17 30 -8z m133 -76 c37 -41 67 -77 67 -80 0 -3 -27 -24 -60 -46
-33 -23 -72 -59 -86 -80 -15 -22 -34 -42 -43 -44 -28 -9 -263 -37 -268 -33 -2
3 12 14 31 25 20 12 37 31 40 44 19 103 16 99 131 195 61 51 112 93 115 93 3
0 36 -33 73 -74z m637 -1916 c30 -44 59 -80 63 -80 5 0 16 4 26 10 15 8 21 3
34 -30 8 -22 14 -40 13 -40 -2 0 -17 5 -33 11 -24 8 -39 7 -68 -5 -52 -22 -60
-21 -107 22 -45 40 -131 152 -124 160 5 4 110 29 131 31 6 0 35 -35 65 -79z
m250 -319 c0 -4 -9 -16 -21 -27 -18 -16 -20 -27 -15 -67 11 -101 79 -202 161
-241 43 -21 33 -36 -24 -36 -28 0 -45 12 -108 73 -41 39 -98 98 -125 130 -62
71 -60 90 19 164 l56 52 28 -20 c16 -11 29 -24 29 -28z"/>
<path d="M3476 5649 c-20 -30 -20 -36 3 -65 l19 -24 21 26 c26 33 26 36 -3 63
l-24 22 -16 -22z"/>
<path d="M3315 5380 c-11 -5 -55 -9 -97 -9 -62 -1 -78 -4 -78 -16 0 -28 44
-45 116 -45 38 0 80 -1 93 -3 19 -1 26 4 31 24 4 15 5 31 1 36 -10 16 -44 22
-66 13z"/>
</g>
</svg>
